<svg xmlns="http://www.w3.org/2000/svg" xmlns:xlink="http://www.w3.org/1999/xlink" width="500" zoomAndPan="magnify" viewBox="0 0 375 374.999991" height="500" preserveAspectRatio="xMidYMid meet" version="1.0"><defs><clipPath id="55b95a0247"><path d="M 45 142 L 333 142 L 333 271 L 45 271 Z M 45 142 " clip-rule="nonzero"/></clipPath><clipPath id="b33c89502c"><path d="M 61.652344 76.929688 L 350.25 147.070312 L 313.585938 297.925781 L 24.988281 227.789062 Z M 61.652344 76.929688 " clip-rule="nonzero"/></clipPath><clipPath id="9e0e016002"><path d="M 61.652344 76.929688 L 350.25 147.070312 L 313.585938 297.925781 L 24.988281 227.789062 Z M 61.652344 76.929688 " clip-rule="nonzero"/></clipPath><clipPath id="b5e089ed8a"><path d="M 50 106 L 333 106 L 333 247 L 50 247 Z M 50 106 " clip-rule="nonzero"/></clipPath><clipPath id="484513fc9c"><path d="M 61.652344 76.929688 L 350.25 147.070312 L 313.585938 297.925781 L 24.988281 227.789062 Z M 61.652344 76.929688 " clip-rule="nonzero"/></clipPath><clipPath id="1b8eaba386"><path d="M 61.652344 76.929688 L 350.25 147.070312 L 313.585938 297.925781 L 24.988281 227.789062 Z M 61.652344 76.929688 " clip-rule="nonzero"/></clipPath><clipPath id="810f022178"><path d="M 69 122 L 317 122 L 317 231 L 69 231 Z M 69 122 " clip-rule="nonzero"/></clipPath><clipPath id="3e8989aab9"><path d="M 61.652344 76.929688 L 350.25 147.070312 L 313.585938 297.925781 L 24.988281 227.789062 Z M 61.652344 76.929688 " clip-rule="nonzero"/></clipPath><clipPath id="898498052e"><path d="M 61.652344 76.929688 L 350.25 147.070312 L 313.585938 297.925781 L 24.988281 227.789062 Z M 61.652344 76.929688 " clip-rule="nonzero"/></clipPath><clipPath id="8b385723ac"><path d="M 46 103 L 335 103 L 335 248 L 46 248 Z M 46 103 " clip-rule="nonzero"/></clipPath><clipPath id="a402c70986"><path d="M 61.652344 76.929688 L 350.25 147.070312 L 313.585938 297.925781 L 24.988281 227.789062 Z M 61.652344 76.929688 " clip-rule="nonzero"/></clipPath><clipPath id="a40dabd4d0"><path d="M 61.652344 76.929688 L 350.25 147.070312 L 313.585938 297.925781 L 24.988281 227.789062 Z M 61.652344 76.929688 " clip-rule="nonzero"/></clipPath><clipPath id="26ccb442ef"><path d="M 64 118 L 319 118 L 319 232 L 64 232 Z M 64 118 " clip-rule="nonzero"/></clipPath><clipPath id="a33633e8d4"><path d="M 61.652344 76.929688 L 350.25 147.070312 L 313.585938 297.925781 L 24.988281 227.789062 Z M 61.652344 76.929688 " clip-rule="nonzero"/></clipPath><clipPath id="bf3398792e"><path d="M 61.652344 76.929688 L 350.25 147.070312 L 313.585938 297.925781 L 24.988281 227.789062 Z M 61.652344 76.929688 " clip-rule="nonzero"/></clipPath><clipPath id="6f7e40a94a"><path d="M 41 146 L 334 146 L 334 273 L 41 273 Z M 41 146 " clip-rule="nonzero"/></clipPath><clipPath id="19bb44f8c0"><path d="M 61.652344 76.929688 L 350.25 147.070312 L 313.585938 297.925781 L 24.988281 227.789062 Z M 61.652344 76.929688 " clip-rule="nonzero"/></clipPath><clipPath id="f091ccefc4"><path d="M 61.652344 76.929688 L 350.25 147.070312 L 313.585938 297.925781 L 24.988281 227.789062 Z M 61.652344 76.929688 " clip-rule="nonzero"/></clipPath><clipPath id="21c5505fca"><path d="M 166 235 L 178 235 L 178 263 L 166 263 Z M 166 235 " clip-rule="nonzero"/></clipPath><clipPath id="123bfae5d7"><path d="M 61.652344 76.929688 L 350.25 147.070312 L 313.585938 297.925781 L 24.988281 227.789062 Z M 61.652344 76.929688 " clip-rule="nonzero"/></clipPath><clipPath id="9896c136a7"><path d="M 61.652344 76.929688 L 350.25 147.070312 L 313.585938 297.925781 L 24.988281 227.789062 Z M 61.652344 76.929688 " clip-rule="nonzero"/></clipPath><clipPath id="dcfe1478f2"><path d="M 153 231 L 164 231 L 164 258 L 153 258 Z M 153 231 " clip-rule="nonzero"/></clipPath><clipPath id="718d48a730"><path d="M 61.652344 76.929688 L 350.25 147.070312 L 313.585938 297.925781 L 24.988281 227.789062 Z M 61.652344 76.929688 " clip-rule="nonzero"/></clipPath><clipPath id="aed9dd01c9"><path d="M 61.652344 76.929688 L 350.25 147.070312 L 313.585938 297.925781 L 24.988281 227.789062 Z M 61.652344 76.929688 " clip-rule="nonzero"/></clipPath><clipPath id="b6bc67f094"><path d="M 137 228 L 148 228 L 148 254 L 137 254 Z M 137 228 " clip-rule="nonzero"/></clipPath><clipPath id="8dff46a705"><path d="M 61.652344 76.929688 L 350.25 147.070312 L 313.585938 297.925781 L 24.988281 227.789062 Z M 61.652344 76.929688 " clip-rule="nonzero"/></clipPath><clipPath id="37a198b902"><path d="M 61.652344 76.929688 L 350.25 147.070312 L 313.585938 297.925781 L 24.988281 227.789062 Z M 61.652344 76.929688 " clip-rule="nonzero"/></clipPath><clipPath id="60d500b9c9"><path d="M 122 221 L 133 221 L 133 248 L 122 248 Z M 122 221 " clip-rule="nonzero"/></clipPath><clipPath id="51cac2893f"><path d="M 61.652344 76.929688 L 350.25 147.070312 L 313.585938 297.925781 L 24.988281 227.789062 Z M 61.652344 76.929688 " clip-rule="nonzero"/></clipPath><clipPath id="3ee74feedf"><path d="M 61.652344 76.929688 L 350.25 147.070312 L 313.585938 297.925781 L 24.988281 227.789062 Z M 61.652344 76.929688 " clip-rule="nonzero"/></clipPath><clipPath id="4f8f4440d5"><path d="M 107 215 L 117 215 L 117 241 L 107 241 Z M 107 215 " clip-rule="nonzero"/></clipPath><clipPath id="2ef99b41da"><path d="M 61.652344 76.929688 L 350.25 147.070312 L 313.585938 297.925781 L 24.988281 227.789062 Z M 61.652344 76.929688 " clip-rule="nonzero"/></clipPath><clipPath id="d8887509f6"><path d="M 61.652344 76.929688 L 350.25 147.070312 L 313.585938 297.925781 L 24.988281 227.789062 Z M 61.652344 76.929688 " clip-rule="nonzero"/></clipPath><clipPath id="63df0bcfd3"><path d="M 92 207 L 102 207 L 102 233 L 92 233 Z M 92 207 " clip-rule="nonzero"/></clipPath><clipPath id="c319aa5029"><path d="M 61.652344 76.929688 L 350.25 147.070312 L 313.585938 297.925781 L 24.988281 227.789062 Z M 61.652344 76.929688 " clip-rule="nonzero"/></clipPath><clipPath id="f908836967"><path d="M 61.652344 76.929688 L 350.25 147.070312 L 313.585938 297.925781 L 24.988281 227.789062 Z M 61.652344 76.929688 " clip-rule="nonzero"/></clipPath><clipPath id="cd6558ec78"><path d="M 77 198 L 88 198 L 88 225 L 77 225 Z M 77 198 " clip-rule="nonzero"/></clipPath><clipPath id="43d58d11e6"><path d="M 61.652344 76.929688 L 350.25 147.070312 L 313.585938 297.925781 L 24.988281 227.789062 Z M 61.652344 76.929688 " clip-rule="nonzero"/></clipPath><clipPath id="babc3f0d54"><path d="M 61.652344 76.929688 L 350.25 147.070312 L 313.585938 297.925781 L 24.988281 227.789062 Z M 61.652344 76.929688 " clip-rule="nonzero"/></clipPath><clipPath id="44bf3575f4"><path d="M 63 185 L 74 185 L 74 214 L 63 214 Z M 63 185 " clip-rule="nonzero"/></clipPath><clipPath id="027fb1d808"><path d="M 61.652344 76.929688 L 350.25 147.070312 L 313.585938 297.925781 L 24.988281 227.789062 Z M 61.652344 76.929688 " clip-rule="nonzero"/></clipPath><clipPath id="b426240d57"><path d="M 61.652344 76.929688 L 350.25 147.070312 L 313.585938 297.925781 L 24.988281 227.789062 Z M 61.652344 76.929688 " clip-rule="nonzero"/></clipPath><clipPath id="650405e9fc"><path d="M 49 172 L 60 172 L 60 199 L 49 199 Z M 49 172 " clip-rule="nonzero"/></clipPath><clipPath id="99c53e60b2"><path d="M 61.652344 76.929688 L 350.25 147.070312 L 313.585938 297.925781 L 24.988281 227.789062 Z M 61.652344 76.929688 " clip-rule="nonzero"/></clipPath><clipPath id="7ef1c8835d"><path d="M 61.652344 76.929688 L 350.25 147.070312 L 313.585938 297.925781 L 24.988281 227.789062 Z M 61.652344 76.929688 " clip-rule="nonzero"/></clipPath><clipPath id="ae50464f3c"><path d="M 183 239 L 194 239 L 194 265 L 183 265 Z M 183 239 " clip-rule="nonzero"/></clipPath><clipPath id="060db52061"><path d="M 61.652344 76.929688 L 350.25 147.070312 L 313.585938 297.925781 L 24.988281 227.789062 Z M 61.652344 76.929688 " clip-rule="nonzero"/></clipPath><clipPath id="08adc29880"><path d="M 61.652344 76.929688 L 350.25 147.070312 L 313.585938 297.925781 L 24.988281 227.789062 Z M 61.652344 76.929688 " clip-rule="nonzero"/></clipPath><clipPath id="3ae522f1f6"><path d="M 199 243 L 210 243 L 210 269 L 199 269 Z M 199 243 " clip-rule="nonzero"/></clipPath><clipPath id="e5d53ceb77"><path d="M 61.652344 76.929688 L 350.25 147.070312 L 313.585938 297.925781 L 24.988281 227.789062 Z M 61.652344 76.929688 " clip-rule="nonzero"/></clipPath><clipPath id="cf4538d9e9"><path d="M 61.652344 76.929688 L 350.25 147.070312 L 313.585938 297.925781 L 24.988281 227.789062 Z M 61.652344 76.929688 " clip-rule="nonzero"/></clipPath><clipPath id="6b34f17d7d"><path d="M 215 244 L 226 244 L 226 270 L 215 270 Z M 215 244 " clip-rule="nonzero"/></clipPath><clipPath id="f2a7933cfa"><path d="M 61.652344 76.929688 L 350.25 147.070312 L 313.585938 297.925781 L 24.988281 227.789062 Z M 61.652344 76.929688 " clip-rule="nonzero"/></clipPath><clipPath id="8c45ae3cf1"><path d="M 61.652344 76.929688 L 350.25 147.070312 L 313.585938 297.925781 L 24.988281 227.789062 Z M 61.652344 76.929688 " clip-rule="nonzero"/></clipPath><clipPath id="dac1635489"><path d="M 232 243 L 243 243 L 243 272 L 232 272 Z M 232 243 " clip-rule="nonzero"/></clipPath><clipPath id="ee5dfcc6cf"><path d="M 61.652344 76.929688 L 350.25 147.070312 L 313.585938 297.925781 L 24.988281 227.789062 Z M 61.652344 76.929688 " clip-rule="nonzero"/></clipPath><clipPath id="74b1710133"><path d="M 61.652344 76.929688 L 350.25 147.070312 L 313.585938 297.925781 L 24.988281 227.789062 Z M 61.652344 76.929688 " clip-rule="nonzero"/></clipPath><clipPath id="bdf712d3be"><path d="M 249 245 L 260 245 L 260 271 L 249 271 Z M 249 245 " clip-rule="nonzero"/></clipPath><clipPath id="293c5a70ac"><path d="M 61.652344 76.929688 L 350.25 147.070312 L 313.585938 297.925781 L 24.988281 227.789062 Z M 61.652344 76.929688 " clip-rule="nonzero"/></clipPath><clipPath id="e2815cbec1"><path d="M 61.652344 76.929688 L 350.25 147.070312 L 313.585938 297.925781 L 24.988281 227.789062 Z M 61.652344 76.929688 " clip-rule="nonzero"/></clipPath><clipPath id="b207e7273d"><path d="M 266 242 L 277 242 L 277 271 L 266 271 Z M 266 242 " clip-rule="nonzero"/></clipPath><clipPath id="81147382c8"><path d="M 61.652344 76.929688 L 350.25 147.070312 L 313.585938 297.925781 L 24.988281 227.789062 Z M 61.652344 76.929688 " clip-rule="nonzero"/></clipPath><clipPath id="72c91529a2"><path d="M 61.652344 76.929688 L 350.25 147.070312 L 313.585938 297.925781 L 24.988281 227.789062 Z M 61.652344 76.929688 " clip-rule="nonzero"/></clipPath><clipPath id="a71cf01382"><path d="M 284 239 L 295 239 L 295 265 L 284 265 Z M 284 239 " clip-rule="nonzero"/></clipPath><clipPath id="309504801b"><path d="M 61.652344 76.929688 L 350.25 147.070312 L 313.585938 297.925781 L 24.988281 227.789062 Z M 61.652344 76.929688 " clip-rule="nonzero"/></clipPath><clipPath id="8500c1ab16"><path d="M 61.652344 76.929688 L 350.25 147.070312 L 313.585938 297.925781 L 24.988281 227.789062 Z M 61.652344 76.929688 " clip-rule="nonzero"/></clipPath><clipPath id="d6abf5506a"><path d="M 302 232 L 314 232 L 314 260 L 302 260 Z M 302 232 " clip-rule="nonzero"/></clipPath><clipPath id="6d58e1eb45"><path d="M 61.652344 76.929688 L 350.25 147.070312 L 313.585938 297.925781 L 24.988281 227.789062 Z M 61.652344 76.929688 " clip-rule="nonzero"/></clipPath><clipPath id="491b46c27a"><path d="M 61.652344 76.929688 L 350.25 147.070312 L 313.585938 297.925781 L 24.988281 227.789062 Z M 61.652344 76.929688 " clip-rule="nonzero"/></clipPath></defs><g clip-path="url(#55b95a0247)"><g clip-path="url(#b33c89502c)"><g clip-path="url(#9e0e016002)"><path fill="#ffde59" d="M 178.578125 237.082031 C 99.984375 217.976562 43.925781 175.644531 52.0625 142.152344 L 46.027344 166.984375 C 42.539062 181.339844 50.71875 197.320312 68.449219 212.726562 C 76.167969 219.671875 84.285156 225.984375 96.894531 232.667969 C 105.117188 237.5625 115.953125 242.609375 126.671875 247.144531 C 135.171875 250.898438 146.339844 254.578125 157.335938 257.972656 C 161.835938 259.308594 166.109375 260.589844 172.945312 262.25 C 177.5 263.359375 181.886719 264.183594 188.773438 265.613281 C 197.769531 267.320312 209.4375 268.949219 220.988281 270.066406 C 232.539062 271.183594 242.261719 270.894531 254.089844 270.871094 C 266.082031 270.167969 278.011719 268.726562 288.058594 266.101562 C 308.605469 259.996094 322.46875 249.613281 326.011719 235.03125 L 332.046875 210.199219 C 324.136719 243.746094 254.898438 255.628906 178.578125 237.082031 Z M 178.578125 237.082031 " fill-opacity="1" fill-rule="nonzero"/></g></g></g><g clip-path="url(#b5e089ed8a)"><g clip-path="url(#484513fc9c)"><g clip-path="url(#1b8eaba386)"><path fill="#fddb30" d="M 207.753906 116.054688 C 129.839844 97.121094 59.972656 108.609375 51.78125 142.328125 C 43.585938 176.042969 100.382812 218.316406 178.296875 237.253906 C 256.210938 256.1875 323.796875 244.144531 331.992188 210.429688 C 340.183594 176.710938 285.890625 135.046875 207.753906 116.054688 Z M 182.117188 221.535156 C 114 204.980469 63.570312 171.25 69.550781 146.644531 C 75.527344 122.042969 135.871094 114.992188 203.988281 131.546875 C 231.550781 138.246094 256.292969 147.636719 275.410156 158.316406 L 291.914062 168.839844 C 309.566406 181.574219 318.984375 195.445312 316.273438 206.609375 C 310.519531 231.265625 250.234375 238.089844 182.117188 221.535156 Z M 182.117188 221.535156 " fill-opacity="1" fill-rule="nonzero"/></g></g></g><g clip-path="url(#810f022178)"><g clip-path="url(#3e8989aab9)"><g clip-path="url(#898498052e)"><path fill="#ffde59" d="M 292.140625 168.894531 L 275.640625 158.371094 C 256.464844 147.921875 231.78125 138.300781 204.214844 131.601562 C 135.871094 114.992188 75.8125 121.867188 69.777344 146.699219 C 63.742188 171.53125 114 204.980469 182.117188 221.535156 C 250.234375 238.089844 310.519531 231.265625 316.5 206.664062 C 319.210938 195.5 309.796875 181.628906 292.140625 168.894531 Z M 292.140625 168.894531 " fill-opacity="1" fill-rule="nonzero"/></g></g></g><g clip-path="url(#8b385723ac)"><g clip-path="url(#a402c70986)"><g clip-path="url(#a40dabd4d0)"><path stroke-linecap="round" transform="matrix(2.278141, 0.553672, -0.553672, 2.278141, 77.784323, 6.538278)" fill="none" stroke-linejoin="round" d="M 125.499992 58.500698 C 125.499424 73.300117 98.599123 85.199635 64.199418 85.199312 C 29.800106 85.200608 1.900933 73.200394 1.900038 58.500781 C 1.900212 43.699743 29.800285 31.800726 64.199597 31.79943 C 98.599302 31.799753 125.500167 43.69966 125.499992 58.500698 Z M 125.499992 58.500698 " stroke="#000000" stroke-width="2" stroke-opacity="1" stroke-miterlimit="10"/></g></g></g><g clip-path="url(#26ccb442ef)"><g clip-path="url(#a33633e8d4)"><g clip-path="url(#bf3398792e)"><path stroke-linecap="round" transform="matrix(2.278141, 0.553672, -0.553672, 2.278141, 77.784323, 6.538278)" fill="none" stroke-linejoin="round" d="M 104.699264 45.299989 C 113.399474 48.799335 118.600113 53.399547 118.600168 58.500664 C 118.600142 69.400802 94.199572 78.300835 64.199451 78.299489 C 34.100311 78.299917 9.799214 69.399834 9.79924 58.499697 C 9.799266 47.599559 34.199836 38.699526 64.199564 38.699253 C 76.399724 38.70054 87.600782 40.19978 96.699382 42.600938 " stroke="#000000" stroke-width="2" stroke-opacity="1" stroke-miterlimit="10"/></g></g></g><g clip-path="url(#6f7e40a94a)"><g clip-path="url(#19bb44f8c0)"><g clip-path="url(#f091ccefc4)"><path stroke-linecap="round" transform="matrix(2.278141, 0.553672, -0.553672, 2.278141, 77.784323, 6.538278)" fill="none" stroke-linejoin="round" d="M 2.500207 62.000297 L 2.50012 69.400816 C 2.499551 84.200236 29.599242 96.099831 64.000566 96.099761 C 98.400271 96.100084 125.500861 84.100448 125.499966 69.400835 L 125.499544 58.999774 " stroke="#000000" stroke-width="2" stroke-opacity="1" stroke-miterlimit="10"/></g></g></g><g clip-path="url(#21c5505fca)"><g clip-path="url(#123bfae5d7)"><g clip-path="url(#9896c136a7)"><path stroke-linecap="round" transform="matrix(2.278141, 0.553672, -0.553672, 2.278141, 77.784323, 6.538278)" fill="none" stroke-linejoin="round" d="M 63.499715 96.000294 L 63.500703 86.000123 " stroke="#000000" stroke-width="2" stroke-opacity="1" stroke-miterlimit="10"/></g></g></g><g clip-path="url(#dcfe1478f2)"><g clip-path="url(#718d48a730)"><g clip-path="url(#aed9dd01c9)"><path stroke-linecap="round" transform="matrix(2.278141, 0.553672, -0.553672, 2.278141, 77.784323, 6.538278)" fill="none" stroke-linejoin="round" d="M 57.500358 94.999527 L 57.499226 85.999521 " stroke="#000000" stroke-width="2" stroke-opacity="1" stroke-miterlimit="10"/></g></g></g><g clip-path="url(#b6bc67f094)"><g clip-path="url(#8dff46a705)"><g clip-path="url(#37a198b902)"><path stroke-linecap="round" transform="matrix(2.278141, 0.553672, -0.553672, 2.278141, 77.784323, 6.538278)" fill="none" stroke-linejoin="round" d="M 50.499503 95.000042 L 50.49999 85.999643 " stroke="#000000" stroke-width="2" stroke-opacity="1" stroke-miterlimit="10"/></g></g></g><g clip-path="url(#60d500b9c9)"><g clip-path="url(#51cac2893f)"><g clip-path="url(#3ee74feedf)"><path stroke-linecap="round" transform="matrix(2.278141, 0.553672, -0.553672, 2.278141, 77.784323, 6.538278)" fill="none" stroke-linejoin="round" d="M 43.500768 94.000392 L 43.499636 85.000386 " stroke="#000000" stroke-width="2" stroke-opacity="1" stroke-miterlimit="10"/></g></g></g><g clip-path="url(#4f8f4440d5)"><g clip-path="url(#2ef99b41da)"><g clip-path="url(#d8887509f6)"><path stroke-linecap="round" transform="matrix(2.278141, 0.553672, -0.553672, 2.278141, 77.784323, 6.538278)" fill="none" stroke-linejoin="round" d="M 36.50002 92.999517 L 36.500507 83.999117 " stroke="#000000" stroke-width="2" stroke-opacity="1" stroke-miterlimit="10"/></g></g></g><g clip-path="url(#63df0bcfd3)"><g clip-path="url(#c319aa5029)"><g clip-path="url(#f908836967)"><path stroke-linecap="round" transform="matrix(2.278141, 0.553672, -0.553672, 2.278141, 77.784323, 6.538278)" fill="none" stroke-linejoin="round" d="M 29.500167 91.000489 L 29.500654 82.000089 " stroke="#000000" stroke-width="2" stroke-opacity="1" stroke-miterlimit="10"/></g></g></g><g clip-path="url(#cd6558ec78)"><g clip-path="url(#43d58d11e6)"><g clip-path="url(#babc3f0d54)"><path stroke-linecap="round" transform="matrix(2.278141, 0.553672, -0.553672, 2.278141, 77.784323, 6.538278)" fill="none" stroke-linejoin="round" d="M 22.499921 88.999841 L 22.500408 79.999442 " stroke="#000000" stroke-width="2" stroke-opacity="1" stroke-miterlimit="10"/></g></g></g><g clip-path="url(#44bf3575f4)"><g clip-path="url(#027fb1d808)"><g clip-path="url(#b426240d57)"><path stroke-linecap="round" transform="matrix(2.278141, 0.553672, -0.553672, 2.278141, 77.784323, 6.538278)" fill="none" stroke-linejoin="round" d="M 15.500176 85.999422 L 15.499546 75.999643 " stroke="#000000" stroke-width="2" stroke-opacity="1" stroke-miterlimit="10"/></g></g></g><g clip-path="url(#650405e9fc)"><g clip-path="url(#99c53e60b2)"><g clip-path="url(#7ef1c8835d)"><path stroke-linecap="round" transform="matrix(2.278141, 0.553672, -0.553672, 2.278141, 77.784323, 6.538278)" fill="none" stroke-linejoin="round" d="M 8.499815 80.999851 L 8.500302 71.999452 " stroke="#000000" stroke-width="2" stroke-opacity="1" stroke-miterlimit="10"/></g></g></g><g clip-path="url(#ae50464f3c)"><g clip-path="url(#060db52061)"><g clip-path="url(#08adc29880)"><path stroke-linecap="round" transform="matrix(2.278141, 0.553672, -0.553672, 2.278141, 77.784323, 6.538278)" fill="none" stroke-linejoin="round" d="M 70.499452 95.0004 L 70.499939 86 " stroke="#000000" stroke-width="2" stroke-opacity="1" stroke-miterlimit="10"/></g></g></g><g clip-path="url(#3ae522f1f6)"><g clip-path="url(#e5d53ceb77)"><g clip-path="url(#cf4538d9e9)"><path stroke-linecap="round" transform="matrix(2.278141, 0.553672, -0.553672, 2.278141, 77.784323, 6.538278)" fill="none" stroke-linejoin="round" d="M 77.500308 94.999884 L 77.499176 85.999878 " stroke="#000000" stroke-width="2" stroke-opacity="1" stroke-miterlimit="10"/></g></g></g><g clip-path="url(#6b34f17d7d)"><g clip-path="url(#f2a7933cfa)"><g clip-path="url(#8c45ae3cf1)"><path stroke-linecap="round" transform="matrix(2.278141, 0.553672, -0.553672, 2.278141, 77.784323, 6.538278)" fill="none" stroke-linejoin="round" d="M 84.500045 93.99999 L 84.500532 84.999591 " stroke="#000000" stroke-width="2" stroke-opacity="1" stroke-miterlimit="10"/></g></g></g><g clip-path="url(#dac1635489)"><g clip-path="url(#ee5dfcc6cf)"><g clip-path="url(#74b1710133)"><path stroke-linecap="round" transform="matrix(2.278141, 0.553672, -0.553672, 2.278141, 77.784323, 6.538278)" fill="none" stroke-linejoin="round" d="M 91.499783 93.000096 L 91.500772 82.999924 " stroke="#000000" stroke-width="2" stroke-opacity="1" stroke-miterlimit="10"/></g></g></g><g clip-path="url(#bdf712d3be)"><g clip-path="url(#293c5a70ac)"><g clip-path="url(#e2815cbec1)"><path stroke-linecap="round" transform="matrix(2.278141, 0.553672, -0.553672, 2.278141, 77.784323, 6.538278)" fill="none" stroke-linejoin="round" d="M 98.500022 91.00043 L 98.500509 82.00003 " stroke="#000000" stroke-width="2" stroke-opacity="1" stroke-miterlimit="10"/></g></g></g><g clip-path="url(#b207e7273d)"><g clip-path="url(#81147382c8)"><g clip-path="url(#72c91529a2)"><path stroke-linecap="round" transform="matrix(2.278141, 0.553672, -0.553672, 2.278141, 77.784323, 6.538278)" fill="none" stroke-linejoin="round" d="M 105.500261 89.000763 L 105.499237 78.999366 " stroke="#000000" stroke-width="2" stroke-opacity="1" stroke-miterlimit="10"/></g></g></g><g clip-path="url(#a71cf01382)"><g clip-path="url(#309504801b)"><g clip-path="url(#8500c1ab16)"><path stroke-linecap="round" transform="matrix(2.278141, 0.553672, -0.553672, 2.278141, 77.784323, 6.538278)" fill="none" stroke-linejoin="round" d="M 112.499491 85.000327 L 112.499978 75.999928 " stroke="#000000" stroke-width="2" stroke-opacity="1" stroke-miterlimit="10"/></g></g></g><g clip-path="url(#d6abf5506a)"><g clip-path="url(#6d58e1eb45)"><g clip-path="url(#491b46c27a)"><path stroke-linecap="round" transform="matrix(2.278141, 0.553672, -0.553672, 2.278141, 77.784323, 6.538278)" fill="none" stroke-linejoin="round" d="M 119.500339 80.999498 L 119.499708 70.99972 " stroke="#000000" stroke-width="2" stroke-opacity="1" stroke-miterlimit="10"/></g></g></g></svg>