<svg xmlns="http://www.w3.org/2000/svg" xmlns:xlink="http://www.w3.org/1999/xlink" width="500" zoomAndPan="magnify" viewBox="0 0 375 374.999991" height="500" preserveAspectRatio="xMidYMid meet" version="1.0"><defs><clipPath id="ceb219690c"><path d="M 45 142 L 333 142 L 333 271 L 45 271 Z M 45 142 " clip-rule="nonzero"/></clipPath><clipPath id="24036293b2"><path d="M 61.652344 76.929688 L 350.25 147.070312 L 313.585938 297.925781 L 24.988281 227.789062 Z M 61.652344 76.929688 " clip-rule="nonzero"/></clipPath><clipPath id="5d21707e81"><path d="M 61.652344 76.929688 L 350.25 147.070312 L 313.585938 297.925781 L 24.988281 227.789062 Z M 61.652344 76.929688 " clip-rule="nonzero"/></clipPath><clipPath id="1bb8dab525"><path d="M 50 106 L 333 106 L 333 247 L 50 247 Z M 50 106 " clip-rule="nonzero"/></clipPath><clipPath id="40b8c7c17a"><path d="M 61.652344 76.929688 L 350.25 147.070312 L 313.585938 297.925781 L 24.988281 227.789062 Z M 61.652344 76.929688 " clip-rule="nonzero"/></clipPath><clipPath id="af0d14a1f4"><path d="M 61.652344 76.929688 L 350.25 147.070312 L 313.585938 297.925781 L 24.988281 227.789062 Z M 61.652344 76.929688 " clip-rule="nonzero"/></clipPath><clipPath id="0c3a0dd7c6"><path d="M 69 122 L 317 122 L 317 231 L 69 231 Z M 69 122 " clip-rule="nonzero"/></clipPath><clipPath id="f1f3162dff"><path d="M 61.652344 76.929688 L 350.25 147.070312 L 313.585938 297.925781 L 24.988281 227.789062 Z M 61.652344 76.929688 " clip-rule="nonzero"/></clipPath><clipPath id="f3f1ada823"><path d="M 61.652344 76.929688 L 350.25 147.070312 L 313.585938 297.925781 L 24.988281 227.789062 Z M 61.652344 76.929688 " clip-rule="nonzero"/></clipPath><clipPath id="bb78d3bb40"><path d="M 46 103 L 335 103 L 335 248 L 46 248 Z M 46 103 " clip-rule="nonzero"/></clipPath><clipPath id="0cd972d2b3"><path d="M 61.652344 76.929688 L 350.25 147.070312 L 313.585938 297.925781 L 24.988281 227.789062 Z M 61.652344 76.929688 " clip-rule="nonzero"/></clipPath><clipPath id="e5a5f0e11e"><path d="M 61.652344 76.929688 L 350.25 147.070312 L 313.585938 297.925781 L 24.988281 227.789062 Z M 61.652344 76.929688 " clip-rule="nonzero"/></clipPath><clipPath id="fa2edeec4e"><path d="M 64 118 L 319 118 L 319 232 L 64 232 Z M 64 118 " clip-rule="nonzero"/></clipPath><clipPath id="cc0bb5420a"><path d="M 61.652344 76.929688 L 350.25 147.070312 L 313.585938 297.925781 L 24.988281 227.789062 Z M 61.652344 76.929688 " clip-rule="nonzero"/></clipPath><clipPath id="a4dc866a37"><path d="M 61.652344 76.929688 L 350.25 147.070312 L 313.585938 297.925781 L 24.988281 227.789062 Z M 61.652344 76.929688 " clip-rule="nonzero"/></clipPath><clipPath id="eb822c622a"><path d="M 41 146 L 334 146 L 334 273 L 41 273 Z M 41 146 " clip-rule="nonzero"/></clipPath><clipPath id="e484cbab26"><path d="M 61.652344 76.929688 L 350.25 147.070312 L 313.585938 297.925781 L 24.988281 227.789062 Z M 61.652344 76.929688 " clip-rule="nonzero"/></clipPath><clipPath id="cac57e3de0"><path d="M 61.652344 76.929688 L 350.25 147.070312 L 313.585938 297.925781 L 24.988281 227.789062 Z M 61.652344 76.929688 " clip-rule="nonzero"/></clipPath><clipPath id="9a8398f95e"><path d="M 166 235 L 178 235 L 178 263 L 166 263 Z M 166 235 " clip-rule="nonzero"/></clipPath><clipPath id="cf2089a730"><path d="M 61.652344 76.929688 L 350.25 147.070312 L 313.585938 297.925781 L 24.988281 227.789062 Z M 61.652344 76.929688 " clip-rule="nonzero"/></clipPath><clipPath id="18a015d6db"><path d="M 61.652344 76.929688 L 350.25 147.070312 L 313.585938 297.925781 L 24.988281 227.789062 Z M 61.652344 76.929688 " clip-rule="nonzero"/></clipPath><clipPath id="731e81a4d0"><path d="M 153 231 L 164 231 L 164 258 L 153 258 Z M 153 231 " clip-rule="nonzero"/></clipPath><clipPath id="1043b36bb9"><path d="M 61.652344 76.929688 L 350.25 147.070312 L 313.585938 297.925781 L 24.988281 227.789062 Z M 61.652344 76.929688 " clip-rule="nonzero"/></clipPath><clipPath id="3d515ff5fa"><path d="M 61.652344 76.929688 L 350.25 147.070312 L 313.585938 297.925781 L 24.988281 227.789062 Z M 61.652344 76.929688 " clip-rule="nonzero"/></clipPath><clipPath id="1b2030f8e9"><path d="M 137 228 L 148 228 L 148 254 L 137 254 Z M 137 228 " clip-rule="nonzero"/></clipPath><clipPath id="c97134b2be"><path d="M 61.652344 76.929688 L 350.25 147.070312 L 313.585938 297.925781 L 24.988281 227.789062 Z M 61.652344 76.929688 " clip-rule="nonzero"/></clipPath><clipPath id="231fd46f8c"><path d="M 61.652344 76.929688 L 350.25 147.070312 L 313.585938 297.925781 L 24.988281 227.789062 Z M 61.652344 76.929688 " clip-rule="nonzero"/></clipPath><clipPath id="afecbfa49f"><path d="M 122 221 L 133 221 L 133 248 L 122 248 Z M 122 221 " clip-rule="nonzero"/></clipPath><clipPath id="b037ce9f01"><path d="M 61.652344 76.929688 L 350.25 147.070312 L 313.585938 297.925781 L 24.988281 227.789062 Z M 61.652344 76.929688 " clip-rule="nonzero"/></clipPath><clipPath id="9c93c24187"><path d="M 61.652344 76.929688 L 350.25 147.070312 L 313.585938 297.925781 L 24.988281 227.789062 Z M 61.652344 76.929688 " clip-rule="nonzero"/></clipPath><clipPath id="fae80a7ea0"><path d="M 107 215 L 117 215 L 117 241 L 107 241 Z M 107 215 " clip-rule="nonzero"/></clipPath><clipPath id="4ff17ec13d"><path d="M 61.652344 76.929688 L 350.25 147.070312 L 313.585938 297.925781 L 24.988281 227.789062 Z M 61.652344 76.929688 " clip-rule="nonzero"/></clipPath><clipPath id="f47f6b3117"><path d="M 61.652344 76.929688 L 350.25 147.070312 L 313.585938 297.925781 L 24.988281 227.789062 Z M 61.652344 76.929688 " clip-rule="nonzero"/></clipPath><clipPath id="c4a679f555"><path d="M 92 207 L 102 207 L 102 233 L 92 233 Z M 92 207 " clip-rule="nonzero"/></clipPath><clipPath id="04b1ca6838"><path d="M 61.652344 76.929688 L 350.25 147.070312 L 313.585938 297.925781 L 24.988281 227.789062 Z M 61.652344 76.929688 " clip-rule="nonzero"/></clipPath><clipPath id="2cc4b42a90"><path d="M 61.652344 76.929688 L 350.25 147.070312 L 313.585938 297.925781 L 24.988281 227.789062 Z M 61.652344 76.929688 " clip-rule="nonzero"/></clipPath><clipPath id="5087cd4f61"><path d="M 77 198 L 88 198 L 88 225 L 77 225 Z M 77 198 " clip-rule="nonzero"/></clipPath><clipPath id="c219a8950e"><path d="M 61.652344 76.929688 L 350.25 147.070312 L 313.585938 297.925781 L 24.988281 227.789062 Z M 61.652344 76.929688 " clip-rule="nonzero"/></clipPath><clipPath id="6d841e1fa4"><path d="M 61.652344 76.929688 L 350.25 147.070312 L 313.585938 297.925781 L 24.988281 227.789062 Z M 61.652344 76.929688 " clip-rule="nonzero"/></clipPath><clipPath id="9888dfde7c"><path d="M 63 185 L 74 185 L 74 214 L 63 214 Z M 63 185 " clip-rule="nonzero"/></clipPath><clipPath id="fa7b70bb8f"><path d="M 61.652344 76.929688 L 350.25 147.070312 L 313.585938 297.925781 L 24.988281 227.789062 Z M 61.652344 76.929688 " clip-rule="nonzero"/></clipPath><clipPath id="833a9281b6"><path d="M 61.652344 76.929688 L 350.25 147.070312 L 313.585938 297.925781 L 24.988281 227.789062 Z M 61.652344 76.929688 " clip-rule="nonzero"/></clipPath><clipPath id="289e49ec32"><path d="M 49 172 L 60 172 L 60 199 L 49 199 Z M 49 172 " clip-rule="nonzero"/></clipPath><clipPath id="3648842985"><path d="M 61.652344 76.929688 L 350.25 147.070312 L 313.585938 297.925781 L 24.988281 227.789062 Z M 61.652344 76.929688 " clip-rule="nonzero"/></clipPath><clipPath id="cb2e3c93cc"><path d="M 61.652344 76.929688 L 350.25 147.070312 L 313.585938 297.925781 L 24.988281 227.789062 Z M 61.652344 76.929688 " clip-rule="nonzero"/></clipPath><clipPath id="e8767393ff"><path d="M 183 239 L 194 239 L 194 265 L 183 265 Z M 183 239 " clip-rule="nonzero"/></clipPath><clipPath id="d8157852db"><path d="M 61.652344 76.929688 L 350.25 147.070312 L 313.585938 297.925781 L 24.988281 227.789062 Z M 61.652344 76.929688 " clip-rule="nonzero"/></clipPath><clipPath id="86e2ad0475"><path d="M 61.652344 76.929688 L 350.25 147.070312 L 313.585938 297.925781 L 24.988281 227.789062 Z M 61.652344 76.929688 " clip-rule="nonzero"/></clipPath><clipPath id="d2f19208a6"><path d="M 199 243 L 210 243 L 210 269 L 199 269 Z M 199 243 " clip-rule="nonzero"/></clipPath><clipPath id="953cf770c5"><path d="M 61.652344 76.929688 L 350.25 147.070312 L 313.585938 297.925781 L 24.988281 227.789062 Z M 61.652344 76.929688 " clip-rule="nonzero"/></clipPath><clipPath id="b7a43a8914"><path d="M 61.652344 76.929688 L 350.25 147.070312 L 313.585938 297.925781 L 24.988281 227.789062 Z M 61.652344 76.929688 " clip-rule="nonzero"/></clipPath><clipPath id="6cabf34424"><path d="M 215 244 L 226 244 L 226 270 L 215 270 Z M 215 244 " clip-rule="nonzero"/></clipPath><clipPath id="900ddeae85"><path d="M 61.652344 76.929688 L 350.25 147.070312 L 313.585938 297.925781 L 24.988281 227.789062 Z M 61.652344 76.929688 " clip-rule="nonzero"/></clipPath><clipPath id="5acf92ff58"><path d="M 61.652344 76.929688 L 350.25 147.070312 L 313.585938 297.925781 L 24.988281 227.789062 Z M 61.652344 76.929688 " clip-rule="nonzero"/></clipPath><clipPath id="294f117e51"><path d="M 232 243 L 243 243 L 243 272 L 232 272 Z M 232 243 " clip-rule="nonzero"/></clipPath><clipPath id="909d6d3d9f"><path d="M 61.652344 76.929688 L 350.25 147.070312 L 313.585938 297.925781 L 24.988281 227.789062 Z M 61.652344 76.929688 " clip-rule="nonzero"/></clipPath><clipPath id="f88ac2367c"><path d="M 61.652344 76.929688 L 350.25 147.070312 L 313.585938 297.925781 L 24.988281 227.789062 Z M 61.652344 76.929688 " clip-rule="nonzero"/></clipPath><clipPath id="056928a473"><path d="M 249 245 L 260 245 L 260 271 L 249 271 Z M 249 245 " clip-rule="nonzero"/></clipPath><clipPath id="eb1501d345"><path d="M 61.652344 76.929688 L 350.25 147.070312 L 313.585938 297.925781 L 24.988281 227.789062 Z M 61.652344 76.929688 " clip-rule="nonzero"/></clipPath><clipPath id="11eee8ece1"><path d="M 61.652344 76.929688 L 350.25 147.070312 L 313.585938 297.925781 L 24.988281 227.789062 Z M 61.652344 76.929688 " clip-rule="nonzero"/></clipPath><clipPath id="1118965044"><path d="M 266 242 L 277 242 L 277 271 L 266 271 Z M 266 242 " clip-rule="nonzero"/></clipPath><clipPath id="6673d04085"><path d="M 61.652344 76.929688 L 350.25 147.070312 L 313.585938 297.925781 L 24.988281 227.789062 Z M 61.652344 76.929688 " clip-rule="nonzero"/></clipPath><clipPath id="ab55eb4c61"><path d="M 61.652344 76.929688 L 350.25 147.070312 L 313.585938 297.925781 L 24.988281 227.789062 Z M 61.652344 76.929688 " clip-rule="nonzero"/></clipPath><clipPath id="15e0f35221"><path d="M 284 239 L 295 239 L 295 265 L 284 265 Z M 284 239 " clip-rule="nonzero"/></clipPath><clipPath id="7e8513abaf"><path d="M 61.652344 76.929688 L 350.25 147.070312 L 313.585938 297.925781 L 24.988281 227.789062 Z M 61.652344 76.929688 " clip-rule="nonzero"/></clipPath><clipPath id="32cfd78c2e"><path d="M 61.652344 76.929688 L 350.25 147.070312 L 313.585938 297.925781 L 24.988281 227.789062 Z M 61.652344 76.929688 " clip-rule="nonzero"/></clipPath><clipPath id="81c8fc0a0f"><path d="M 302 232 L 314 232 L 314 260 L 302 260 Z M 302 232 " clip-rule="nonzero"/></clipPath><clipPath id="565c4d83a0"><path d="M 61.652344 76.929688 L 350.25 147.070312 L 313.585938 297.925781 L 24.988281 227.789062 Z M 61.652344 76.929688 " clip-rule="nonzero"/></clipPath><clipPath id="6e5da315a7"><path d="M 61.652344 76.929688 L 350.25 147.070312 L 313.585938 297.925781 L 24.988281 227.789062 Z M 61.652344 76.929688 " clip-rule="nonzero"/></clipPath></defs><g clip-path="url(#ceb219690c)"><g clip-path="url(#24036293b2)"><g clip-path="url(#5d21707e81)"><path fill="#ffde59" d="M 178.578125 237.082031 C 99.984375 217.976562 43.925781 175.644531 52.0625 142.152344 L 46.027344 166.984375 C 42.539062 181.339844 50.71875 197.320312 68.449219 212.726562 C 76.167969 219.671875 84.285156 225.984375 96.894531 232.667969 C 105.117188 237.5625 115.953125 242.609375 126.671875 247.144531 C 135.171875 250.898438 146.339844 254.578125 157.335938 257.972656 C 161.835938 259.308594 166.109375 260.589844 172.945312 262.25 C 177.5 263.359375 181.886719 264.183594 188.773438 265.613281 C 197.769531 267.320312 209.4375 268.949219 220.988281 270.066406 C 232.539062 271.183594 242.261719 270.894531 254.089844 270.871094 C 266.082031 270.167969 278.011719 268.726562 288.058594 266.101562 C 308.605469 259.996094 322.46875 249.613281 326.011719 235.03125 L 332.046875 210.199219 C 324.136719 243.746094 254.898438 255.628906 178.578125 237.082031 Z M 178.578125 237.082031 " fill-opacity="1" fill-rule="nonzero"/></g></g></g><g clip-path="url(#1bb8dab525)"><g clip-path="url(#40b8c7c17a)"><g clip-path="url(#af0d14a1f4)"><path fill="#FFD700" d="M 207.753906 116.054688 C 129.839844 97.121094 59.972656 108.609375 51.78125 142.328125 C 43.585938 176.042969 100.382812 218.316406 178.296875 237.253906 C 256.210938 256.1875 323.796875 244.144531 331.992188 210.429688 C 340.183594 176.710938 285.890625 135.046875 207.753906 116.054688 Z M 182.117188 221.535156 C 114 204.980469 63.570312 171.25 69.550781 146.644531 C 75.527344 122.042969 135.871094 114.992188 203.988281 131.546875 C 231.550781 138.246094 256.292969 147.636719 275.410156 158.316406 L 291.914062 168.839844 C 309.566406 181.574219 318.984375 195.445312 316.273438 206.609375 C 310.519531 231.265625 250.234375 238.089844 182.117188 221.535156 Z M 182.117188 221.535156 " fill-opacity="1" fill-rule="nonzero"/></g></g></g><g clip-path="url(#0c3a0dd7c6)"><g clip-path="url(#f1f3162dff)"><g clip-path="url(#f3f1ada823)"><path fill="#ffde59" d="M 292.140625 168.894531 L 275.640625 158.371094 C 256.464844 147.921875 231.78125 138.300781 204.214844 131.601562 C 135.871094 114.992188 75.8125 121.867188 69.777344 146.699219 C 63.742188 171.53125 114 204.980469 182.117188 221.535156 C 250.234375 238.089844 310.519531 231.265625 316.5 206.664062 C 319.210938 195.5 309.796875 181.628906 292.140625 168.894531 Z M 292.140625 168.894531 " fill-opacity="1" fill-rule="nonzero"/></g></g></g><g clip-path="url(#bb78d3bb40)"><g clip-path="url(#0cd972d2b3)"><g clip-path="url(#e5a5f0e11e)"><path stroke-linecap="round" transform="matrix(2.278141, 0.553672, -0.553672, 2.278141, 77.784323, 6.538315)" fill="none" stroke-linejoin="round" d="M 125.499988 58.500683 C 125.49942 73.300102 98.599119 85.19962 64.199414 85.199297 C 29.800102 85.200593 1.900929 73.200379 1.900034 58.500766 C 1.900209 43.699727 29.800282 31.800711 64.199593 31.799414 C 98.599298 31.799737 125.500163 43.699644 125.499988 58.500683 Z M 125.499988 58.500683 " stroke="#000000" stroke-width="2" stroke-opacity="1" stroke-miterlimit="10"/></g></g></g><g clip-path="url(#fa2edeec4e)"><g clip-path="url(#cc0bb5420a)"><g clip-path="url(#a4dc866a37)"><path stroke-linecap="round" transform="matrix(2.278141, 0.553672, -0.553672, 2.278141, 77.784323, 6.538315)" fill="none" stroke-linejoin="round" d="M 104.699261 45.299974 C 113.39947 48.79932 118.60011 53.399532 118.600165 58.500649 C 118.600138 69.400787 94.199569 78.30082 64.199447 78.299474 C 34.100307 78.299902 9.79921 69.399819 9.799236 58.499681 C 9.799262 47.599544 34.199832 38.699511 64.199953 38.700857 C 76.39972 38.700524 87.600779 40.199764 96.699379 42.600923 " stroke="#000000" stroke-width="2" stroke-opacity="1" stroke-miterlimit="10"/></g></g></g><g clip-path="url(#eb822c622a)"><g clip-path="url(#e484cbab26)"><g clip-path="url(#cac57e3de0)"><path stroke-linecap="round" transform="matrix(2.278141, 0.553672, -0.553672, 2.278141, 77.784323, 6.538315)" fill="none" stroke-linejoin="round" d="M 2.500203 62.000282 L 2.500116 69.400801 C 2.499548 84.20022 29.599238 96.099816 64.000562 96.099746 C 98.400267 96.100069 125.500857 84.100433 125.499962 69.40082 L 125.499541 58.999759 " stroke="#000000" stroke-width="2" stroke-opacity="1" stroke-miterlimit="10"/></g></g></g><g clip-path="url(#9a8398f95e)"><g clip-path="url(#cf2089a730)"><g clip-path="url(#18a015d6db)"><path stroke-linecap="round" transform="matrix(2.278141, 0.553672, -0.553672, 2.278141, 77.784323, 6.538315)" fill="none" stroke-linejoin="round" d="M 63.499711 96.000279 L 63.500699 86.000107 " stroke="#000000" stroke-width="2" stroke-opacity="1" stroke-miterlimit="10"/></g></g></g><g clip-path="url(#731e81a4d0)"><g clip-path="url(#1043b36bb9)"><g clip-path="url(#3d515ff5fa)"><path stroke-linecap="round" transform="matrix(2.278141, 0.553672, -0.553672, 2.278141, 77.784323, 6.538315)" fill="none" stroke-linejoin="round" d="M 57.500354 94.999511 L 57.499222 85.999505 " stroke="#000000" stroke-width="2" stroke-opacity="1" stroke-miterlimit="10"/></g></g></g><g clip-path="url(#1b2030f8e9)"><g clip-path="url(#c97134b2be)"><g clip-path="url(#231fd46f8c)"><path stroke-linecap="round" transform="matrix(2.278141, 0.553672, -0.553672, 2.278141, 77.784323, 6.538315)" fill="none" stroke-linejoin="round" d="M 50.499499 95.000027 L 50.499986 85.999628 " stroke="#000000" stroke-width="2" stroke-opacity="1" stroke-miterlimit="10"/></g></g></g><g clip-path="url(#afecbfa49f)"><g clip-path="url(#b037ce9f01)"><g clip-path="url(#9c93c24187)"><path stroke-linecap="round" transform="matrix(2.278141, 0.553672, -0.553672, 2.278141, 77.784323, 6.538315)" fill="none" stroke-linejoin="round" d="M 43.500764 94.000377 L 43.499632 85.000371 " stroke="#000000" stroke-width="2" stroke-opacity="1" stroke-miterlimit="10"/></g></g></g><g clip-path="url(#fae80a7ea0)"><g clip-path="url(#4ff17ec13d)"><g clip-path="url(#f47f6b3117)"><path stroke-linecap="round" transform="matrix(2.278141, 0.553672, -0.553672, 2.278141, 77.784323, 6.538315)" fill="none" stroke-linejoin="round" d="M 36.500016 92.999502 L 36.500503 83.999102 " stroke="#000000" stroke-width="2" stroke-opacity="1" stroke-miterlimit="10"/></g></g></g><g clip-path="url(#c4a679f555)"><g clip-path="url(#04b1ca6838)"><g clip-path="url(#2cc4b42a90)"><path stroke-linecap="round" transform="matrix(2.278141, 0.553672, -0.553672, 2.278141, 77.784323, 6.538315)" fill="none" stroke-linejoin="round" d="M 29.500164 91.000473 L 29.500651 82.000074 " stroke="#000000" stroke-width="2" stroke-opacity="1" stroke-miterlimit="10"/></g></g></g><g clip-path="url(#5087cd4f61)"><g clip-path="url(#c219a8950e)"><g clip-path="url(#6d841e1fa4)"><path stroke-linecap="round" transform="matrix(2.278141, 0.553672, -0.553672, 2.278141, 77.784323, 6.538315)" fill="none" stroke-linejoin="round" d="M 22.499917 88.999826 L 22.500405 79.999426 " stroke="#000000" stroke-width="2" stroke-opacity="1" stroke-miterlimit="10"/></g></g></g><g clip-path="url(#9888dfde7c)"><g clip-path="url(#fa7b70bb8f)"><g clip-path="url(#833a9281b6)"><path stroke-linecap="round" transform="matrix(2.278141, 0.553672, -0.553672, 2.278141, 77.784323, 6.538315)" fill="none" stroke-linejoin="round" d="M 15.500173 85.999406 L 15.499542 75.999628 " stroke="#000000" stroke-width="2" stroke-opacity="1" stroke-miterlimit="10"/></g></g></g><g clip-path="url(#289e49ec32)"><g clip-path="url(#3648842985)"><g clip-path="url(#cb2e3c93cc)"><path stroke-linecap="round" transform="matrix(2.278141, 0.553672, -0.553672, 2.278141, 77.784323, 6.538315)" fill="none" stroke-linejoin="round" d="M 8.499811 80.999836 L 8.500298 71.999437 " stroke="#000000" stroke-width="2" stroke-opacity="1" stroke-miterlimit="10"/></g></g></g><g clip-path="url(#e8767393ff)"><g clip-path="url(#d8157852db)"><g clip-path="url(#86e2ad0475)"><path stroke-linecap="round" transform="matrix(2.278141, 0.553672, -0.553672, 2.278141, 77.784323, 6.538315)" fill="none" stroke-linejoin="round" d="M 70.499449 95.000385 L 70.499936 85.999985 " stroke="#000000" stroke-width="2" stroke-opacity="1" stroke-miterlimit="10"/></g></g></g><g clip-path="url(#d2f19208a6)"><g clip-path="url(#953cf770c5)"><g clip-path="url(#b7a43a8914)"><path stroke-linecap="round" transform="matrix(2.278141, 0.553672, -0.553672, 2.278141, 77.784323, 6.538315)" fill="none" stroke-linejoin="round" d="M 77.500304 94.999869 L 77.499172 85.999863 " stroke="#000000" stroke-width="2" stroke-opacity="1" stroke-miterlimit="10"/></g></g></g><g clip-path="url(#6cabf34424)"><g clip-path="url(#900ddeae85)"><g clip-path="url(#5acf92ff58)"><path stroke-linecap="round" transform="matrix(2.278141, 0.553672, -0.553672, 2.278141, 77.784323, 6.538315)" fill="none" stroke-linejoin="round" d="M 84.500042 93.999975 L 84.500529 84.999575 " stroke="#000000" stroke-width="2" stroke-opacity="1" stroke-miterlimit="10"/></g></g></g><g clip-path="url(#294f117e51)"><g clip-path="url(#909d6d3d9f)"><g clip-path="url(#f88ac2367c)"><path stroke-linecap="round" transform="matrix(2.278141, 0.553672, -0.553672, 2.278141, 77.784323, 6.538315)" fill="none" stroke-linejoin="round" d="M 91.499779 93.000081 L 91.500768 82.999909 " stroke="#000000" stroke-width="2" stroke-opacity="1" stroke-miterlimit="10"/></g></g></g><g clip-path="url(#056928a473)"><g clip-path="url(#eb1501d345)"><g clip-path="url(#11eee8ece1)"><path stroke-linecap="round" transform="matrix(2.278141, 0.553672, -0.553672, 2.278141, 77.784323, 6.538315)" fill="none" stroke-linejoin="round" d="M 98.500019 91.000414 L 98.500506 82.000015 " stroke="#000000" stroke-width="2" stroke-opacity="1" stroke-miterlimit="10"/></g></g></g><g clip-path="url(#1118965044)"><g clip-path="url(#6673d04085)"><g clip-path="url(#ab55eb4c61)"><path stroke-linecap="round" transform="matrix(2.278141, 0.553672, -0.553672, 2.278141, 77.784323, 6.538315)" fill="none" stroke-linejoin="round" d="M 105.500258 89.000748 L 105.499233 78.999351 " stroke="#000000" stroke-width="2" stroke-opacity="1" stroke-miterlimit="10"/></g></g></g><g clip-path="url(#15e0f35221)"><g clip-path="url(#7e8513abaf)"><g clip-path="url(#32cfd78c2e)"><path stroke-linecap="round" transform="matrix(2.278141, 0.553672, -0.553672, 2.278141, 77.784323, 6.538315)" fill="none" stroke-linejoin="round" d="M 112.499487 85.000312 L 112.499974 75.999913 " stroke="#000000" stroke-width="2" stroke-opacity="1" stroke-miterlimit="10"/></g></g></g><g clip-path="url(#81c8fc0a0f)"><g clip-path="url(#565c4d83a0)"><g clip-path="url(#6e5da315a7)"><path stroke-linecap="round" transform="matrix(2.278141, 0.553672, -0.553672, 2.278141, 77.784323, 6.538315)" fill="none" stroke-linejoin="round" d="M 119.500335 80.999483 L 119.499704 70.999705 " stroke="#000000" stroke-width="2" stroke-opacity="1" stroke-miterlimit="10"/></g></g></g></svg>