<svg xmlns="http://www.w3.org/2000/svg" xmlns:xlink="http://www.w3.org/1999/xlink" width="500" zoomAndPan="magnify" viewBox="0 0 375 374.999991" height="500" preserveAspectRatio="xMidYMid meet" version="1.0"><defs><clipPath id="7fbbaed94b"><path d="M 35 58 L 340 58 L 340 287 L 35 287 Z M 35 58 " clip-rule="nonzero"/></clipPath><clipPath id="d8b9de2cc4"><path d="M 67.59375 53.441406 L 345.089844 111.488281 L 307.46875 291.34375 L 29.972656 233.300781 Z M 67.59375 53.441406 " clip-rule="nonzero"/></clipPath><clipPath id="e9f9a192e7"><path d="M 67.59375 53.441406 L 345.089844 111.488281 L 307.46875 291.34375 L 29.972656 233.300781 Z M 67.59375 53.441406 " clip-rule="nonzero"/></clipPath><clipPath id="e7f499e24b"><path d="M 67.59375 53.441406 L 345.089844 111.488281 L 307.46875 291.34375 L 29.972656 233.300781 Z M 67.59375 53.441406 " clip-rule="nonzero"/></clipPath><clipPath id="706a2350da"><path d="M 98 107 L 124 107 L 124 132 L 98 132 Z M 98 107 " clip-rule="nonzero"/></clipPath><clipPath id="0822b32c6b"><path d="M 67.59375 53.441406 L 345.089844 111.488281 L 307.46875 291.34375 L 29.972656 233.300781 Z M 67.59375 53.441406 " clip-rule="nonzero"/></clipPath><clipPath id="19af9a96fa"><path d="M 67.59375 53.441406 L 345.089844 111.488281 L 307.46875 291.34375 L 29.972656 233.300781 Z M 67.59375 53.441406 " clip-rule="nonzero"/></clipPath><clipPath id="d9ed4a06a6"><path d="M 67.59375 53.441406 L 345.089844 111.488281 L 307.46875 291.34375 L 29.972656 233.300781 Z M 67.59375 53.441406 " clip-rule="nonzero"/></clipPath><clipPath id="8434df087c"><path d="M 78 83 L 127 83 L 127 129 L 78 129 Z M 78 83 " clip-rule="nonzero"/></clipPath><clipPath id="02a93b2a04"><path d="M 67.59375 53.441406 L 345.089844 111.488281 L 307.46875 291.34375 L 29.972656 233.300781 Z M 67.59375 53.441406 " clip-rule="nonzero"/></clipPath><clipPath id="5a67188bea"><path d="M 67.59375 53.441406 L 345.089844 111.488281 L 307.46875 291.34375 L 29.972656 233.300781 Z M 67.59375 53.441406 " clip-rule="nonzero"/></clipPath><clipPath id="10987913f6"><path d="M 67.59375 53.441406 L 345.089844 111.488281 L 307.46875 291.34375 L 29.972656 233.300781 Z M 67.59375 53.441406 " clip-rule="nonzero"/></clipPath><clipPath id="4ac6f577de"><path d="M 78 83 L 108 83 L 108 129 L 78 129 Z M 78 83 " clip-rule="nonzero"/></clipPath><clipPath id="dc4052f71a"><path d="M 67.59375 53.441406 L 345.089844 111.488281 L 307.46875 291.34375 L 29.972656 233.300781 Z M 67.59375 53.441406 " clip-rule="nonzero"/></clipPath><clipPath id="d5b7812ad8"><path d="M 67.59375 53.441406 L 345.089844 111.488281 L 307.46875 291.34375 L 29.972656 233.300781 Z M 67.59375 53.441406 " clip-rule="nonzero"/></clipPath><clipPath id="b9597a46c3"><path d="M 67.59375 53.441406 L 345.089844 111.488281 L 307.46875 291.34375 L 29.972656 233.300781 Z M 67.59375 53.441406 " clip-rule="nonzero"/></clipPath><clipPath id="722f6a4c56"><path d="M 236 233 L 293 233 L 293 264 L 236 264 Z M 236 233 " clip-rule="nonzero"/></clipPath><clipPath id="f7500d3a50"><path d="M 67.59375 53.441406 L 345.089844 111.488281 L 307.46875 291.34375 L 29.972656 233.300781 Z M 67.59375 53.441406 " clip-rule="nonzero"/></clipPath><clipPath id="10f5dfefab"><path d="M 67.59375 53.441406 L 345.089844 111.488281 L 307.46875 291.34375 L 29.972656 233.300781 Z M 67.59375 53.441406 " clip-rule="nonzero"/></clipPath><clipPath id="e9e1616760"><path d="M 67.59375 53.441406 L 345.089844 111.488281 L 307.46875 291.34375 L 29.972656 233.300781 Z M 67.59375 53.441406 " clip-rule="nonzero"/></clipPath><clipPath id="55db7ed01f"><path d="M 32 56 L 343 56 L 343 289 L 32 289 Z M 32 56 " clip-rule="nonzero"/></clipPath><clipPath id="3325116e41"><path d="M 67.59375 53.441406 L 345.089844 111.488281 L 307.46875 291.34375 L 29.972656 233.300781 Z M 67.59375 53.441406 " clip-rule="nonzero"/></clipPath><clipPath id="1cb9a11f98"><path d="M 67.59375 53.441406 L 345.089844 111.488281 L 307.46875 291.34375 L 29.972656 233.300781 Z M 67.59375 53.441406 " clip-rule="nonzero"/></clipPath><clipPath id="530fe17fa0"><path d="M 67.59375 53.441406 L 345.089844 111.488281 L 307.46875 291.34375 L 29.972656 233.300781 Z M 67.59375 53.441406 " clip-rule="nonzero"/></clipPath><clipPath id="50ed788b45"><path d="M 176 77 L 238 77 L 238 94 L 176 94 Z M 176 77 " clip-rule="nonzero"/></clipPath><clipPath id="1dbcea852d"><path d="M 67.59375 53.441406 L 345.089844 111.488281 L 307.46875 291.34375 L 29.972656 233.300781 Z M 67.59375 53.441406 " clip-rule="nonzero"/></clipPath><clipPath id="0a810d88a0"><path d="M 67.59375 53.441406 L 345.089844 111.488281 L 307.46875 291.34375 L 29.972656 233.300781 Z M 67.59375 53.441406 " clip-rule="nonzero"/></clipPath><clipPath id="863bbdfbcf"><path d="M 67.59375 53.441406 L 345.089844 111.488281 L 307.46875 291.34375 L 29.972656 233.300781 Z M 67.59375 53.441406 " clip-rule="nonzero"/></clipPath><clipPath id="5b854cb347"><path d="M 143 69 L 161 69 L 161 78 L 143 78 Z M 143 69 " clip-rule="nonzero"/></clipPath><clipPath id="70c4043d7e"><path d="M 67.59375 53.441406 L 345.089844 111.488281 L 307.46875 291.34375 L 29.972656 233.300781 Z M 67.59375 53.441406 " clip-rule="nonzero"/></clipPath><clipPath id="f4dd645036"><path d="M 67.59375 53.441406 L 345.089844 111.488281 L 307.46875 291.34375 L 29.972656 233.300781 Z M 67.59375 53.441406 " clip-rule="nonzero"/></clipPath><clipPath id="ad90a0ca2c"><path d="M 67.59375 53.441406 L 345.089844 111.488281 L 307.46875 291.34375 L 29.972656 233.300781 Z M 67.59375 53.441406 " clip-rule="nonzero"/></clipPath><clipPath id="89a55270bf"><path d="M 76 80 L 130 80 L 130 134 L 76 134 Z M 76 80 " clip-rule="nonzero"/></clipPath><clipPath id="3ad003140b"><path d="M 67.59375 53.441406 L 345.089844 111.488281 L 307.46875 291.34375 L 29.972656 233.300781 Z M 67.59375 53.441406 " clip-rule="nonzero"/></clipPath><clipPath id="4eae0aba5a"><path d="M 67.59375 53.441406 L 345.089844 111.488281 L 307.46875 291.34375 L 29.972656 233.300781 Z M 67.59375 53.441406 " clip-rule="nonzero"/></clipPath><clipPath id="ed6408191e"><path d="M 67.59375 53.441406 L 345.089844 111.488281 L 307.46875 291.34375 L 29.972656 233.300781 Z M 67.59375 53.441406 " clip-rule="nonzero"/></clipPath><clipPath id="3748473b06"><path d="M 71 149 L 80 149 L 80 168 L 71 168 Z M 71 149 " clip-rule="nonzero"/></clipPath><clipPath id="9fa41768bf"><path d="M 67.59375 53.441406 L 345.089844 111.488281 L 307.46875 291.34375 L 29.972656 233.300781 Z M 67.59375 53.441406 " clip-rule="nonzero"/></clipPath><clipPath id="3ada2cb6df"><path d="M 67.59375 53.441406 L 345.089844 111.488281 L 307.46875 291.34375 L 29.972656 233.300781 Z M 67.59375 53.441406 " clip-rule="nonzero"/></clipPath><clipPath id="8ff615c0bf"><path d="M 67.59375 53.441406 L 345.089844 111.488281 L 307.46875 291.34375 L 29.972656 233.300781 Z M 67.59375 53.441406 " clip-rule="nonzero"/></clipPath><clipPath id="f92a294b18"><path d="M 91 153 L 100 153 L 100 172 L 91 172 Z M 91 153 " clip-rule="nonzero"/></clipPath><clipPath id="42529569d4"><path d="M 67.59375 53.441406 L 345.089844 111.488281 L 307.46875 291.34375 L 29.972656 233.300781 Z M 67.59375 53.441406 " clip-rule="nonzero"/></clipPath><clipPath id="838293fb79"><path d="M 67.59375 53.441406 L 345.089844 111.488281 L 307.46875 291.34375 L 29.972656 233.300781 Z M 67.59375 53.441406 " clip-rule="nonzero"/></clipPath><clipPath id="b6899e5f6f"><path d="M 67.59375 53.441406 L 345.089844 111.488281 L 307.46875 291.34375 L 29.972656 233.300781 Z M 67.59375 53.441406 " clip-rule="nonzero"/></clipPath><clipPath id="d80573e299"><path d="M 110 157 L 119 157 L 119 176 L 110 176 Z M 110 157 " clip-rule="nonzero"/></clipPath><clipPath id="dad1654c3b"><path d="M 67.59375 53.441406 L 345.089844 111.488281 L 307.46875 291.34375 L 29.972656 233.300781 Z M 67.59375 53.441406 " clip-rule="nonzero"/></clipPath><clipPath id="62e5373255"><path d="M 67.59375 53.441406 L 345.089844 111.488281 L 307.46875 291.34375 L 29.972656 233.300781 Z M 67.59375 53.441406 " clip-rule="nonzero"/></clipPath><clipPath id="fd568f0064"><path d="M 67.59375 53.441406 L 345.089844 111.488281 L 307.46875 291.34375 L 29.972656 233.300781 Z M 67.59375 53.441406 " clip-rule="nonzero"/></clipPath><clipPath id="3f0e500066"><path d="M 252 187 L 261 187 L 261 206 L 252 206 Z M 252 187 " clip-rule="nonzero"/></clipPath><clipPath id="a7e2a7c12c"><path d="M 67.59375 53.441406 L 345.089844 111.488281 L 307.46875 291.34375 L 29.972656 233.300781 Z M 67.59375 53.441406 " clip-rule="nonzero"/></clipPath><clipPath id="85b875f278"><path d="M 67.59375 53.441406 L 345.089844 111.488281 L 307.46875 291.34375 L 29.972656 233.300781 Z M 67.59375 53.441406 " clip-rule="nonzero"/></clipPath><clipPath id="1327d63a79"><path d="M 67.59375 53.441406 L 345.089844 111.488281 L 307.46875 291.34375 L 29.972656 233.300781 Z M 67.59375 53.441406 " clip-rule="nonzero"/></clipPath><clipPath id="355d0874f9"><path d="M 272 191 L 280 191 L 280 210 L 272 210 Z M 272 191 " clip-rule="nonzero"/></clipPath><clipPath id="cea89fb576"><path d="M 67.59375 53.441406 L 345.089844 111.488281 L 307.46875 291.34375 L 29.972656 233.300781 Z M 67.59375 53.441406 " clip-rule="nonzero"/></clipPath><clipPath id="93cfa68c94"><path d="M 67.59375 53.441406 L 345.089844 111.488281 L 307.46875 291.34375 L 29.972656 233.300781 Z M 67.59375 53.441406 " clip-rule="nonzero"/></clipPath><clipPath id="9b35ececa5"><path d="M 67.59375 53.441406 L 345.089844 111.488281 L 307.46875 291.34375 L 29.972656 233.300781 Z M 67.59375 53.441406 " clip-rule="nonzero"/></clipPath><clipPath id="eceb45817e"><path d="M 291 195 L 300 195 L 300 214 L 291 214 Z M 291 195 " clip-rule="nonzero"/></clipPath><clipPath id="e9574c6c4f"><path d="M 67.59375 53.441406 L 345.089844 111.488281 L 307.46875 291.34375 L 29.972656 233.300781 Z M 67.59375 53.441406 " clip-rule="nonzero"/></clipPath><clipPath id="e7ac19048f"><path d="M 67.59375 53.441406 L 345.089844 111.488281 L 307.46875 291.34375 L 29.972656 233.300781 Z M 67.59375 53.441406 " clip-rule="nonzero"/></clipPath><clipPath id="d17e7eb81a"><path d="M 67.59375 53.441406 L 345.089844 111.488281 L 307.46875 291.34375 L 29.972656 233.300781 Z M 67.59375 53.441406 " clip-rule="nonzero"/></clipPath><clipPath id="8183edee2c"><path d="M 152 166 L 161 166 L 161 185 L 152 185 Z M 152 166 " clip-rule="nonzero"/></clipPath><clipPath id="3e70ca8417"><path d="M 67.59375 53.441406 L 345.089844 111.488281 L 307.46875 291.34375 L 29.972656 233.300781 Z M 67.59375 53.441406 " clip-rule="nonzero"/></clipPath><clipPath id="dc7d5b85c5"><path d="M 67.59375 53.441406 L 345.089844 111.488281 L 307.46875 291.34375 L 29.972656 233.300781 Z M 67.59375 53.441406 " clip-rule="nonzero"/></clipPath><clipPath id="165a7183d3"><path d="M 67.59375 53.441406 L 345.089844 111.488281 L 307.46875 291.34375 L 29.972656 233.300781 Z M 67.59375 53.441406 " clip-rule="nonzero"/></clipPath><clipPath id="72da3e5f87"><path d="M 172 170 L 180 170 L 180 189 L 172 189 Z M 172 170 " clip-rule="nonzero"/></clipPath><clipPath id="cf89f31b6e"><path d="M 67.59375 53.441406 L 345.089844 111.488281 L 307.46875 291.34375 L 29.972656 233.300781 Z M 67.59375 53.441406 " clip-rule="nonzero"/></clipPath><clipPath id="ff22013205"><path d="M 67.59375 53.441406 L 345.089844 111.488281 L 307.46875 291.34375 L 29.972656 233.300781 Z M 67.59375 53.441406 " clip-rule="nonzero"/></clipPath><clipPath id="b61a54ff47"><path d="M 67.59375 53.441406 L 345.089844 111.488281 L 307.46875 291.34375 L 29.972656 233.300781 Z M 67.59375 53.441406 " clip-rule="nonzero"/></clipPath><clipPath id="2107901cb7"><path d="M 191 174 L 200 174 L 200 193 L 191 193 Z M 191 174 " clip-rule="nonzero"/></clipPath><clipPath id="9cb193b943"><path d="M 67.59375 53.441406 L 345.089844 111.488281 L 307.46875 291.34375 L 29.972656 233.300781 Z M 67.59375 53.441406 " clip-rule="nonzero"/></clipPath><clipPath id="e7c5c81786"><path d="M 67.59375 53.441406 L 345.089844 111.488281 L 307.46875 291.34375 L 29.972656 233.300781 Z M 67.59375 53.441406 " clip-rule="nonzero"/></clipPath><clipPath id="2b948ef264"><path d="M 67.59375 53.441406 L 345.089844 111.488281 L 307.46875 291.34375 L 29.972656 233.300781 Z M 67.59375 53.441406 " clip-rule="nonzero"/></clipPath><clipPath id="1299cc9c21"><path d="M 210 178 L 219 178 L 219 197 L 210 197 Z M 210 178 " clip-rule="nonzero"/></clipPath><clipPath id="c98b42e0b2"><path d="M 67.59375 53.441406 L 345.089844 111.488281 L 307.46875 291.34375 L 29.972656 233.300781 Z M 67.59375 53.441406 " clip-rule="nonzero"/></clipPath><clipPath id="276805a23c"><path d="M 67.59375 53.441406 L 345.089844 111.488281 L 307.46875 291.34375 L 29.972656 233.300781 Z M 67.59375 53.441406 " clip-rule="nonzero"/></clipPath><clipPath id="f7d9a5748e"><path d="M 67.59375 53.441406 L 345.089844 111.488281 L 307.46875 291.34375 L 29.972656 233.300781 Z M 67.59375 53.441406 " clip-rule="nonzero"/></clipPath><clipPath id="eb71529639"><path d="M 59 193 L 211 193 L 211 230 L 59 230 Z M 59 193 " clip-rule="nonzero"/></clipPath><clipPath id="b78fdfbdbe"><path d="M 67.59375 53.441406 L 345.089844 111.488281 L 307.46875 291.34375 L 29.972656 233.300781 Z M 67.59375 53.441406 " clip-rule="nonzero"/></clipPath><clipPath id="77ced8deaa"><path d="M 67.59375 53.441406 L 345.089844 111.488281 L 307.46875 291.34375 L 29.972656 233.300781 Z M 67.59375 53.441406 " clip-rule="nonzero"/></clipPath><clipPath id="0e1563880b"><path d="M 67.59375 53.441406 L 345.089844 111.488281 L 307.46875 291.34375 L 29.972656 233.300781 Z M 67.59375 53.441406 " clip-rule="nonzero"/></clipPath><clipPath id="7886de9579"><path d="M 55 212 L 166 212 L 166 240 L 55 240 Z M 55 212 " clip-rule="nonzero"/></clipPath><clipPath id="6068a6618c"><path d="M 67.59375 53.441406 L 345.089844 111.488281 L 307.46875 291.34375 L 29.972656 233.300781 Z M 67.59375 53.441406 " clip-rule="nonzero"/></clipPath><clipPath id="d1a1aaf330"><path d="M 67.59375 53.441406 L 345.089844 111.488281 L 307.46875 291.34375 L 29.972656 233.300781 Z M 67.59375 53.441406 " clip-rule="nonzero"/></clipPath><clipPath id="cceea697d7"><path d="M 67.59375 53.441406 L 345.089844 111.488281 L 307.46875 291.34375 L 29.972656 233.300781 Z M 67.59375 53.441406 " clip-rule="nonzero"/></clipPath><clipPath id="33116bbd48"><path d="M 234 231 L 296 231 L 296 266 L 234 266 Z M 234 231 " clip-rule="nonzero"/></clipPath><clipPath id="6d4cd23d83"><path d="M 67.59375 53.441406 L 345.089844 111.488281 L 307.46875 291.34375 L 29.972656 233.300781 Z M 67.59375 53.441406 " clip-rule="nonzero"/></clipPath><clipPath id="83d02babf4"><path d="M 67.59375 53.441406 L 345.089844 111.488281 L 307.46875 291.34375 L 29.972656 233.300781 Z M 67.59375 53.441406 " clip-rule="nonzero"/></clipPath><clipPath id="26090ef87a"><path d="M 67.59375 53.441406 L 345.089844 111.488281 L 307.46875 291.34375 L 29.972656 233.300781 Z M 67.59375 53.441406 " clip-rule="nonzero"/></clipPath><clipPath id="5036801e67"><path d="M 262 116 L 320 116 L 320 133 L 262 133 Z M 262 116 " clip-rule="nonzero"/></clipPath><clipPath id="cfc288593d"><path d="M 67.59375 53.441406 L 345.089844 111.488281 L 307.46875 291.34375 L 29.972656 233.300781 Z M 67.59375 53.441406 " clip-rule="nonzero"/></clipPath><clipPath id="f67d04d278"><path d="M 67.59375 53.441406 L 345.089844 111.488281 L 307.46875 291.34375 L 29.972656 233.300781 Z M 67.59375 53.441406 " clip-rule="nonzero"/></clipPath><clipPath id="6c5960593c"><path d="M 67.59375 53.441406 L 345.089844 111.488281 L 307.46875 291.34375 L 29.972656 233.300781 Z M 67.59375 53.441406 " clip-rule="nonzero"/></clipPath></defs><g clip-path="url(#7fbbaed94b)"><g clip-path="url(#d8b9de2cc4)"><g clip-path="url(#e9f9a192e7)"><g clip-path="url(#e7f499e24b)"><path fill="#0066ae" d="M 81.492188 58.988281 L 330.132812 110.996094 C 330.921875 111.160156 331.6875 111.402344 332.429688 111.71875 C 333.171875 112.03125 333.875 112.417969 334.542969 112.871094 C 335.207031 113.328125 335.824219 113.839844 336.390625 114.417969 C 336.953125 114.992188 337.457031 115.617188 337.898438 116.289062 C 338.339844 116.964844 338.710938 117.675781 339.011719 118.421875 C 339.316406 119.167969 339.539062 119.9375 339.691406 120.730469 C 339.839844 121.523438 339.910156 122.320312 339.902344 123.125 C 339.894531 123.929688 339.808594 124.726562 339.644531 125.515625 L 308.101562 276.308594 C 307.9375 277.097656 307.695312 277.863281 307.382812 278.601562 C 307.066406 279.34375 306.679688 280.046875 306.226562 280.710938 C 305.773438 281.378906 305.257812 281.992188 304.679688 282.554688 C 304.105469 283.121094 303.480469 283.621094 302.804688 284.0625 C 302.128906 284.503906 301.417969 284.875 300.671875 285.175781 C 299.921875 285.476562 299.152344 285.699219 298.359375 285.847656 C 297.566406 286 296.769531 286.070312 295.960938 286.058594 C 295.15625 286.050781 294.359375 285.964844 293.566406 285.800781 L 44.929688 233.792969 C 44.140625 233.628906 43.375 233.386719 42.632812 233.070312 C 41.890625 232.753906 41.1875 232.371094 40.519531 231.914062 C 39.851562 231.460938 39.238281 230.945312 38.671875 230.371094 C 38.109375 229.796875 37.605469 229.171875 37.164062 228.496094 C 36.722656 227.824219 36.351562 227.113281 36.046875 226.367188 C 35.746094 225.617188 35.519531 224.847656 35.371094 224.058594 C 35.222656 223.265625 35.152344 222.46875 35.160156 221.660156 C 35.167969 220.855469 35.253906 220.058594 35.417969 219.269531 L 66.960938 68.476562 C 67.125 67.691406 67.363281 66.925781 67.679688 66.183594 C 67.996094 65.445312 68.378906 64.742188 68.835938 64.074219 C 69.289062 63.410156 69.804688 62.796875 70.378906 62.230469 C 70.957031 61.667969 71.582031 61.167969 72.257812 60.726562 C 72.929688 60.285156 73.640625 59.914062 74.390625 59.613281 C 75.136719 59.3125 75.910156 59.089844 76.703125 58.9375 C 77.492188 58.789062 78.292969 58.71875 79.101562 58.726562 C 79.90625 58.734375 80.703125 58.824219 81.492188 58.988281 Z M 81.492188 58.988281 " fill-opacity="1" fill-rule="nonzero"/></g></g></g></g><g clip-path="url(#706a2350da)"><g clip-path="url(#0822b32c6b)"><g clip-path="url(#19af9a96fa)"><g clip-path="url(#d9ed4a06a6)"><path fill="#ffa500" d="M 123.800781 111.695312 L 120.894531 125.597656 C 120.796875 126.070312 120.652344 126.53125 120.460938 126.976562 C 120.273438 127.417969 120.042969 127.839844 119.769531 128.242188 C 119.496094 128.640625 119.1875 129.007812 118.839844 129.347656 C 118.496094 129.683594 118.121094 129.984375 117.714844 130.25 C 117.3125 130.515625 116.882812 130.738281 116.433594 130.917969 C 115.988281 131.097656 115.523438 131.234375 115.050781 131.324219 C 114.574219 131.410156 114.09375 131.453125 113.609375 131.449219 C 113.125 131.445312 112.648438 131.394531 112.171875 131.292969 L 98.273438 128.386719 L 102.691406 107.28125 Z M 123.800781 111.695312 " fill-opacity="1" fill-rule="nonzero"/></g></g></g></g><g clip-path="url(#8434df087c)"><g clip-path="url(#02a93b2a04)"><g clip-path="url(#5a67188bea)"><g clip-path="url(#10987913f6)"><path fill="#ff9100" d="M 126.710938 97.792969 L 123.800781 111.695312 L 102.691406 107.28125 L 98.273438 128.386719 L 84.398438 125.484375 C 83.925781 125.386719 83.46875 125.242188 83.023438 125.050781 C 82.578125 124.863281 82.152344 124.628906 81.753906 124.359375 C 81.355469 124.085938 80.984375 123.777344 80.644531 123.433594 C 80.308594 123.085938 80.003906 122.710938 79.742188 122.308594 C 79.476562 121.902344 79.253906 121.476562 79.070312 121.027344 C 78.890625 120.578125 78.753906 120.117188 78.664062 119.644531 C 78.574219 119.167969 78.53125 118.6875 78.539062 118.207031 C 78.542969 117.722656 78.59375 117.246094 78.691406 116.773438 L 84.507812 88.964844 C 84.609375 88.492188 84.753906 88.035156 84.941406 87.589844 C 85.132812 87.144531 85.363281 86.722656 85.636719 86.324219 C 85.90625 85.925781 86.214844 85.558594 86.5625 85.21875 C 86.90625 84.878906 87.28125 84.578125 87.6875 84.316406 C 88.09375 84.050781 88.519531 83.828125 88.96875 83.648438 C 89.417969 83.46875 89.878906 83.332031 90.355469 83.242188 C 90.828125 83.152344 91.308594 83.109375 91.792969 83.117188 C 92.277344 83.121094 92.757812 83.171875 93.230469 83.273438 L 121.003906 89.082031 C 121.476562 89.179688 121.9375 89.324219 122.382812 89.515625 C 122.828125 89.703125 123.25 89.933594 123.648438 90.207031 C 124.050781 90.480469 124.417969 90.789062 124.757812 91.132812 C 125.097656 91.480469 125.398438 91.851562 125.664062 92.257812 C 125.929688 92.664062 126.152344 93.089844 126.332031 93.539062 C 126.511719 93.984375 126.648438 94.445312 126.738281 94.921875 C 126.828125 95.398438 126.871094 95.875 126.867188 96.359375 C 126.859375 96.84375 126.808594 97.320312 126.710938 97.792969 Z M 126.710938 97.792969 " fill-opacity="1" fill-rule="nonzero"/></g></g></g></g><g clip-path="url(#4ac6f577de)"><g clip-path="url(#dc4052f71a)"><g clip-path="url(#d5b7812ad8)"><g clip-path="url(#b9597a46c3)"><path fill="#ffcd00" d="M 107.105469 86.175781 L 98.273438 128.386719 L 84.398438 125.484375 C 83.925781 125.386719 83.46875 125.242188 83.023438 125.050781 C 82.578125 124.863281 82.152344 124.628906 81.753906 124.359375 C 81.355469 124.085938 80.984375 123.777344 80.644531 123.433594 C 80.308594 123.085938 80.003906 122.710938 79.742188 122.308594 C 79.476562 121.902344 79.253906 121.476562 79.070312 121.027344 C 78.890625 120.578125 78.753906 120.117188 78.664062 119.644531 C 78.574219 119.167969 78.53125 118.6875 78.539062 118.207031 C 78.542969 117.722656 78.59375 117.246094 78.691406 116.773438 L 84.507812 88.964844 C 84.609375 88.492188 84.753906 88.035156 84.941406 87.589844 C 85.132812 87.144531 85.363281 86.722656 85.636719 86.324219 C 85.90625 85.925781 86.214844 85.558594 86.5625 85.21875 C 86.90625 84.878906 87.28125 84.578125 87.6875 84.316406 C 88.09375 84.050781 88.519531 83.828125 88.96875 83.648438 C 89.417969 83.46875 89.878906 83.332031 90.355469 83.242188 C 90.828125 83.152344 91.308594 83.109375 91.792969 83.117188 C 92.277344 83.121094 92.757812 83.171875 93.230469 83.273438 Z M 107.105469 86.175781 " fill-opacity="1" fill-rule="nonzero"/></g></g></g></g><g clip-path="url(#722f6a4c56)"><g clip-path="url(#f7500d3a50)"><g clip-path="url(#10f5dfefab)"><g clip-path="url(#e9e1616760)"><path fill="#ffcf00" d="M 240.667969 233.683594 L 292.945312 244.617188 L 289.09375 263.035156 L 236.816406 252.101562 Z M 240.667969 233.683594 " fill-opacity="1" fill-rule="nonzero"/></g></g></g></g><g clip-path="url(#55db7ed01f)"><g clip-path="url(#3325116e41)"><g clip-path="url(#1cb9a11f98)"><g clip-path="url(#530fe17fa0)"><path fill="#000000" d="M 330.632812 108.59375 L 257.027344 93.199219 C 256.710938 93.132812 256.390625 93.128906 256.070312 93.1875 C 255.75 93.25 255.453125 93.367188 255.179688 93.546875 C 254.910156 93.722656 254.679688 93.949219 254.496094 94.214844 C 254.3125 94.484375 254.1875 94.777344 254.121094 95.097656 C 254.054688 95.414062 254.050781 95.734375 254.113281 96.054688 C 254.171875 96.375 254.292969 96.667969 254.472656 96.941406 C 254.648438 97.214844 254.875 97.441406 255.140625 97.625 C 255.410156 97.808594 255.707031 97.933594 256.023438 98 L 329.628906 113.398438 C 330.261719 113.527344 330.875 113.722656 331.46875 113.972656 C 332.0625 114.226562 332.625 114.535156 333.15625 114.898438 C 333.691406 115.261719 334.183594 115.671875 334.636719 116.132812 C 335.085938 116.59375 335.488281 117.09375 335.84375 117.632812 C 336.195312 118.171875 336.492188 118.742188 336.734375 119.339844 C 336.976562 119.9375 337.15625 120.550781 337.277344 121.183594 C 337.394531 121.816406 337.453125 122.457031 337.445312 123.101562 C 337.441406 123.746094 337.371094 124.382812 337.238281 125.011719 L 305.699219 275.808594 C 305.566406 276.4375 305.375 277.050781 305.121094 277.640625 C 304.867188 278.234375 304.558594 278.796875 304.195312 279.328125 C 303.832031 279.859375 303.421875 280.351562 302.960938 280.804688 C 302.5 281.253906 302 281.65625 301.460938 282.007812 C 300.921875 282.363281 300.351562 282.65625 299.753906 282.898438 C 299.152344 283.140625 298.539062 283.320312 297.902344 283.4375 C 297.269531 283.558594 296.628906 283.613281 295.984375 283.605469 C 295.339844 283.601562 294.703125 283.53125 294.070312 283.398438 L 45.429688 231.390625 C 44.800781 231.257812 44.1875 231.066406 43.59375 230.8125 C 43 230.5625 42.4375 230.253906 41.902344 229.890625 C 41.371094 229.527344 40.878906 229.113281 40.425781 228.65625 C 39.972656 228.195312 39.570312 227.695312 39.21875 227.15625 C 38.867188 226.617188 38.566406 226.046875 38.328125 225.449219 C 38.085938 224.851562 37.90625 224.234375 37.785156 223.601562 C 37.664062 222.96875 37.609375 222.332031 37.613281 221.6875 C 37.621094 221.042969 37.691406 220.40625 37.820312 219.773438 L 69.363281 68.980469 C 69.496094 68.351562 69.6875 67.738281 69.941406 67.144531 C 70.191406 66.554688 70.5 65.992188 70.863281 65.460938 C 71.226562 64.925781 71.640625 64.433594 72.101562 63.984375 C 72.5625 63.535156 73.0625 63.132812 73.601562 62.777344 C 74.140625 62.425781 74.710938 62.128906 75.308594 61.890625 C 75.90625 61.648438 76.523438 61.46875 77.15625 61.351562 C 77.792969 61.230469 78.429688 61.175781 79.074219 61.179688 C 79.722656 61.1875 80.359375 61.257812 80.992188 61.390625 L 123.144531 70.207031 C 123.464844 70.273438 123.78125 70.277344 124.101562 70.214844 C 124.421875 70.15625 124.71875 70.035156 124.992188 69.859375 C 125.265625 69.679688 125.492188 69.457031 125.675781 69.1875 C 125.859375 68.917969 125.984375 68.625 126.050781 68.308594 C 126.117188 67.988281 126.121094 67.671875 126.058594 67.351562 C 126 67.03125 125.878906 66.734375 125.703125 66.460938 C 125.523438 66.191406 125.300781 65.960938 125.03125 65.777344 C 124.761719 65.59375 124.46875 65.46875 124.148438 65.402344 L 81.996094 56.585938 C 81.046875 56.386719 80.089844 56.285156 79.125 56.273438 C 78.15625 56.265625 77.195312 56.347656 76.246094 56.527344 C 75.292969 56.707031 74.371094 56.976562 73.472656 57.335938 C 72.574219 57.699219 71.722656 58.144531 70.910156 58.671875 C 70.101562 59.199219 69.351562 59.804688 68.660156 60.480469 C 67.96875 61.15625 67.351562 61.894531 66.804688 62.691406 C 66.261719 63.488281 65.796875 64.332031 65.417969 65.222656 C 65.039062 66.113281 64.753906 67.03125 64.554688 67.976562 L 33.011719 218.769531 C 32.816406 219.714844 32.710938 220.671875 32.703125 221.636719 C 32.691406 222.605469 32.777344 223.5625 32.957031 224.511719 C 33.136719 225.460938 33.40625 226.382812 33.769531 227.28125 C 34.132812 228.179688 34.578125 229.03125 35.109375 229.839844 C 35.636719 230.648438 36.242188 231.398438 36.917969 232.089844 C 37.597656 232.777344 38.335938 233.398438 39.136719 233.941406 C 39.933594 234.488281 40.78125 234.949219 41.671875 235.328125 C 42.5625 235.707031 43.480469 235.996094 44.425781 236.191406 L 293.066406 288.203125 C 294.011719 288.398438 294.96875 288.503906 295.9375 288.511719 C 296.90625 288.523438 297.867188 288.4375 298.816406 288.261719 C 299.765625 288.082031 300.691406 287.8125 301.589844 287.449219 C 302.488281 287.089844 303.339844 286.644531 304.148438 286.117188 C 304.960938 285.585938 305.710938 284.984375 306.402344 284.308594 C 307.09375 283.632812 307.710938 282.894531 308.253906 282.097656 C 308.800781 281.296875 309.261719 280.453125 309.640625 279.566406 C 310.019531 278.675781 310.308594 277.757812 310.507812 276.8125 L 342.046875 126.019531 C 342.246094 125.074219 342.351562 124.117188 342.359375 123.152344 C 342.367188 122.183594 342.285156 121.226562 342.105469 120.277344 C 341.925781 119.328125 341.652344 118.402344 341.292969 117.507812 C 340.929688 116.609375 340.484375 115.757812 339.953125 114.949219 C 339.425781 114.140625 338.820312 113.390625 338.140625 112.699219 C 337.464844 112.007812 336.726562 111.390625 335.925781 110.847656 C 335.125 110.300781 334.28125 109.839844 333.390625 109.460938 C 332.5 109.082031 331.582031 108.792969 330.632812 108.59375 Z M 330.632812 108.59375 " fill-opacity="1" fill-rule="nonzero"/></g></g></g></g><g clip-path="url(#50ed788b45)"><g clip-path="url(#1dbcea852d)"><g clip-path="url(#0a810d88a0)"><g clip-path="url(#863bbdfbcf)"><path fill="#000000" d="M 178.859375 81.859375 L 234.167969 93.429688 C 234.484375 93.496094 234.804688 93.5 235.125 93.4375 C 235.445312 93.378906 235.742188 93.257812 236.011719 93.082031 C 236.285156 92.902344 236.515625 92.679688 236.699219 92.410156 C 236.882812 92.140625 237.007812 91.847656 237.074219 91.53125 C 237.140625 91.210938 237.144531 90.894531 237.082031 90.574219 C 237.023438 90.253906 236.902344 89.957031 236.722656 89.683594 C 236.546875 89.414062 236.320312 89.183594 236.050781 89 C 235.785156 88.816406 235.488281 88.691406 235.171875 88.625 L 179.863281 77.058594 C 179.546875 76.992188 179.226562 76.988281 178.90625 77.046875 C 178.585938 77.109375 178.289062 77.226562 178.015625 77.40625 C 177.746094 77.582031 177.515625 77.808594 177.332031 78.074219 C 177.148438 78.34375 177.023438 78.636719 176.957031 78.957031 C 176.890625 79.273438 176.886719 79.59375 176.949219 79.914062 C 177.007812 80.234375 177.128906 80.527344 177.304688 80.800781 C 177.484375 81.074219 177.707031 81.300781 177.976562 81.484375 C 178.246094 81.667969 178.539062 81.792969 178.859375 81.859375 Z M 178.859375 81.859375 " fill-opacity="1" fill-rule="nonzero"/></g></g></g></g><g clip-path="url(#5b854cb347)"><g clip-path="url(#70c4043d7e)"><g clip-path="url(#f4dd645036)"><g clip-path="url(#ad90a0ca2c)"><path fill="#000000" d="M 145.195312 74.816406 L 157.21875 77.332031 C 157.535156 77.398438 157.855469 77.402344 158.175781 77.34375 C 158.496094 77.28125 158.792969 77.164062 159.066406 76.984375 C 159.339844 76.808594 159.566406 76.585938 159.75 76.316406 C 159.933594 76.046875 160.058594 75.753906 160.125 75.433594 C 160.191406 75.117188 160.195312 74.796875 160.132812 74.476562 C 160.074219 74.15625 159.953125 73.863281 159.777344 73.589844 C 159.597656 73.316406 159.375 73.089844 159.105469 72.90625 C 158.835938 72.722656 158.542969 72.597656 158.222656 72.53125 L 146.199219 70.015625 C 145.878906 69.949219 145.5625 69.945312 145.242188 70.007812 C 144.921875 70.066406 144.625 70.1875 144.351562 70.363281 C 144.078125 70.542969 143.851562 70.765625 143.667969 71.035156 C 143.484375 71.300781 143.359375 71.597656 143.292969 71.914062 C 143.226562 72.234375 143.222656 72.550781 143.285156 72.871094 C 143.34375 73.191406 143.464844 73.488281 143.640625 73.757812 C 143.820312 74.03125 144.042969 74.257812 144.3125 74.441406 C 144.582031 74.625 144.875 74.75 145.195312 74.816406 Z M 145.195312 74.816406 " fill-opacity="1" fill-rule="nonzero"/></g></g></g></g><g clip-path="url(#89a55270bf)"><g clip-path="url(#3ad003140b)"><g clip-path="url(#4eae0aba5a)"><g clip-path="url(#ed6408191e)"><path fill="#000000" d="M 93.730469 80.871094 C 93.101562 80.738281 92.460938 80.667969 91.816406 80.664062 C 91.171875 80.65625 90.53125 80.710938 89.898438 80.832031 C 89.265625 80.949219 88.648438 81.132812 88.050781 81.371094 C 87.453125 81.613281 86.882812 81.910156 86.34375 82.261719 C 85.800781 82.613281 85.300781 83.015625 84.839844 83.464844 C 84.382812 83.917969 83.96875 84.410156 83.605469 84.941406 C 83.242188 85.472656 82.933594 86.035156 82.679688 86.628906 C 82.429688 87.222656 82.238281 87.832031 82.105469 88.464844 L 76.289062 116.269531 C 76.15625 116.898438 76.085938 117.535156 76.082031 118.179688 C 76.074219 118.824219 76.132812 119.464844 76.25 120.097656 C 76.371094 120.730469 76.550781 121.347656 76.792969 121.945312 C 77.035156 122.542969 77.332031 123.109375 77.683594 123.648438 C 78.039062 124.1875 78.441406 124.6875 78.894531 125.148438 C 79.34375 125.609375 79.835938 126.019531 80.371094 126.382812 C 80.902344 126.746094 81.464844 127.054688 82.058594 127.308594 C 82.652344 127.5625 83.265625 127.753906 83.898438 127.886719 L 111.671875 133.695312 C 112.304688 133.828125 112.941406 133.894531 113.585938 133.902344 C 114.230469 133.910156 114.871094 133.851562 115.503906 133.734375 C 116.140625 133.613281 116.753906 133.433594 117.355469 133.195312 C 117.953125 132.953125 118.519531 132.65625 119.0625 132.304688 C 119.601562 131.953125 120.101562 131.550781 120.5625 131.097656 C 121.023438 130.648438 121.433594 130.15625 121.796875 129.625 C 122.160156 129.09375 122.46875 128.53125 122.722656 127.9375 C 122.976562 127.34375 123.167969 126.734375 123.300781 126.101562 L 129.113281 98.296875 C 129.246094 97.664062 129.316406 97.027344 129.320312 96.382812 C 129.328125 95.738281 129.273438 95.101562 129.152344 94.46875 C 129.03125 93.835938 128.851562 93.21875 128.609375 92.621094 C 128.367188 92.023438 128.070312 91.453125 127.71875 90.914062 C 127.363281 90.375 126.960938 89.875 126.511719 89.417969 C 126.058594 88.957031 125.566406 88.542969 125.035156 88.179688 C 124.5 87.816406 123.9375 87.507812 123.34375 87.257812 C 122.75 87.003906 122.136719 86.8125 121.503906 86.679688 Z M 84.902344 123.082031 C 84.585938 123.015625 84.28125 122.921875 83.984375 122.792969 C 83.6875 122.667969 83.40625 122.515625 83.136719 122.332031 C 82.871094 122.152344 82.625 121.945312 82.398438 121.714844 C 82.175781 121.484375 81.972656 121.234375 81.796875 120.964844 C 81.621094 120.695312 81.472656 120.410156 81.351562 120.113281 C 81.230469 119.8125 81.140625 119.503906 81.078125 119.1875 C 81.019531 118.871094 80.992188 118.554688 80.992188 118.230469 C 80.996094 117.910156 81.03125 117.589844 81.097656 117.273438 L 86.914062 89.46875 C 86.980469 89.152344 87.074219 88.847656 87.203125 88.550781 C 87.328125 88.253906 87.484375 87.972656 87.664062 87.707031 C 87.847656 87.441406 88.050781 87.195312 88.28125 86.96875 C 88.511719 86.746094 88.761719 86.542969 89.03125 86.367188 C 89.300781 86.191406 89.585938 86.042969 89.886719 85.921875 C 90.1875 85.804688 90.492188 85.714844 90.8125 85.652344 C 91.128906 85.59375 91.449219 85.566406 91.769531 85.570312 C 92.09375 85.570312 92.410156 85.605469 92.726562 85.671875 L 104.246094 88.082031 L 96.421875 125.492188 Z M 112.722656 128.902344 L 101.183594 126.488281 L 104.59375 110.183594 L 120.894531 113.59375 L 118.488281 125.097656 C 118.421875 125.410156 118.328125 125.71875 118.203125 126.011719 C 118.074219 126.308594 117.921875 126.589844 117.738281 126.855469 C 117.558594 127.125 117.351562 127.367188 117.121094 127.59375 C 116.890625 127.820312 116.640625 128.019531 116.371094 128.195312 C 116.101562 128.375 115.816406 128.523438 115.515625 128.640625 C 115.21875 128.761719 114.910156 128.851562 114.59375 128.910156 C 114.277344 128.972656 113.957031 129 113.632812 128.996094 C 113.3125 128.992188 112.992188 128.957031 112.675781 128.890625 Z M 124.355469 97.300781 L 121.949219 108.800781 L 105.597656 105.382812 L 109.007812 89.078125 L 120.5 91.480469 C 120.816406 91.546875 121.125 91.644531 121.421875 91.769531 C 121.71875 91.898438 122 92.050781 122.265625 92.234375 C 122.53125 92.414062 122.777344 92.621094 123.003906 92.851562 C 123.230469 93.082031 123.429688 93.332031 123.609375 93.601562 C 123.785156 93.871094 123.933594 94.152344 124.054688 94.453125 C 124.175781 94.75 124.265625 95.058594 124.324219 95.375 C 124.382812 95.691406 124.414062 96.011719 124.410156 96.335938 C 124.40625 96.65625 124.371094 96.976562 124.304688 97.289062 Z M 124.355469 97.300781 " fill-opacity="1" fill-rule="nonzero"/></g></g></g></g><g clip-path="url(#3748473b06)"><g clip-path="url(#9fa41768bf)"><g clip-path="url(#3ada2cb6df)"><g clip-path="url(#8ff615c0bf)"><path fill="#000000" d="M 76.796875 165.671875 L 79.625 152.152344 C 79.691406 151.835938 79.695312 151.515625 79.632812 151.195312 C 79.574219 150.878906 79.453125 150.582031 79.277344 150.308594 C 79.097656 150.035156 78.875 149.808594 78.605469 149.625 C 78.335938 149.441406 78.042969 149.316406 77.722656 149.25 C 77.402344 149.183594 77.085938 149.179688 76.765625 149.238281 C 76.445312 149.300781 76.148438 149.417969 75.875 149.597656 C 75.601562 149.773438 75.375 150 75.191406 150.265625 C 75.007812 150.535156 74.882812 150.828125 74.816406 151.148438 L 71.988281 164.667969 C 71.921875 164.984375 71.917969 165.304688 71.980469 165.625 C 72.039062 165.941406 72.160156 166.238281 72.335938 166.511719 C 72.515625 166.785156 72.738281 167.011719 73.007812 167.195312 C 73.277344 167.378906 73.570312 167.503906 73.890625 167.570312 C 74.210938 167.636719 74.527344 167.640625 74.847656 167.582031 C 75.167969 167.519531 75.464844 167.402344 75.738281 167.222656 C 76.011719 167.046875 76.238281 166.820312 76.421875 166.554688 C 76.605469 166.285156 76.730469 165.992188 76.796875 165.671875 Z M 76.796875 165.671875 " fill-opacity="1" fill-rule="nonzero"/></g></g></g></g><g clip-path="url(#f92a294b18)"><g clip-path="url(#42529569d4)"><g clip-path="url(#838293fb79)"><g clip-path="url(#b6899e5f6f)"><path fill="#000000" d="M 96.25 169.742188 L 99.078125 156.222656 C 99.144531 155.90625 99.148438 155.585938 99.085938 155.265625 C 99.027344 154.945312 98.90625 154.648438 98.730469 154.378906 C 98.550781 154.105469 98.328125 153.878906 98.058594 153.695312 C 97.789062 153.511719 97.496094 153.386719 97.175781 153.320312 C 96.855469 153.253906 96.539062 153.25 96.21875 153.308594 C 95.898438 153.371094 95.601562 153.488281 95.328125 153.667969 C 95.054688 153.84375 94.828125 154.066406 94.644531 154.335938 C 94.460938 154.605469 94.335938 154.898438 94.269531 155.21875 L 91.441406 168.734375 C 91.375 169.054688 91.371094 169.371094 91.433594 169.691406 C 91.492188 170.011719 91.613281 170.308594 91.789062 170.582031 C 91.96875 170.851562 92.191406 171.082031 92.460938 171.265625 C 92.730469 171.449219 93.023438 171.574219 93.34375 171.640625 C 93.664062 171.707031 93.980469 171.710938 94.300781 171.648438 C 94.621094 171.589844 94.917969 171.46875 95.191406 171.292969 C 95.464844 171.113281 95.691406 170.890625 95.875 170.621094 C 96.058594 170.351562 96.183594 170.058594 96.25 169.742188 Z M 96.25 169.742188 " fill-opacity="1" fill-rule="nonzero"/></g></g></g></g><g clip-path="url(#d80573e299)"><g clip-path="url(#dad1654c3b)"><g clip-path="url(#62e5373255)"><g clip-path="url(#fd568f0064)"><path fill="#000000" d="M 113.722656 159.285156 L 110.894531 172.804688 C 110.828125 173.125 110.824219 173.441406 110.886719 173.761719 C 110.945312 174.082031 111.066406 174.378906 111.242188 174.648438 C 111.421875 174.921875 111.644531 175.148438 111.914062 175.332031 C 112.183594 175.515625 112.476562 175.640625 112.796875 175.707031 C 113.117188 175.777344 113.433594 175.777344 113.753906 175.71875 C 114.074219 175.660156 114.371094 175.539062 114.644531 175.359375 C 114.917969 175.183594 115.144531 174.960938 115.328125 174.691406 C 115.511719 174.421875 115.636719 174.128906 115.703125 173.8125 L 118.53125 160.292969 C 118.597656 159.972656 118.601562 159.65625 118.539062 159.335938 C 118.480469 159.015625 118.359375 158.71875 118.183594 158.445312 C 118.003906 158.175781 117.78125 157.945312 117.511719 157.761719 C 117.242188 157.578125 116.949219 157.453125 116.628906 157.386719 C 116.308594 157.320312 115.992188 157.316406 115.671875 157.378906 C 115.351562 157.4375 115.054688 157.558594 114.78125 157.734375 C 114.507812 157.914062 114.28125 158.136719 114.097656 158.40625 C 113.914062 158.675781 113.789062 158.96875 113.722656 159.285156 Z M 113.722656 159.285156 " fill-opacity="1" fill-rule="nonzero"/></g></g></g></g><g clip-path="url(#3f0e500066)"><g clip-path="url(#a7e2a7c12c)"><g clip-path="url(#85b875f278)"><g clip-path="url(#1327d63a79)"><path fill="#000000" d="M 255.59375 188.960938 L 252.769531 202.480469 C 252.703125 202.800781 252.699219 203.117188 252.757812 203.4375 C 252.820312 203.757812 252.9375 204.054688 253.117188 204.324219 C 253.296875 204.597656 253.519531 204.824219 253.789062 205.007812 C 254.058594 205.191406 254.351562 205.316406 254.671875 205.386719 C 254.988281 205.453125 255.308594 205.453125 255.628906 205.394531 C 255.949219 205.335938 256.246094 205.214844 256.519531 205.039062 C 256.789062 204.859375 257.019531 204.636719 257.203125 204.367188 C 257.386719 204.097656 257.511719 203.804688 257.578125 203.488281 L 260.40625 189.96875 C 260.472656 189.648438 260.472656 189.332031 260.414062 189.011719 C 260.355469 188.691406 260.234375 188.394531 260.054688 188.121094 C 259.878906 187.851562 259.652344 187.621094 259.382812 187.4375 C 259.117188 187.253906 258.820312 187.128906 258.503906 187.0625 C 258.183594 186.996094 257.863281 186.992188 257.542969 187.054688 C 257.222656 187.113281 256.925781 187.234375 256.65625 187.410156 C 256.382812 187.589844 256.15625 187.8125 255.972656 188.082031 C 255.789062 188.351562 255.664062 188.644531 255.59375 188.960938 Z M 255.59375 188.960938 " fill-opacity="1" fill-rule="nonzero"/></g></g></g></g><g clip-path="url(#355d0874f9)"><g clip-path="url(#cea89fb576)"><g clip-path="url(#93cfa68c94)"><g clip-path="url(#9b35ececa5)"><path fill="#000000" d="M 275.050781 193.03125 L 272.222656 206.550781 C 272.15625 206.867188 272.152344 207.1875 272.210938 207.507812 C 272.273438 207.828125 272.390625 208.121094 272.570312 208.394531 C 272.75 208.667969 272.972656 208.894531 273.242188 209.078125 C 273.511719 209.261719 273.804688 209.386719 274.125 209.453125 C 274.441406 209.519531 274.761719 209.523438 275.082031 209.464844 C 275.402344 209.402344 275.699219 209.285156 275.972656 209.105469 C 276.242188 208.929688 276.472656 208.703125 276.65625 208.4375 C 276.839844 208.167969 276.964844 207.875 277.03125 207.554688 L 279.859375 194.039062 C 279.925781 193.71875 279.929688 193.398438 279.867188 193.078125 C 279.808594 192.761719 279.6875 192.464844 279.507812 192.191406 C 279.332031 191.917969 279.105469 191.691406 278.839844 191.507812 C 278.570312 191.324219 278.273438 191.199219 277.957031 191.132812 C 277.636719 191.066406 277.316406 191.0625 276.996094 191.125 C 276.675781 191.183594 276.382812 191.300781 276.109375 191.480469 C 275.835938 191.660156 275.609375 191.882812 275.425781 192.152344 C 275.242188 192.417969 275.117188 192.710938 275.050781 193.03125 Z M 275.050781 193.03125 " fill-opacity="1" fill-rule="nonzero"/></g></g></g></g><g clip-path="url(#eceb45817e)"><g clip-path="url(#e9574c6c4f)"><g clip-path="url(#e7ac19048f)"><g clip-path="url(#d17e7eb81a)"><path fill="#000000" d="M 294.503906 197.101562 L 291.675781 210.617188 C 291.609375 210.9375 291.605469 211.257812 291.664062 211.574219 C 291.726562 211.894531 291.84375 212.191406 292.023438 212.464844 C 292.203125 212.738281 292.425781 212.964844 292.695312 213.148438 C 292.964844 213.332031 293.257812 213.457031 293.578125 213.523438 C 293.894531 213.589844 294.214844 213.59375 294.535156 213.53125 C 294.855469 213.472656 295.152344 213.351562 295.425781 213.175781 C 295.695312 212.996094 295.925781 212.773438 296.109375 212.503906 C 296.292969 212.238281 296.417969 211.941406 296.484375 211.625 L 299.3125 198.105469 C 299.378906 197.789062 299.382812 197.46875 299.320312 197.148438 C 299.261719 196.828125 299.140625 196.535156 298.960938 196.261719 C 298.785156 195.988281 298.558594 195.761719 298.292969 195.578125 C 298.023438 195.394531 297.726562 195.269531 297.410156 195.203125 C 297.089844 195.136719 296.769531 195.132812 296.449219 195.191406 C 296.128906 195.253906 295.835938 195.371094 295.5625 195.550781 C 295.289062 195.726562 295.0625 195.949219 294.878906 196.21875 C 294.695312 196.488281 294.570312 196.78125 294.503906 197.101562 Z M 294.503906 197.101562 " fill-opacity="1" fill-rule="nonzero"/></g></g></g></g><g clip-path="url(#8183edee2c)"><g clip-path="url(#3e70ca8417)"><g clip-path="url(#dc7d5b85c5)"><g clip-path="url(#165a7183d3)"><path fill="#000000" d="M 154.542969 184.441406 C 154.859375 184.507812 155.179688 184.511719 155.5 184.449219 C 155.820312 184.390625 156.117188 184.269531 156.390625 184.09375 C 156.660156 183.914062 156.890625 183.691406 157.074219 183.421875 C 157.257812 183.15625 157.382812 182.859375 157.449219 182.542969 L 160.277344 169.023438 C 160.34375 168.707031 160.34375 168.386719 160.285156 168.066406 C 160.226562 167.746094 160.105469 167.449219 159.925781 167.179688 C 159.75 166.90625 159.523438 166.679688 159.253906 166.496094 C 158.988281 166.3125 158.691406 166.1875 158.375 166.121094 C 158.054688 166.054688 157.734375 166.050781 157.414062 166.109375 C 157.09375 166.171875 156.796875 166.289062 156.527344 166.46875 C 156.253906 166.644531 156.027344 166.867188 155.84375 167.136719 C 155.660156 167.40625 155.535156 167.699219 155.464844 168.019531 L 152.640625 181.535156 C 152.574219 181.855469 152.570312 182.175781 152.628906 182.492188 C 152.691406 182.8125 152.808594 183.109375 152.988281 183.382812 C 153.167969 183.652344 153.390625 183.882812 153.660156 184.066406 C 153.929688 184.25 154.222656 184.375 154.542969 184.441406 Z M 154.542969 184.441406 " fill-opacity="1" fill-rule="nonzero"/></g></g></g></g><g clip-path="url(#72da3e5f87)"><g clip-path="url(#cf89f31b6e)"><g clip-path="url(#ff22013205)"><g clip-path="url(#b61a54ff47)"><path fill="#000000" d="M 177.023438 186.636719 L 179.851562 173.117188 C 179.917969 172.800781 179.917969 172.480469 179.859375 172.160156 C 179.796875 171.839844 179.679688 171.546875 179.5 171.273438 C 179.320312 171 179.097656 170.773438 178.828125 170.589844 C 178.558594 170.40625 178.265625 170.28125 177.949219 170.214844 C 177.628906 170.148438 177.308594 170.144531 176.988281 170.203125 C 176.667969 170.265625 176.371094 170.382812 176.101562 170.5625 C 175.828125 170.738281 175.597656 170.964844 175.414062 171.230469 C 175.230469 171.5 175.105469 171.792969 175.039062 172.113281 L 172.210938 185.628906 C 172.144531 185.949219 172.144531 186.269531 172.203125 186.589844 C 172.265625 186.90625 172.382812 187.203125 172.5625 187.476562 C 172.742188 187.75 172.964844 187.976562 173.234375 188.160156 C 173.503906 188.34375 173.796875 188.46875 174.113281 188.535156 C 174.433594 188.601562 174.753906 188.605469 175.074219 188.542969 C 175.394531 188.484375 175.691406 188.363281 175.960938 188.1875 C 176.234375 188.007812 176.464844 187.785156 176.648438 187.515625 C 176.832031 187.25 176.957031 186.957031 177.023438 186.636719 Z M 177.023438 186.636719 " fill-opacity="1" fill-rule="nonzero"/></g></g></g></g><g clip-path="url(#2107901cb7)"><g clip-path="url(#9cb193b943)"><g clip-path="url(#e7c5c81786)"><g clip-path="url(#2b948ef264)"><path fill="#000000" d="M 196.378906 190.6875 L 199.207031 177.167969 C 199.273438 176.847656 199.277344 176.53125 199.214844 176.210938 C 199.15625 175.890625 199.035156 175.59375 198.859375 175.320312 C 198.679688 175.050781 198.457031 174.820312 198.1875 174.636719 C 197.917969 174.453125 197.625 174.328125 197.304688 174.261719 C 196.984375 174.195312 196.667969 174.191406 196.347656 174.253906 C 196.027344 174.3125 195.730469 174.433594 195.457031 174.609375 C 195.183594 174.789062 194.957031 175.011719 194.773438 175.28125 C 194.589844 175.550781 194.464844 175.84375 194.398438 176.160156 L 191.570312 189.679688 C 191.503906 190 191.5 190.316406 191.5625 190.636719 C 191.621094 190.957031 191.742188 191.253906 191.917969 191.523438 C 192.097656 191.796875 192.320312 192.023438 192.589844 192.207031 C 192.859375 192.390625 193.152344 192.515625 193.472656 192.582031 C 193.792969 192.652344 194.109375 192.652344 194.429688 192.59375 C 194.75 192.535156 195.046875 192.414062 195.320312 192.234375 C 195.59375 192.058594 195.820312 191.835938 196.003906 191.566406 C 196.1875 191.296875 196.3125 191.003906 196.378906 190.6875 Z M 196.378906 190.6875 " fill-opacity="1" fill-rule="nonzero"/></g></g></g></g><g clip-path="url(#1299cc9c21)"><g clip-path="url(#c98b42e0b2)"><g clip-path="url(#276805a23c)"><g clip-path="url(#f7d9a5748e)"><path fill="#000000" d="M 216.757812 178.332031 C 216.4375 178.265625 216.121094 178.261719 215.800781 178.324219 C 215.480469 178.382812 215.183594 178.5 214.910156 178.679688 C 214.636719 178.859375 214.410156 179.082031 214.226562 179.351562 C 214.042969 179.617188 213.917969 179.910156 213.851562 180.230469 L 211.023438 193.75 C 210.957031 194.066406 210.953125 194.386719 211.015625 194.707031 C 211.074219 195.027344 211.195312 195.320312 211.371094 195.59375 C 211.550781 195.867188 211.773438 196.09375 212.042969 196.277344 C 212.3125 196.460938 212.605469 196.585938 212.925781 196.652344 C 213.246094 196.71875 213.5625 196.722656 213.882812 196.664062 C 214.203125 196.601562 214.5 196.484375 214.773438 196.304688 C 215.046875 196.128906 215.273438 195.902344 215.457031 195.636719 C 215.640625 195.367188 215.765625 195.074219 215.832031 194.753906 L 218.660156 181.234375 C 218.726562 180.917969 218.730469 180.597656 218.667969 180.277344 C 218.609375 179.960938 218.488281 179.664062 218.3125 179.390625 C 218.132812 179.117188 217.910156 178.890625 217.640625 178.707031 C 217.371094 178.523438 217.078125 178.398438 216.757812 178.332031 Z M 216.757812 178.332031 " fill-opacity="1" fill-rule="nonzero"/></g></g></g></g><g clip-path="url(#eb71529639)"><g clip-path="url(#b78fdfbdbe)"><g clip-path="url(#77ced8deaa)"><g clip-path="url(#0e1563880b)"><path fill="#000000" d="M 62.566406 193.871094 C 62.246094 193.804688 61.925781 193.804688 61.605469 193.863281 C 61.285156 193.921875 60.992188 194.042969 60.71875 194.21875 C 60.445312 194.398438 60.21875 194.621094 60.035156 194.890625 C 59.851562 195.160156 59.726562 195.453125 59.660156 195.769531 C 59.59375 196.089844 59.589844 196.410156 59.648438 196.726562 C 59.710938 197.046875 59.828125 197.34375 60.007812 197.617188 C 60.1875 197.886719 60.410156 198.117188 60.679688 198.300781 C 60.949219 198.484375 61.242188 198.609375 61.5625 198.675781 L 207.667969 229.238281 C 207.984375 229.304688 208.304688 229.304688 208.625 229.246094 C 208.945312 229.1875 209.242188 229.066406 209.515625 228.890625 C 209.785156 228.710938 210.015625 228.488281 210.199219 228.21875 C 210.382812 227.949219 210.507812 227.65625 210.574219 227.339844 C 210.640625 227.019531 210.644531 226.699219 210.582031 226.382812 C 210.523438 226.0625 210.402344 225.765625 210.222656 225.492188 C 210.046875 225.222656 209.820312 224.992188 209.554688 224.808594 C 209.285156 224.625 208.988281 224.5 208.671875 224.433594 Z M 62.566406 193.871094 " fill-opacity="1" fill-rule="nonzero"/></g></g></g></g><g clip-path="url(#7886de9579)"><g clip-path="url(#6068a6618c)"><g clip-path="url(#d1a1aaf330)"><g clip-path="url(#cceea697d7)"><path fill="#000000" d="M 58.703125 212.339844 C 58.382812 212.269531 58.066406 212.269531 57.746094 212.328125 C 57.425781 212.386719 57.128906 212.507812 56.855469 212.683594 C 56.582031 212.863281 56.355469 213.085938 56.171875 213.355469 C 55.988281 213.625 55.863281 213.917969 55.796875 214.234375 C 55.730469 214.554688 55.726562 214.875 55.789062 215.191406 C 55.847656 215.511719 55.96875 215.808594 56.144531 216.082031 C 56.324219 216.355469 56.546875 216.582031 56.816406 216.765625 C 57.085938 216.949219 57.378906 217.074219 57.699219 217.140625 L 162.902344 239.144531 C 163.21875 239.210938 163.539062 239.214844 163.859375 239.15625 C 164.179688 239.09375 164.476562 238.976562 164.75 238.796875 C 165.019531 238.621094 165.25 238.398438 165.433594 238.128906 C 165.617188 237.859375 165.742188 237.566406 165.808594 237.246094 C 165.875 236.929688 165.878906 236.609375 165.816406 236.289062 C 165.757812 235.96875 165.636719 235.675781 165.460938 235.402344 C 165.28125 235.128906 165.058594 234.902344 164.789062 234.71875 C 164.519531 234.535156 164.226562 234.410156 163.90625 234.34375 Z M 58.703125 212.339844 " fill-opacity="1" fill-rule="nonzero"/></g></g></g></g><g clip-path="url(#33116bbd48)"><g clip-path="url(#6d4cd23d83)"><g clip-path="url(#83d02babf4)"><g clip-path="url(#26090ef87a)"><path fill="#000000" d="M 234.414062 251.597656 C 234.34375 251.917969 234.34375 252.234375 234.402344 252.554688 C 234.464844 252.875 234.582031 253.171875 234.761719 253.441406 C 234.941406 253.714844 235.164062 253.941406 235.433594 254.125 C 235.703125 254.308594 235.996094 254.433594 236.316406 254.5 L 288.542969 265.425781 C 288.863281 265.492188 289.179688 265.496094 289.5 265.4375 C 289.820312 265.375 290.117188 265.257812 290.390625 265.078125 C 290.664062 264.902344 290.890625 264.675781 291.074219 264.410156 C 291.257812 264.140625 291.382812 263.847656 291.449219 263.527344 L 295.3125 245.0625 C 295.378906 244.746094 295.382812 244.425781 295.320312 244.105469 C 295.261719 243.785156 295.140625 243.492188 294.964844 243.21875 C 294.785156 242.945312 294.5625 242.71875 294.292969 242.535156 C 294.023438 242.351562 293.730469 242.226562 293.410156 242.160156 L 241.179688 231.234375 C 240.863281 231.167969 240.542969 231.164062 240.222656 231.226562 C 239.902344 231.285156 239.605469 231.402344 239.335938 231.582031 C 239.0625 231.761719 238.832031 231.984375 238.648438 232.253906 C 238.464844 232.519531 238.339844 232.8125 238.273438 233.132812 Z M 242.570312 236.585938 L 289.992188 246.507812 L 287.144531 260.121094 L 239.722656 250.203125 Z M 242.570312 236.585938 " fill-opacity="1" fill-rule="nonzero"/></g></g></g></g><g clip-path="url(#5036801e67)"><g clip-path="url(#cfc288593d)"><g clip-path="url(#f67d04d278)"><g clip-path="url(#6c5960593c)"><path fill="#000000" d="M 319.265625 130.550781 C 319.332031 130.234375 319.335938 129.914062 319.273438 129.59375 C 319.214844 129.273438 319.09375 128.980469 318.914062 128.707031 C 318.738281 128.433594 318.515625 128.207031 318.246094 128.023438 C 317.976562 127.839844 317.679688 127.714844 317.363281 127.648438 L 265.132812 116.722656 C 264.816406 116.65625 264.496094 116.652344 264.175781 116.714844 C 263.855469 116.773438 263.558594 116.894531 263.285156 117.070312 C 263.015625 117.25 262.785156 117.472656 262.601562 117.742188 C 262.417969 118.007812 262.292969 118.304688 262.226562 118.621094 C 262.160156 118.941406 262.15625 119.257812 262.21875 119.578125 C 262.277344 119.898438 262.398438 120.195312 262.578125 120.464844 C 262.753906 120.738281 262.980469 120.964844 263.246094 121.148438 C 263.515625 121.332031 263.8125 121.457031 264.128906 121.527344 L 316.359375 132.449219 C 316.675781 132.515625 316.996094 132.519531 317.316406 132.460938 C 317.636719 132.398438 317.933594 132.28125 318.207031 132.101562 C 318.476562 131.925781 318.707031 131.703125 318.890625 131.433594 C 319.074219 131.164062 319.199219 130.871094 319.265625 130.550781 Z M 319.265625 130.550781 " fill-opacity="1" fill-rule="nonzero"/></g></g></g></g></svg>