<svg xmlns="http://www.w3.org/2000/svg" xmlns:xlink="http://www.w3.org/1999/xlink" width="500" zoomAndPan="magnify" viewBox="0 0 375 374.999991" height="500" preserveAspectRatio="xMidYMid meet" version="1.0"><path fill="#000000" d="M 193.300781 38.050781 C 195.382812 38.601562 196.925781 39.546875 198.664062 40.796875 C 199.511719 41.324219 200.183594 41.554688 201.152344 41.765625 C 201.972656 41.949219 202.539062 42.089844 203.214844 42.59375 C 203.574219 42.9375 203.929688 43.285156 204.28125 43.632812 C 205.140625 44.34375 206.082031 44.8125 207.074219 45.304688 C 209.523438 46.554688 211.5 48.089844 213.105469 50.355469 C 214.359375 52.394531 215.019531 54.425781 215.421875 56.769531 C 215.65625 57.695312 216.191406 58.367188 216.734375 59.140625 C 216.820312 59.867188 216.789062 60.375 216.59375 61.074219 C 216.394531 61.949219 216.34375 62.8125 216.285156 63.707031 L 216.210938 64.746094 C 216.144531 65.742188 216.144531 65.742188 216.203125 66.679688 C 216.160156 67.480469 216.160156 67.480469 215.792969 68.046875 L 215.316406 68.523438 C 214.800781 69.039062 214.472656 69.394531 214.210938 70.082031 L 214.148438 70.640625 L 214.578125 71.378906 C 215.015625 72.382812 215.070312 72.828125 215.011719 73.894531 C 214.792969 75.554688 214.269531 76.769531 213.285156 78.117188 C 210.363281 81.699219 210.363281 81.699219 208.671875 82.378906 L 208.117188 82.5 L 207.558594 82.632812 C 206.96875 82.71875 206.96875 82.71875 206.246094 82.652344 L 205.53125 82.71875 C 204.925781 83.253906 204.925781 83.253906 204.417969 83.992188 L 203.828125 84.789062 L 203.234375 85.59375 L 202.648438 86.289062 C 201.664062 87.433594 201.664062 87.433594 201.035156 88.789062 C 200.933594 89.394531 200.933594 89.394531 200.933594 90.191406 L 201.796875 90.765625 L 201.796875 91.34375 L 202.371094 91.34375 C 203.132812 92.777344 203.644531 94.238281 204.125 95.777344 C 204.503906 96.953125 204.882812 98.054688 205.53125 99.105469 C 206.785156 100.152344 208.074219 100.527344 209.625 100.917969 C 212.550781 101.726562 215.292969 102.910156 218.0625 104.136719 L 218.703125 104.417969 C 222.640625 106.152344 226.4375 107.925781 229.085938 111.46875 C 231.207031 114.761719 232.84375 118.304688 234.289062 121.9375 C 234.960938 123.578125 235.800781 124.980469 236.824219 126.421875 C 237.945312 128.023438 238.878906 129.703125 239.820312 131.410156 C 241.3125 134.109375 242.96875 136.605469 244.78125 139.09375 C 245.722656 140.417969 246.578125 141.800781 247.441406 143.175781 C 247.761719 143.679688 248.09375 144.175781 248.429688 144.667969 C 250.195312 147.308594 251.976562 150.21875 252.429688 153.421875 C 252.511719 155.140625 252.078125 156.488281 251.378906 158.042969 C 250.414062 159.828125 249.136719 161.316406 247.648438 162.675781 C 245.601562 164.652344 244.179688 167.464844 242.925781 169.992188 C 241.253906 173.117188 238.503906 175.683594 236.050781 178.203125 L 235.539062 178.738281 C 234.132812 180.148438 232.570312 181.273438 230.640625 181.832031 L 229.964844 181.992188 C 228.476562 182.402344 227.519531 183.175781 226.359375 184.167969 C 225.222656 185.132812 224.003906 185.964844 222.765625 186.792969 L 222.1875 187.183594 C 221.671875 187.511719 221.671875 187.511719 220.753906 187.941406 C 219.714844 187.890625 218.835938 187.488281 217.882812 187.078125 C 217.265625 187.859375 217.265625 187.859375 217.234375 188.597656 L 217.230469 189.375 L 217.21875 190.257812 L 217.222656 191.21875 L 217.21875 192.210938 C 217.214844 192.90625 217.214844 193.601562 217.21875 194.296875 C 217.21875 195.347656 217.210938 196.398438 217.203125 197.449219 C 217.191406 201.949219 217.191406 201.949219 217.960938 206.363281 C 218.320312 207.804688 218.40625 209.265625 218.511719 210.742188 L 218.582031 211.683594 C 218.722656 213.667969 218.765625 215.628906 218.734375 217.617188 C 218.710938 219.761719 219.003906 221.851562 219.457031 223.941406 C 219.859375 225.8125 220.039062 227.648438 220.164062 229.554688 C 220.554688 234.855469 221.363281 240.0625 222.273438 245.292969 C 222.757812 248.117188 223.101562 250.847656 223.019531 253.710938 C 222.957031 256.058594 223.0625 257.984375 223.875 260.203125 C 224.3125 261.609375 224.519531 263.019531 224.738281 264.46875 C 225.578125 269.769531 226.761719 274.878906 228.539062 279.941406 C 229.628906 283.132812 230.234375 286.398438 230.808594 289.714844 L 231.003906 290.765625 C 231.382812 292.984375 231.550781 295.230469 231.707031 297.476562 C 231.832031 299.101562 232.058594 300.683594 232.359375 302.285156 C 232.730469 304.28125 232.988281 306.28125 233.207031 308.300781 L 233.308594 309.191406 C 233.441406 310.40625 233.578125 311.621094 233.703125 312.835938 C 234.066406 316.394531 234.578125 319.691406 235.886719 323.039062 C 236.519531 324.714844 236.703125 326.164062 236.550781 327.953125 L 236.367188 328.765625 L 236.265625 329.390625 C 237.234375 331.84375 239.269531 334.078125 241.292969 335.734375 C 242.390625 336.519531 243.582031 337.085938 244.792969 337.671875 C 249.964844 340.199219 249.964844 340.199219 251.464844 342.199219 C 252.054688 343.285156 252.332031 344.210938 252.511719 345.4375 C 252.351562 346.351562 252.351562 346.351562 251.867188 347.160156 C 251.15625 347.832031 250.695312 348.097656 249.765625 348.363281 C 244.996094 349.363281 239.988281 348.703125 235.402344 347.214844 C 233.15625 346.464844 231.078125 345.679688 229.445312 343.890625 C 228.875 343.164062 228.398438 342.433594 227.917969 341.644531 C 227.4375 340.886719 227.4375 340.886719 226.847656 340.59375 C 226.355469 340.382812 225.855469 340.203125 225.351562 340.027344 L 225.097656 340.585938 L 224.777344 341.175781 C 224.066406 341.53125 223.457031 341.558594 222.671875 341.546875 C 220.292969 341.292969 217.691406 340.59375 215.585938 339.453125 C 215.136719 338.390625 215.3125 337.332031 215.421875 336.199219 C 215.546875 334.78125 215.613281 333.398438 215.585938 331.976562 L 214.597656 331.796875 C 213.109375 331.425781 211.855469 330.679688 210.703125 329.675781 C 210.195312 328.824219 210.015625 328.066406 209.878906 327.085938 L 209.753906 326.238281 L 209.625 325.328125 C 209.253906 322.902344 208.722656 320.699219 207.863281 318.40625 C 207.308594 316.832031 207.121094 315.386719 207.023438 313.726562 C 206.742188 310.105469 205.855469 306.679688 204.9375 303.175781 C 204.769531 302.515625 204.601562 301.855469 204.433594 301.195312 C 203.371094 297.046875 202.277344 292.910156 201.175781 288.777344 C 200.296875 285.484375 199.453125 282.210938 198.960938 278.835938 C 198.488281 275.648438 197.914062 272.90625 196.511719 270.003906 C 195.414062 267.652344 195.132812 265.183594 194.796875 262.636719 C 194.429688 259.867188 193.777344 257.289062 192.894531 254.640625 L 192.707031 254.078125 C 192.40625 253.167969 192.101562 252.261719 191.792969 251.351562 C 191.246094 249.683594 190.761719 248 190.308594 246.304688 L 190.089844 245.5 C 188.253906 238.648438 186.683594 231.574219 186.167969 224.484375 C 186.128906 223.996094 186.066406 223.503906 186 223.015625 L 185.425781 222.726562 L 185.457031 223.410156 C 185.558594 225.550781 185.660156 227.691406 185.761719 229.828125 C 185.8125 230.929688 185.867188 232.027344 185.917969 233.128906 C 185.96875 234.191406 186.019531 235.257812 186.070312 236.320312 L 186.125 237.53125 C 186.242188 239.875 186.296875 242.214844 186.285156 244.5625 C 186.285156 245.601562 186.332031 246.625 186.402344 247.660156 L 186.476562 248.777344 L 186.554688 249.898438 L 186.632812 251.042969 C 186.753906 253 186.753906 253 187.015625 254.9375 C 187.15625 255.832031 187.167969 256.652344 187.144531 257.558594 C 187.085938 261.316406 187.097656 264.789062 188.011719 268.441406 C 188.5 270.5625 188.925781 272.664062 189.15625 274.832031 L 189.230469 275.511719 C 189.476562 277.835938 189.65625 280.164062 189.824219 282.496094 C 189.914062 283.71875 190.007812 284.945312 190.101562 286.167969 L 190.15625 286.886719 C 190.292969 288.667969 190.429688 290.449219 190.59375 292.230469 L 190.644531 292.851562 C 190.753906 293.96875 190.984375 294.984375 191.304688 296.058594 C 191.820312 297.871094 191.976562 299.679688 192.128906 301.550781 C 192.367188 304.519531 192.683594 307.4375 193.285156 310.355469 C 193.703125 312.480469 193.761719 314.578125 193.71875 316.738281 C 193.707031 318.050781 193.808594 319.148438 194.167969 320.40625 C 194.589844 321.914062 194.773438 323.375 194.886719 324.933594 L 194.945312 325.613281 C 194.984375 326.253906 194.984375 326.253906 194.902344 327.378906 C 194.324219 328.046875 194.324219 328.046875 193.753906 328.527344 C 193.808594 329.410156 193.808594 329.410156 193.933594 330.054688 C 194.082031 331.101562 194.125 332.144531 194.148438 333.199219 L 194.183594 333.808594 C 194.191406 334.390625 194.191406 334.390625 194.042969 335.425781 C 193.320312 336.238281 192.753906 336.527344 191.726562 336.867188 C 186.851562 337.84375 186.851562 337.84375 184.5625 337.726562 C 183.613281 337.152344 183.613281 337.152344 182.839844 336.578125 C 181.910156 336.4375 181.144531 336.574219 180.253906 336.863281 C 179.417969 337.324219 178.636719 337.832031 177.847656 338.367188 C 174.078125 340.925781 169.1875 341.574219 164.742188 342.039062 C 163.324219 342.132812 161.910156 342.171875 160.488281 342.183594 L 159.488281 342.199219 C 157.332031 342.183594 155.488281 341.847656 153.542969 340.890625 L 152.96875 340.316406 C 152.867188 339.09375 152.878906 338.273438 153.273438 337.117188 C 154.53125 335.246094 156.210938 334.28125 158.207031 333.28125 C 159.515625 332.660156 160.839844 332.242188 162.230469 331.851562 C 164.640625 331.164062 166.164062 330.003906 167.894531 328.238281 C 168.378906 327.675781 168.746094 327.1875 169.050781 326.515625 C 168.996094 325.5 168.996094 325.5 168.832031 324.847656 C 168.746094 324.019531 168.949219 323.425781 169.195312 322.632812 C 169.539062 321.484375 169.710938 320.59375 169.492188 319.386719 C 169.375 318.898438 169.25 318.410156 169.125 317.921875 C 168.367188 314.910156 168.378906 312.152344 168.621094 309.066406 C 168.671875 308.367188 168.71875 307.667969 168.765625 306.964844 L 168.808594 306.332031 C 168.964844 303.570312 168.878906 301.414062 167.738281 298.847656 C 166.921875 296.882812 166.691406 294.871094 166.429688 292.769531 C 166.066406 289.832031 165.605469 286.988281 164.914062 284.113281 C 164.554688 282.582031 164.230469 281.046875 163.902344 279.507812 L 163.679688 278.476562 C 163.105469 275.78125 162.574219 273.078125 162.082031 270.367188 C 161.839844 269.050781 161.574219 267.792969 161.144531 266.523438 C 160.554688 264.640625 160.441406 262.6875 160.265625 260.730469 C 159.890625 256.578125 159.367188 252.445312 158.695312 248.332031 L 158.46875 246.933594 L 158.140625 244.925781 C 157.128906 238.734375 156.582031 232.503906 156.046875 226.261719 C 155.9375 224.972656 155.820312 223.6875 155.683594 222.398438 C 155.183594 217.5 155.113281 212.597656 155.050781 207.679688 C 155.039062 206.699219 155.023438 205.71875 155.003906 204.738281 C 154.898438 199.296875 154.9375 193.902344 155.351562 188.472656 L 155.402344 187.769531 C 155.765625 182.976562 156.632812 178.605469 158.785156 174.265625 C 159.421875 172.886719 159.875 171.714844 159.785156 170.183594 C 159.605469 169.503906 159.605469 169.503906 159.066406 168.9375 C 158.453125 168.386719 158.453125 168.386719 157.808594 167.925781 C 157.277344 167.527344 157.277344 167.527344 156.988281 166.953125 C 156.8125 165.308594 157.230469 164.160156 157.886719 162.652344 C 158.511719 160.480469 158.054688 158.160156 157.761719 155.957031 L 157.644531 155.058594 C 157.261719 152.121094 156.84375 149.1875 156.414062 146.253906 C 155.339844 146.753906 154.714844 147.359375 153.902344 148.230469 C 151.28125 150.9375 148.265625 153.453125 144.636719 154.589844 C 144.253906 154.734375 143.871094 154.882812 143.488281 155.027344 C 140.921875 156.003906 138.480469 156.90625 135.699219 156.460938 C 134.433594 155.800781 133.382812 154.921875 132.285156 154.015625 L 131.519531 153.410156 C 126.25 149.207031 121.894531 143.917969 119.320312 137.644531 C 118.191406 134.699219 117.378906 131.628906 116.503906 128.605469 C 116.203125 127.578125 115.902344 126.550781 115.589844 125.53125 L 115.324219 124.648438 C 115.054688 123.832031 114.734375 123.054688 114.386719 122.265625 C 114.046875 121.421875 113.902344 120.945312 113.886719 120.019531 C 114.175781 119.269531 114.421875 118.917969 114.945312 118.332031 L 115.628906 117.503906 C 115.613281 116.917969 115.613281 116.917969 115.339844 116.355469 C 114.933594 115.871094 114.933594 115.871094 114.425781 115.425781 C 113.308594 114.359375 112.453125 113.191406 111.585938 111.917969 C 109.597656 108.800781 109.597656 108.800781 107.027344 106.203125 C 105.445312 104.867188 104.316406 103.148438 103.550781 101.226562 L 103.292969 100.507812 C 102.785156 99.128906 102.023438 98.25 101.019531 97.195312 C 100.359375 96.46875 99.8125 95.707031 99.253906 94.898438 C 98.527344 93.863281 97.820312 93.066406 96.832031 92.277344 C 96.261719 91.808594 96.261719 91.808594 95.808594 91.34375 C 95.46875 90.28125 95.46875 90.28125 95.519531 89.328125 C 95.796875 88.9375 96.082031 88.554688 96.382812 88.179688 C 96.246094 87.078125 95.882812 86.0625 95.519531 85.015625 C 94.203125 81.214844 94.207031 76.695312 94.835938 72.734375 C 95.410156 70.289062 96.476562 68.507812 98.105469 66.617188 L 98.738281 65.863281 C 101.683594 62.472656 105.03125 59.789062 109.273438 58.191406 C 112.042969 57.289062 115.40625 57.378906 118.257812 57.882812 C 122.042969 58.800781 125.625 60.597656 128.550781 63.167969 L 129.136719 63.640625 C 132.089844 66.074219 134.257812 69.332031 135.773438 72.832031 C 137.066406 76.476562 136.925781 81.042969 136.414062 84.835938 C 135.753906 88.066406 134.453125 90.875 132.285156 93.355469 L 131.710938 94.21875 L 132.394531 94.46875 C 133.148438 94.792969 133.148438 94.792969 133.722656 95.367188 C 133.820312 96.230469 133.871094 96.832031 133.722656 97.667969 C 132.921875 98.800781 131.898438 99.351562 130.726562 100.074219 C 129.378906 100.910156 128.238281 101.761719 127.402344 103.128906 C 127.148438 103.644531 127.148438 103.644531 127.117188 104.28125 C 127.285156 104.96875 127.476562 105.652344 127.691406 106.328125 C 128.132812 107.871094 128.429688 109.242188 128.175781 110.847656 C 127.839844 111.898438 127.234375 112.625 126.542969 113.480469 L 126.542969 114.054688 L 127.691406 114.34375 L 127.691406 114.917969 L 128.550781 115.203125 C 128.996094 115.8125 128.996094 115.8125 129.46875 116.605469 C 130.363281 118.070312 131.332031 119.453125 132.355469 120.828125 C 132.859375 121.527344 132.859375 121.527344 133.417969 122.464844 C 134.140625 123.429688 134.988281 124.035156 135.949219 124.753906 C 137.214844 125.757812 138.1875 126.882812 138.855469 128.355469 C 139.179688 129.292969 139.179688 129.292969 139.179688 130.152344 L 140.902344 130.441406 L 141.140625 129.800781 C 141.457031 129.050781 141.808594 128.449219 142.269531 127.78125 L 142.738281 127.097656 L 143.238281 126.378906 L 143.746094 125.640625 C 144.636719 124.351562 145.546875 123.085938 146.488281 121.835938 C 147.40625 120.585938 148.082031 119.296875 148.746094 117.898438 C 149.660156 116.078125 150.71875 114.34375 151.769531 112.601562 C 152.0625 112.113281 152.351562 111.621094 152.636719 111.128906 C 154.414062 108.160156 156.808594 105.789062 159.792969 104.019531 C 161.992188 102.84375 164.480469 102.292969 166.867188 101.621094 C 168.402344 101.175781 169.882812 100.609375 171.351562 99.96875 L 172.117188 99.628906 C 172.78125 99.304688 173.355469 98.984375 173.933594 98.53125 C 174.460938 97.632812 174.71875 96.820312 174.976562 95.820312 C 175.332031 94.488281 175.640625 93.550781 176.59375 92.527344 L 177.0625 92.082031 L 177.382812 91.628906 C 177.359375 91.027344 177.359375 91.027344 177.09375 90.480469 L 176.449219 89.886719 C 174.402344 87.945312 173.644531 84.449219 172.785156 81.855469 C 172.539062 80.996094 172.453125 80.214844 172.429688 79.320312 L 172.398438 78.527344 C 172.382812 77.980469 172.367188 77.429688 172.351562 76.882812 C 172.300781 75.519531 172.191406 74.488281 171.636719 73.230469 C 171.5 72.429688 171.386719 71.644531 171.296875 70.839844 L 171.214844 70.210938 C 171.042969 68.761719 171.085938 67.480469 171.351562 66.042969 C 171.871094 65.339844 171.871094 65.339844 172.5 64.890625 C 172.878906 64.785156 173.261719 64.6875 173.648438 64.605469 C 174.402344 62.085938 174.847656 59.785156 174.867188 57.148438 C 174.925781 54.636719 175.464844 52.605469 176.671875 50.398438 C 177.492188 49.085938 178.613281 48.339844 179.917969 47.542969 L 180.542969 47.066406 C 180.773438 46.5 180.773438 46.5 180.738281 45.917969 L 180.542969 45.054688 L 181.976562 44.765625 L 181.980469 44.210938 C 182.027344 43.1875 182.097656 42.257812 182.527344 41.324219 C 183.617188 39.863281 185.261719 38.972656 186.902344 38.25 C 189.007812 37.441406 191.125 37.644531 193.300781 38.050781 M 220.46875 145.964844 C 219.417969 148.382812 218.53125 150.824219 217.722656 153.332031 C 215.660156 159.691406 215.660156 159.691406 215.011719 160.339844 C 215 161.011719 215 161.683594 215.011719 162.355469 L 215.585938 162.355469 L 215.855469 163.054688 C 216.089844 163.761719 216.089844 163.761719 216.445312 164.078125 C 216.632812 164.976562 216.648438 165.769531 216.445312 166.667969 C 215.648438 167.675781 214.683594 168.433594 213.515625 168.96875 L 213 169.253906 L 212.710938 170.117188 L 213.285156 170.980469 C 213.878906 171.1875 213.878906 171.1875 214.433594 171.265625 C 214.78125 170.597656 215.058594 169.972656 215.296875 169.253906 L 216.175781 168.535156 L 217.019531 167.816406 L 217.019531 166.953125 L 217.523438 166.863281 C 218.273438 166.636719 218.738281 166.324219 219.320312 165.804688 L 219.320312 165.230469 L 219.964844 165.03125 C 220.773438 164.699219 220.773438 164.699219 221.328125 164.078125 C 221.832031 163.320312 222.179688 162.621094 222.550781 161.796875 C 222.933594 160.984375 223.222656 160.441406 223.910156 159.863281 L 224.523438 159.460938 C 225.21875 159 225.582031 158.722656 225.964844 157.976562 C 226.175781 157.335938 226.355469 156.6875 226.5 156.027344 L 226.660156 155.410156 C 226.808594 154.875 226.808594 154.875 226.785156 154.304688 L 227.359375 154.304688 C 227.171875 153.265625 227.171875 153.265625 226.785156 152.292969 L 225.941406 151.914062 L 225.0625 151.429688 C 224.738281 150.765625 224.738281 150.765625 224.488281 149.992188 C 223.960938 149.046875 223.960938 149.046875 223.339844 148.265625 L 222.476562 148.265625 L 222.28125 147.761719 C 221.808594 146.953125 221.203125 146.53125 220.46875 145.964844 " fill-opacity="1" fill-rule="nonzero"/><path fill="#fdfdfd" d="M 200.359375 91.628906 C 201.03125 91.921875 201.03125 91.921875 201.796875 92.492188 C 202.128906 93.261719 202.371094 93.9375 202.585938 94.738281 L 202.769531 95.347656 C 202.933594 95.925781 203.089844 96.507812 203.234375 97.09375 L 203.488281 97.976562 C 203.519531 98.816406 203.519531 98.816406 203.058594 99.824219 C 202.421875 100.820312 201.664062 101.699219 200.847656 102.554688 L 200.402344 103.027344 C 199.164062 104.335938 197.898438 105.625 196.628906 106.902344 L 196.074219 107.460938 C 194.222656 109.304688 194.222656 109.304688 193.46875 109.742188 L 192.605469 109.453125 C 192.386719 108.738281 192.199219 108.015625 192.050781 107.28125 C 191.65625 105.558594 191.222656 104.082031 190.308594 102.554688 L 189.734375 101.980469 C 188.871094 101.882812 188.871094 101.882812 188.011719 101.980469 L 187.433594 102.554688 L 188.226562 102.464844 L 189.160156 102.554688 C 189.761719 103.128906 189.761719 103.128906 190.308594 103.992188 C 190.539062 104.777344 190.648438 105.570312 190.757812 106.382812 C 190.992188 108.09375 191.375 109.574219 192.03125 111.179688 C 192.835938 111.277344 192.835938 111.277344 193.753906 111.179688 C 194.476562 110.699219 194.476562 110.699219 195.109375 110.003906 L 195.851562 109.246094 L 196.609375 108.449219 L 197.363281 107.675781 C 198.796875 106.203125 200.167969 104.6875 201.511719 103.128906 C 201.980469 102.601562 202.453125 102.074219 202.929688 101.546875 L 203.601562 100.800781 L 204.09375 100.253906 C 205.085938 100.648438 206.074219 101.058594 207.058594 101.476562 C 208.433594 102.054688 209.824219 102.589844 211.222656 103.113281 C 221.613281 106.988281 221.613281 106.988281 224.777344 109.742188 L 225.480469 110.324219 C 228.882812 113.230469 230.875 116.96875 232.367188 121.136719 C 233.1875 123.421875 234.15625 125.214844 235.65625 127.125 C 236.613281 128.359375 237.351562 129.605469 238.023438 131.015625 C 240.191406 135.558594 243.003906 139.652344 246.03125 143.664062 C 248.222656 146.574219 250.324219 149.625 250.894531 153.316406 C 251.03125 154.949219 250.566406 156.238281 249.929688 157.726562 C 249.078125 159.40625 247.941406 160.710938 246.652344 162.0625 C 244.671875 164.144531 243.15625 166.167969 241.722656 168.679688 C 240.320312 171.109375 238.679688 173.089844 236.738281 175.09375 C 236.253906 175.589844 235.777344 176.09375 235.304688 176.597656 C 231.992188 180.0625 231.992188 180.0625 229.945312 180.753906 C 228.851562 180.933594 228.851562 180.933594 227.933594 180.753906 C 227.269531 180.054688 227.269531 180.054688 226.785156 179.316406 L 226.210938 179.027344 L 226.644531 179.800781 C 227.074219 180.753906 227.074219 180.753906 227.238281 181.425781 L 227.074219 182.191406 C 226.410156 182.867188 225.644531 183.382812 224.867188 183.917969 C 223.480469 184.894531 222.199219 185.835938 221.042969 187.078125 C 219.921875 186.613281 219.113281 185.851562 218.242188 185.03125 L 217.777344 184.597656 C 217.472656 184.308594 217.164062 184.019531 216.859375 183.730469 C 216.519531 183.410156 216.171875 183.09375 215.820312 182.785156 C 214.488281 181.546875 213.449219 180.136719 212.40625 178.652344 L 211.96875 178.035156 L 211.570312 177.449219 L 211.210938 176.925781 L 210.988281 176.441406 L 211.277344 175.578125 C 211.742188 175.175781 212.222656 174.785156 212.710938 174.410156 C 213.894531 173.480469 214.851562 172.539062 215.800781 171.375 C 216.421875 170.648438 216.421875 170.648438 217.019531 170.117188 C 217.628906 170 217.628906 170 218.1875 170.082031 L 219.03125 170.402344 L 218.742188 169.828125 C 218.632812 168.867188 218.632812 168.867188 218.742188 167.816406 C 219.382812 167.132812 219.382812 167.132812 220.234375 166.539062 C 221.65625 165.464844 222.554688 164.519531 223.339844 162.929688 L 223.769531 161.90625 C 224.203125 161.109375 224.589844 160.855469 225.378906 160.363281 C 226.050781 160 226.730469 159.664062 227.417969 159.328125 L 228.222656 158.902344 L 228.511719 158.328125 L 226.785156 158.617188 C 226.695312 158.042969 226.695312 158.042969 226.785156 157.179688 C 227.140625 156.292969 227.550781 155.5625 228.222656 154.878906 C 229.042969 154.59375 229.636719 154.589844 230.519531 154.589844 L 230.519531 154.015625 L 228.796875 153.730469 C 228.953125 153.195312 228.953125 153.195312 229.371094 152.578125 C 230.050781 152.320312 230.746094 152.109375 231.453125 151.949219 L 232.023438 151.808594 C 233.742188 151.386719 235.375 151.105469 237.144531 151.113281 L 238.109375 151.117188 L 239.101562 151.125 L 240.117188 151.128906 C 240.9375 151.132812 241.761719 151.136719 242.585938 151.140625 L 242.296875 150.566406 C 239.539062 149.714844 236.4375 149.828125 233.628906 150.40625 C 232.816406 150.597656 232.011719 150.804688 231.210938 151.035156 C 230.082031 151.355469 229.105469 151.601562 227.933594 151.429688 C 226.324219 150.382812 225.390625 148.917969 224.34375 147.332031 L 223.871094 146.628906 C 223.558594 146.160156 223.25 145.695312 222.941406 145.226562 C 222.628906 144.757812 222.316406 144.292969 222.003906 143.828125 C 219.273438 139.789062 217.675781 135.019531 217.308594 130.152344 C 217.265625 129.304688 217.246094 128.453125 217.234375 127.601562 L 217.226562 127 C 217.238281 125.40625 217.449219 123.835938 218.167969 122.390625 L 217.308594 122.679688 C 215.75 126.035156 216.078125 130.089844 216.375 133.695312 L 216.445312 134.464844 L 215.871094 134.464844 L 213.574219 128.429688 L 213.285156 128.429688 C 213.722656 130.804688 214.371094 132.8125 215.523438 134.9375 C 215.871094 135.617188 215.871094 135.617188 215.871094 136.191406 L 217.019531 136.480469 L 217.59375 138.777344 L 216.734375 138.777344 L 216.160156 137.917969 L 215.296875 137.628906 C 215.578125 138.457031 215.578125 138.457031 216.160156 139.355469 C 216.886719 139.910156 217.652344 140.359375 218.457031 140.792969 C 218.300781 141.890625 218.027344 142.558594 217.34375 143.433594 C 213.730469 147.851562 208.703125 150.914062 203.808594 153.730469 L 202.984375 154.207031 C 201.308594 155.167969 201.308594 155.167969 200.648438 155.167969 L 200.648438 155.742188 C 206.5625 153.1875 212.117188 150.191406 216.601562 145.488281 C 217.230469 144.890625 217.6875 144.597656 218.457031 144.242188 C 218.324219 146.363281 217.914062 148.300781 217.308594 150.332031 L 217.046875 151.226562 C 216.300781 153.699219 215.394531 156.097656 214.390625 158.476562 C 213.949219 159.542969 213.59375 160.460938 213.453125 161.613281 C 213.527344 162.351562 213.527344 162.351562 213.898438 162.902344 L 214.308594 163.359375 C 214.699219 163.871094 214.699219 163.871094 215.011719 164.367188 L 215.117188 165.230469 C 214.601562 166.355469 213.957031 166.871094 212.957031 167.582031 C 209.191406 169.976562 209.191406 169.976562 207.15625 170.242188 C 206.410156 170.242188 205.695312 170.210938 204.957031 170.117188 L 204.667969 169.253906 C 204.027344 169.269531 204.027344 169.269531 203.234375 169.542969 C 202.917969 169.808594 202.613281 170.082031 202.316406 170.367188 C 201.347656 171.230469 200.503906 171.636719 199.25 171.960938 C 195.1875 172.722656 191.285156 172.964844 187.21875 172.148438 C 183.945312 171.527344 180.710938 171.324219 177.382812 171.265625 C 176.894531 169.574219 176.714844 168.066406 176.734375 166.308594 L 176.738281 165.582031 C 176.761719 163.996094 176.898438 162.480469 177.226562 160.925781 C 177.644531 158.570312 177.707031 156.210938 177.675781 153.828125 L 177.664062 152.085938 L 177.660156 151.179688 C 177.621094 145.964844 177.660156 140.808594 178.242188 135.617188 C 175.65625 140.796875 176.738281 150.175781 176.84375 155.878906 C 176.863281 157.792969 176.683594 159.574219 176.363281 161.457031 C 176.171875 162.785156 176.160156 164.089844 176.179688 165.425781 L 176.179688 166.175781 C 176.191406 167.886719 176.324219 169.566406 176.519531 171.265625 C 174.207031 172.039062 171.078125 171.824219 168.707031 171.347656 C 167.660156 171.074219 166.628906 170.761719 165.605469 170.402344 L 164.601562 170.058594 C 162.578125 169.316406 160.453125 168.523438 158.792969 167.109375 L 158.425781 166.667969 C 158.285156 165.675781 158.324219 164.914062 158.683594 163.972656 L 159 163.253906 C 159.601562 161.832031 159.753906 160.71875 159.574219 159.191406 C 159.488281 158.722656 159.398438 158.257812 159.304688 157.789062 C 159.019531 156.359375 158.929688 154.96875 158.875 153.511719 C 158.792969 151.539062 158.601562 149.613281 158.316406 147.65625 C 157.859375 144.433594 157.605469 141.199219 157.367188 137.953125 L 157.308594 137.195312 C 156.941406 132.359375 156.882812 127.648438 157.324219 122.816406 C 157.382812 122.171875 157.4375 121.527344 157.492188 120.882812 C 157.710938 118.394531 158.007812 115.941406 158.425781 113.480469 L 157.851562 113.480469 L 157.742188 114.289062 C 157.496094 116.023438 157.15625 117.742188 156.832031 119.464844 C 156.546875 121.011719 156.304688 122.550781 156.128906 124.117188 L 155.550781 124.117188 C 154.832031 121.625 154.226562 119.25 154.117188 116.640625 L 153.542969 116.640625 C 153.910156 121.207031 153.910156 121.207031 155.15625 125.574219 C 156.34375 128.746094 156.09375 132.28125 156.113281 135.628906 C 156.125 136.710938 156.160156 137.789062 156.199219 138.871094 C 156.21875 139.511719 156.234375 140.152344 156.253906 140.792969 L 156.292969 141.675781 C 156.304688 142.46875 156.285156 143.175781 156.128906 143.953125 C 155.664062 144.765625 155.101562 145.355469 154.402344 145.964844 C 154.183594 146.160156 153.964844 146.355469 153.738281 146.554688 L 153.09375 147.042969 C 152.25 147.695312 151.425781 148.351562 150.628906 149.054688 C 147.863281 151.488281 145.164062 153.011719 141.695312 154.269531 L 140.953125 154.539062 C 139.554688 155.023438 138.382812 155.304688 136.882812 155.167969 C 134.261719 154.40625 131.878906 152.246094 130.03125 150.320312 C 125.148438 145.070312 120.839844 139.300781 119.164062 132.210938 L 119.074219 131.589844 L 119.359375 131.304688 C 120.03125 131.292969 120.703125 131.292969 121.371094 131.304688 L 121.371094 130.730469 L 120.292969 130.691406 C 119.6875 130.671875 119.6875 130.671875 119.074219 130.441406 C 117.882812 129.042969 117.4375 127.414062 116.902344 125.679688 C 116.40625 124.085938 115.949219 122.660156 115.050781 121.242188 L 115.050781 120.378906 L 115.894531 120.683594 C 117.207031 121.050781 118.328125 120.960938 119.648438 120.667969 C 121.953125 120.011719 123.863281 118.765625 125.679688 117.21875 C 126.332031 116.464844 126.53125 116.125 126.738281 115.132812 L 126.828125 114.34375 L 127.691406 114.34375 L 127.871094 115.3125 C 128.410156 117.476562 129.785156 119.257812 131.097656 121.019531 C 131.46875 121.597656 131.6875 122.179688 131.925781 122.824219 C 132.257812 123.613281 132.527344 124.074219 133.160156 124.65625 C 133.609375 124.992188 134.058594 125.324219 134.515625 125.648438 C 136.164062 126.878906 137.132812 128.4375 138.003906 130.277344 C 139.179688 133.027344 139.179688 133.027344 139.179688 134.464844 L 139.753906 134.464844 L 139.46875 131.878906 L 140.617188 132.167969 C 142.167969 134.269531 142.808594 136.988281 143.488281 139.472656 L 143.691406 140.203125 L 143.867188 140.859375 L 144.0625 141.367188 L 144.636719 141.652344 C 144.261719 139.542969 143.726562 137.484375 143.144531 135.421875 C 142.914062 134.464844 142.914062 134.464844 142.914062 133.316406 C 144.324219 133.390625 145.253906 133.554688 146.449219 134.324219 L 147.003906 134.710938 C 147.542969 135.09375 147.542969 135.09375 148.371094 135.328125 L 148.085938 134.464844 L 147.511719 134.179688 L 147.511719 133.605469 L 146.71875 133.351562 C 145.785156 133.027344 145.785156 133.027344 145.238281 132.742188 C 144.585938 132.429688 143.980469 132.277344 143.273438 132.128906 L 142.578125 131.984375 L 142.050781 131.878906 C 142.050781 130.730469 142.050781 130.730469 142.296875 130.234375 L 142.644531 129.742188 L 143.03125 129.183594 L 143.453125 128.589844 L 143.882812 127.972656 C 144.683594 126.835938 145.515625 125.738281 146.390625 124.660156 C 147.679688 123.0625 148.535156 121.546875 149.140625 119.566406 C 149.566406 118.546875 150.125 117.824219 150.800781 116.960938 C 151.515625 115.984375 152.035156 114.914062 152.589844 113.839844 C 154.339844 110.589844 156.519531 108.03125 159.597656 105.929688 C 162.171875 104.394531 164.882812 103.542969 167.761719 102.796875 C 169.324219 102.382812 170.730469 101.824219 172.164062 101.066406 L 172.785156 100.828125 L 173.933594 101.117188 L 173.933594 108.878906 L 175.085938 108.878906 C 175.699219 108.148438 175.699219 108.148438 176.234375 107.191406 L 176.535156 106.679688 C 177.355469 105.269531 178 103.8125 178.53125 102.265625 L 179.050781 102.535156 C 179.707031 102.871094 179.707031 102.871094 180.542969 103.128906 L 179.679688 100.253906 L 177.957031 100.542969 C 177.867188 100.828125 177.777344 101.117188 177.683594 101.414062 C 176.476562 105.1875 176.476562 105.1875 175.371094 106.867188 L 174.796875 106.867188 C 174.78125 106.011719 174.769531 105.152344 174.761719 104.296875 L 174.746094 103.574219 C 174.734375 101.90625 174.953125 100.425781 175.371094 98.816406 L 175.640625 97.679688 L 175.910156 96.605469 L 176.175781 95.523438 C 176.542969 94.4375 176.933594 93.660156 177.667969 92.78125 C 178.460938 92.527344 178.460938 92.527344 179.105469 92.492188 L 179.003906 93.269531 C 178.820312 94.976562 178.664062 96.472656 179.285156 98.097656 C 179.699219 98.992188 180.027344 99.453125 180.738281 100.164062 C 181.109375 100.554688 181.109375 100.554688 181.402344 101.117188 C 181.542969 102.214844 181.585938 103.296875 181.617188 104.402344 C 181.679688 105.289062 181.765625 105.808594 182.15625 106.578125 C 182.550781 107.441406 182.550781 107.441406 182.503906 108.378906 C 182.242188 109.554688 181.761719 110.417969 181.140625 111.429688 C 179.789062 113.800781 179.503906 116.003906 179.304688 118.691406 C 179.261719 119.148438 179.21875 119.605469 179.179688 120.0625 C 179.070312 121.261719 178.972656 122.460938 178.878906 123.660156 C 178.796875 124.671875 178.710938 125.6875 178.625 126.699219 C 178.386719 129.480469 178.164062 132.261719 177.957031 135.042969 L 178.53125 135.042969 C 179.066406 131.136719 179.273438 127.222656 179.453125 123.289062 C 179.671875 118.765625 179.972656 114.523438 182.46875 110.617188 C 182.726562 110.214844 182.988281 109.8125 183.246094 109.410156 C 184.183594 107.945312 184.789062 106.570312 185.136719 104.855469 C 185.394531 103.742188 185.5625 103.023438 186.285156 102.140625 C 187.367188 101.214844 188.464844 100.757812 189.769531 100.21875 C 191.863281 99.3125 193.878906 98.332031 195.855469 97.199219 L 196.523438 96.824219 C 197.972656 95.976562 199.355469 95.011719 200.359375 93.640625 C 200.53125 92.550781 200.53125 92.550781 200.359375 91.628906 " fill-opacity="1" fill-rule="nonzero"/><path fill="#fddcb5" d="M 190.070312 48.453125 C 190.820312 48.5 191.554688 48.503906 192.304688 48.484375 C 194.03125 48.46875 195.675781 48.769531 197.363281 49.097656 L 198.296875 49.253906 C 200.207031 49.621094 201.5 50.179688 202.988281 51.4375 C 203.875 52.300781 204.585938 53.210938 205.242188 54.253906 L 205.699219 54.929688 C 206.140625 55.667969 206.457031 56.296875 206.679688 57.128906 C 206.582031 58.269531 206.296875 59.253906 205.820312 60.292969 L 205.359375 60.886719 C 204.921875 61.410156 204.921875 61.410156 204.832031 62.019531 C 204.828125 63.296875 205 64.253906 205.511719 65.429688 C 206.542969 67.796875 206.457031 70.121094 206.179688 72.648438 L 206.105469 73.230469 C 206.769531 73.460938 206.769531 73.460938 207.542969 73.515625 C 208.121094 73.121094 208.121094 73.121094 208.617188 72.546875 C 209.25 71.953125 209.703125 71.554688 210.523438 71.265625 C 211.191406 71.164062 211.753906 71.128906 212.425781 71.21875 L 213.160156 71.628906 C 213.574219 72.367188 213.574219 72.367188 213.71875 73.410156 C 213.648438 74.898438 213.039062 76.203125 212.425781 77.542969 L 211.851562 77.542969 L 211.636719 78.042969 C 210.945312 79.285156 209.835938 80.167969 208.691406 80.992188 C 207.648438 81.261719 207.648438 81.261719 206.679688 81.28125 C 205.628906 81.300781 205.628906 81.300781 204.667969 81.566406 C 204 82.417969 204 82.417969 203.519531 83.292969 L 202.945312 83.292969 L 202.855469 83.8125 C 202.625 84.550781 202.347656 84.773438 201.796875 85.304688 C 201.453125 85.691406 201.113281 86.082031 200.773438 86.472656 C 200.265625 87.058594 199.761719 87.628906 199.210938 88.179688 L 198.351562 88.179688 L 198.351562 88.753906 L 197.488281 88.753906 L 197.488281 89.328125 C 193.625 90.996094 189.414062 92.628906 185.136719 92.492188 C 182.640625 92.179688 180.289062 91.402344 178.242188 89.90625 L 177.957031 89.042969 L 177.09375 88.753906 C 176.679688 88.054688 176.296875 87.335938 175.945312 86.597656 L 175.636719 85.964844 C 174.070312 82.691406 173.476562 79.746094 173.648438 76.105469 C 173.753906 75.109375 173.871094 74.117188 174 73.125 C 174.160156 71.875 174.261719 70.640625 174.308594 69.382812 C 174.40625 66.828125 174.878906 64.5 175.515625 62.035156 C 175.746094 61.089844 175.914062 60.136719 176.089844 59.179688 C 176.675781 56.21875 177.570312 53.796875 179.394531 51.378906 C 179.570312 51.136719 179.75 50.898438 179.9375 50.648438 C 180.796875 49.644531 181.628906 49.105469 182.816406 48.53125 C 185.085938 47.765625 187.730469 48.257812 190.070312 48.453125 " fill-opacity="1" fill-rule="nonzero"/><path fill="#fed326" d="M 124.140625 61.445312 C 125.226562 62.011719 126.210938 62.621094 127.117188 63.453125 L 127.117188 64.03125 L 127.757812 64.25 C 129.1875 64.886719 130.136719 66.011719 131.136719 67.191406 C 133.269531 70.238281 134.757812 73.308594 135.445312 76.96875 C 135.550781 78.246094 135.554688 79.511719 135.535156 80.792969 L 135.539062 81.777344 C 135.527344 83.4375 135.441406 84.875 134.871094 86.453125 L 134.53125 87.429688 L 134.171875 88.378906 L 133.8125 89.332031 C 133.46875 90.113281 133.148438 90.710938 132.574219 91.34375 L 132 91.34375 L 131.820312 91.828125 C 131.113281 93.015625 130.117188 93.695312 128.9375 94.363281 C 128.382812 94.660156 127.828125 94.957031 127.269531 95.246094 C 126.503906 95.648438 126.503906 95.648438 125.769531 96.285156 C 124.652344 97.160156 123.394531 97.546875 122.015625 97.832031 C 119.449219 98.171875 116.648438 98.226562 114.191406 97.378906 L 113.476562 97.1875 C 112.675781 96.933594 112.027344 96.679688 111.320312 96.230469 C 110.765625 95.515625 110.355469 94.808594 109.957031 94 C 109.613281 93.273438 109.613281 93.273438 108.734375 92.78125 L 107.675781 92.871094 C 107.0625 92.886719 107.0625 92.886719 106.433594 92.78125 C 105.5625 92.214844 104.863281 91.511719 104.136719 90.765625 L 103.382812 90.066406 C 101.042969 87.539062 99.554688 84.714844 98.726562 81.371094 C 97.859375 77.492188 97.535156 73.433594 98.699219 69.582031 C 99.4375 67.410156 100.496094 65.847656 102.1875 64.316406 C 102.914062 63.714844 103.660156 63.148438 104.425781 62.59375 L 105.328125 61.914062 C 107.523438 60.300781 109.644531 59.25 112.304688 58.621094 C 116.550781 58.398438 120.390625 59.566406 124.140625 61.445312 " fill-opacity="1" fill-rule="nonzero"/><path fill="#986324" d="M 193.117188 39.121094 C 194.878906 39.558594 196.261719 40.539062 197.742188 41.546875 C 198.921875 42.339844 199.882812 42.714844 201.273438 42.914062 C 201.796875 43.042969 201.796875 43.042969 202.585938 43.726562 L 203.234375 44.480469 C 204.070312 45.246094 204.855469 45.730469 205.890625 46.167969 C 208.195312 47.160156 210.003906 48.472656 211.625 50.398438 C 212.753906 51.929688 213.480469 53.535156 213.96875 55.367188 C 214.390625 56.941406 215.199219 58.214844 216.066406 59.582031 L 216.445312 60.292969 L 216.160156 60.867188 L 215.296875 60.578125 L 215.324219 61.164062 C 215.359375 62.042969 215.382812 62.917969 215.40625 63.796875 L 215.449219 64.714844 C 215.464844 65.574219 215.457031 66.347656 215.296875 67.191406 C 214.789062 67.867188 214.300781 68.160156 213.574219 68.628906 L 213.292969 69.269531 L 213 69.78125 C 212.1875 70.03125 212.1875 70.03125 211.203125 70.191406 C 209.59375 70.507812 209.59375 70.507812 208.207031 71.324219 C 207.566406 72.050781 207.230469 72.59375 206.96875 73.515625 L 205.820312 73.230469 L 205.910156 72.25 C 206.199219 69.203125 206.199219 69.203125 205.484375 66.261719 L 205.242188 65.753906 C 204.746094 64.496094 204.546875 63.410156 204.574219 62.0625 C 204.71875 61.113281 205.269531 60.492188 205.820312 59.71875 C 206.257812 58.835938 206.445312 58.117188 206.394531 57.128906 C 205.59375 55.035156 204.355469 52.882812 202.660156 51.378906 C 201.40625 50.425781 200.398438 50.03125 198.851562 49.761719 L 197.699219 49.558594 L 196.628906 49.367188 C 196.148438 49.253906 195.667969 49.140625 195.191406 49.027344 C 193.679688 48.722656 192.191406 48.765625 190.65625 48.796875 C 189.78125 48.804688 188.925781 48.757812 188.058594 48.679688 C 185.535156 48.40625 185.535156 48.40625 183.0625 48.785156 C 182.382812 49.136719 181.757812 49.523438 181.117188 49.941406 L 180.164062 50.230469 C 179.140625 50.613281 178.660156 51.121094 177.957031 51.953125 C 177.539062 52.613281 177.171875 53.277344 176.808594 53.96875 L 176.234375 53.96875 C 176.433594 52.886719 176.902344 52.027344 177.4375 51.074219 L 177.933594 50.164062 C 178.53125 49.367188 178.53125 49.367188 179.402344 48.851562 C 180.25 48.507812 181.101562 48.199219 181.976562 47.929688 L 181.691406 45.628906 L 182.265625 45.628906 C 182.660156 46 183.042969 46.382812 183.414062 46.78125 L 183.269531 46.222656 C 183.078125 45.046875 182.984375 43.941406 183.128906 42.753906 C 183.570312 41.765625 184.042969 41.210938 184.898438 40.550781 C 187.484375 38.773438 190.070312 38.730469 193.117188 39.121094 " fill-opacity="1" fill-rule="nonzero"/><path fill="#fed326" d="M 124.140625 61.445312 C 125.226562 62.011719 126.210938 62.621094 127.117188 63.453125 L 127.117188 64.03125 L 127.757812 64.25 C 129.1875 64.886719 130.136719 66.011719 131.136719 67.191406 C 133.269531 70.238281 134.757812 73.308594 135.445312 76.96875 C 135.550781 78.246094 135.554688 79.511719 135.535156 80.792969 L 135.539062 81.777344 C 135.527344 83.4375 135.441406 84.875 134.871094 86.453125 L 134.53125 87.429688 L 134.171875 88.378906 L 133.8125 89.332031 C 133.46875 90.113281 133.148438 90.710938 132.574219 91.34375 L 132 91.34375 L 131.820312 91.828125 C 131.113281 93.015625 130.117188 93.695312 128.9375 94.363281 C 128.382812 94.660156 127.828125 94.957031 127.269531 95.246094 C 126.503906 95.648438 126.503906 95.648438 125.769531 96.285156 C 124.652344 97.160156 123.394531 97.546875 122.015625 97.832031 C 119.449219 98.171875 116.648438 98.226562 114.191406 97.378906 L 113.476562 97.1875 C 112.675781 96.933594 112.027344 96.679688 111.320312 96.230469 C 110.765625 95.515625 110.355469 94.808594 109.957031 94 C 109.613281 93.273438 109.613281 93.273438 108.734375 92.78125 L 107.675781 92.871094 C 107.0625 92.886719 107.0625 92.886719 106.433594 92.78125 C 105.5625 92.214844 104.863281 91.511719 104.136719 90.765625 L 103.382812 90.066406 C 101.042969 87.539062 99.554688 84.714844 98.726562 81.371094 C 97.859375 77.492188 97.535156 73.433594 98.699219 69.582031 C 99.4375 67.410156 100.496094 65.847656 102.1875 64.316406 C 102.914062 63.714844 103.660156 63.148438 104.425781 62.59375 L 105.328125 61.914062 C 107.523438 60.300781 109.644531 59.25 112.304688 58.621094 C 116.550781 58.398438 120.390625 59.566406 124.140625 61.445312 M 107.132812 63.480469 C 105.730469 64.585938 104.441406 65.835938 103.277344 67.191406 L 103.277344 67.765625 L 102.703125 67.765625 C 102.472656 68.25 102.246094 68.738281 102.019531 69.222656 L 101.636719 70.042969 C 100.5 72.769531 100.363281 75.492188 100.691406 78.40625 C 101.417969 82.074219 103.085938 85.484375 105.472656 88.347656 C 108.183594 91.4375 111.800781 93.648438 115.65625 95.003906 C 117.75 95.617188 119.800781 95.507812 121.910156 95.0625 C 124.5625 94.335938 126.914062 92.871094 128.914062 90.996094 C 130.785156 89.058594 132.078125 86.832031 132.789062 84.222656 C 133.578125 80.359375 132.949219 76.964844 131.726562 73.269531 C 131.460938 72.574219 131.171875 71.890625 130.851562 71.21875 L 130.476562 70.421875 C 129.109375 67.722656 127.308594 65.988281 124.8125 64.324219 C 124.222656 63.964844 124.222656 63.964844 123.382812 64.03125 L 123.382812 63.453125 C 121.472656 62.539062 119.605469 61.878906 117.53125 61.496094 L 116.949219 61.386719 C 113.554688 60.808594 110.023438 61.582031 107.132812 63.476562 " fill-opacity="1" fill-rule="nonzero"/><path fill="#fddcb5" d="M 107.011719 93.929688 C 107.800781 93.839844 107.800781 93.839844 108.734375 93.929688 C 109.6875 94.914062 110.113281 95.839844 110.492188 97.144531 L 110.785156 98.144531 C 110.992188 98.957031 111.148438 99.75 111.28125 100.578125 C 111.542969 102.054688 112.214844 103.214844 112.972656 104.496094 C 113.328125 105.140625 113.328125 105.140625 113.328125 105.71875 L 113.902344 105.71875 C 113.605469 103.972656 113.230469 102.429688 112.46875 100.828125 L 113.902344 101.117188 L 113.902344 101.691406 L 114.515625 101.925781 C 115.386719 102.285156 116.222656 102.699219 117.0625 103.128906 L 117.351562 101.980469 C 117.992188 101.964844 118.632812 101.953125 119.269531 101.945312 L 120.351562 101.921875 C 121.316406 101.976562 121.945312 102.136719 122.808594 102.554688 L 122.234375 101.691406 C 121.671875 101.464844 121.671875 101.464844 121.046875 101.351562 L 119.933594 101.117188 L 119.933594 100.542969 C 121.605469 100.109375 123.09375 99.902344 124.820312 99.96875 L 124.996094 99.390625 C 125.65625 97.949219 126.5625 96.707031 127.761719 95.671875 C 128.941406 95.21875 130.160156 94.984375 131.425781 95.078125 C 132.089844 95.507812 132.089844 95.507812 132.574219 95.941406 C 132.554688 96.554688 132.554688 96.554688 132.285156 97.378906 C 131.441406 98.292969 130.464844 98.988281 129.414062 99.644531 C 128.152344 100.539062 126.953125 101.730469 126.253906 103.128906 C 126.152344 104.320312 126.148438 105.410156 126.542969 106.542969 C 126.96875 107.875 126.972656 109.21875 126.828125 110.605469 C 126.511719 111.402344 126.296875 111.71875 125.625 112.277344 L 125.105469 112.90625 C 125.15625 113.917969 125.15625 113.917969 125.394531 114.917969 L 125.394531 116.066406 C 124.800781 116.8125 124.324219 117.179688 123.453125 117.578125 L 122.808594 117.792969 L 122.808594 118.367188 C 122.359375 118.570312 121.910156 118.765625 121.460938 118.960938 L 120.703125 119.292969 C 119.9375 119.515625 119.9375 119.515625 119.121094 119.40625 L 118.5 119.230469 L 118.390625 118.722656 C 118.195312 117.984375 117.976562 117.328125 117.636719 116.640625 C 117.121094 116.160156 116.570312 115.796875 115.984375 115.40625 C 113.46875 113.496094 111.457031 110.234375 110.171875 107.386719 C 109.945312 106.738281 109.769531 106.09375 109.59375 105.429688 C 109.484375 105.046875 109.371094 104.664062 109.257812 104.28125 C 108.257812 100.863281 107.589844 97.445312 107.011719 93.929688 " fill-opacity="1" fill-rule="nonzero"/><path fill="#fed326" d="M 114.191406 64.316406 L 114.386719 65.289062 C 114.59375 65.871094 114.59375 65.871094 115.050781 66.328125 C 115.980469 66.570312 116.882812 66.660156 117.835938 66.753906 C 118.988281 66.9375 119.714844 67.328125 120.65625 67.992188 C 121.085938 68.34375 121.085938 68.34375 121.660156 68.917969 C 121.605469 69.636719 121.605469 69.636719 121.371094 70.355469 L 120.511719 70.929688 C 119.792969 70.875 119.792969 70.875 119.074219 70.640625 L 118.679688 70.230469 C 117.972656 69.550781 117.132812 69.453125 116.203125 69.203125 L 116.40625 69.714844 C 116.714844 70.476562 117.023438 71.242188 117.332031 72.007812 L 117.65625 72.808594 L 117.96875 73.585938 L 118.253906 74.296875 C 118.472656 74.886719 118.648438 75.488281 118.785156 76.105469 L 119.898438 75.925781 C 121.433594 75.761719 122.785156 75.875 124.242188 76.390625 C 125.097656 76.84375 125.675781 77.34375 126.253906 78.117188 C 127.035156 79.589844 127.46875 81.085938 127.546875 82.753906 C 127.488281 84.015625 127.171875 85.050781 126.625 86.183594 C 126.238281 86.765625 125.898438 87.042969 125.320312 87.425781 L 124.53125 88.179688 C 124.382812 89.25 124.429688 90.269531 124.53125 91.34375 C 124.003906 91.632812 124.003906 91.632812 123.382812 91.917969 C 122.628906 91.84375 122.628906 91.84375 121.945312 91.628906 C 121.371094 91.054688 121.371094 91.054688 121.085938 90.191406 L 120.421875 90.160156 C 118.503906 90.039062 116.839844 89.761719 115.050781 89.042969 L 115.050781 88.46875 L 114.40625 88.269531 C 113.617188 87.890625 113.617188 87.890625 112.953125 87.210938 L 112.46875 86.453125 L 112.46875 85.304688 C 113.078125 84.765625 113.078125 84.765625 113.902344 84.441406 C 114.765625 84.585938 114.765625 84.585938 115.628906 85.015625 C 116.117188 85.484375 116.597656 85.964844 117.0625 86.453125 C 117.972656 87.042969 118.871094 87.171875 119.933594 87.316406 L 119.933594 86.167969 L 119.359375 85.878906 C 119.136719 85.21875 119.136719 85.21875 118.929688 84.386719 L 118.707031 83.523438 L 118.5 82.71875 C 118.226562 81.726562 118.226562 81.726562 117.925781 80.992188 L 117.351562 80.703125 L 117.351562 80.128906 L 116.246094 80.074219 C 112.515625 79.828125 112.515625 79.828125 110.996094 79.160156 C 109.878906 78.34375 109.191406 77.472656 108.589844 76.230469 C 108.054688 74.777344 107.808594 73.667969 108.035156 72.117188 C 108.421875 70.742188 109.207031 69.667969 110.167969 68.628906 C 110.765625 68.132812 110.765625 68.132812 111.320312 67.765625 L 111.894531 67.765625 L 111.589844 66.996094 C 111.320312 66.042969 111.320312 66.042969 111.390625 65.234375 L 111.605469 64.605469 C 112.457031 64.179688 113.253906 64.300781 114.191406 64.316406 " fill-opacity="1" fill-rule="nonzero"/><path fill="#fddcb5" d="M 210.128906 177.878906 L 210.988281 178.167969 C 211.382812 178.816406 211.382812 178.816406 211.816406 179.675781 C 212.796875 181.457031 214.023438 182.742188 215.53125 184.097656 C 216.015625 184.546875 216.015625 184.546875 216.734375 185.355469 C 216.59375 186.414062 216.058594 187.277344 215.585938 188.230469 C 215.402344 188.699219 215.222656 189.175781 215.046875 189.648438 C 214.527344 190.976562 213.855469 191.980469 213 193.117188 L 212.710938 193.980469 L 211.277344 194.265625 C 209.992188 192.636719 209.992188 192.636719 209.441406 191.933594 C 208.757812 191.054688 208.074219 190.183594 207.359375 189.332031 C 205.878906 187.527344 204.757812 185.710938 203.734375 183.609375 L 203.382812 182.894531 L 203.066406 182.21875 L 202.785156 181.613281 L 202.660156 181.042969 C 202.871094 180.421875 202.871094 180.421875 203.234375 179.890625 C 204.78125 178.996094 206.363281 178.824219 208.121094 178.605469 C 208.964844 178.5 208.964844 178.5 209.613281 178.132812 Z M 198.636719 89.617188 L 199.210938 89.617188 C 199.242188 91.089844 199.199219 92.480469 198.925781 93.929688 C 198.320312 94.816406 197.574219 95.179688 196.628906 95.65625 C 196.035156 96.011719 195.441406 96.371094 194.851562 96.734375 C 193.832031 97.324219 192.839844 97.816406 191.742188 98.242188 C 191.402344 98.417969 191.058594 98.597656 190.722656 98.78125 C 189.171875 99.570312 187.183594 100.542969 185.425781 100.542969 C 184.933594 101.699219 184.578125 102.871094 184.238281 104.082031 L 183.933594 105.175781 L 183.703125 106.003906 L 183.128906 106.003906 C 182.601562 104.894531 182.527344 104.132812 182.625 102.914062 C 182.644531 101.914062 182.617188 101.261719 182.203125 100.347656 C 181.648438 99.519531 181.109375 98.765625 180.347656 98.121094 L 179.96875 97.667969 C 179.875 96.953125 179.875 96.953125 179.894531 96.140625 L 179.917969 95.292969 C 179.972656 94.441406 180.074219 93.617188 180.253906 92.78125 L 181.238281 93.058594 C 184.691406 93.914062 188.382812 93.523438 191.769531 92.574219 C 195.457031 91.554688 195.457031 91.554688 198.636719 89.617188 " fill-opacity="1" fill-rule="nonzero"/><path fill="#999696" d="M 171.925781 326.800781 C 176.570312 327.476562 176.570312 327.476562 178.242188 327.953125 L 178.53125 328.816406 L 177.953125 329.007812 C 176.710938 329.453125 175.804688 329.828125 174.832031 330.738281 C 174.332031 331.519531 174.019531 332.167969 173.683594 333.019531 C 173.40625 333.695312 173.40625 333.695312 173.074219 334.277344 C 172.585938 334.640625 172.113281 334.878906 171.5625 335.128906 C 170.796875 335.585938 170.429688 336.253906 169.984375 337.011719 L 169.628906 337.441406 C 168.308594 337.851562 166.917969 337.90625 165.550781 338.03125 L 164.761719 338.113281 C 160.199219 338.546875 160.199219 338.546875 157.976562 337.726562 L 157.078125 337.402344 L 156.414062 337.152344 L 156.414062 336.003906 C 159.914062 334.066406 163.917969 332.28125 167.902344 331.691406 C 168.710938 331.960938 168.710938 331.960938 169.339844 332.265625 L 168.910156 331.601562 C 168.476562 330.828125 168.476562 330.828125 168.476562 329.964844 C 168.964844 329.785156 168.964844 329.785156 169.628906 329.675781 C 170.417969 329.949219 170.417969 329.949219 171.0625 330.253906 C 170.988281 329.683594 170.988281 329.683594 170.777344 329.101562 L 169.914062 328.816406 L 170.488281 327.953125 L 172.785156 328.527344 L 172.5 327.664062 L 171.925781 327.378906 Z M 234.253906 330.539062 L 235.117188 330.539062 C 235.042969 331.078125 235.042969 331.078125 234.828125 331.691406 C 234.238281 332.050781 234.238281 332.050781 233.679688 332.265625 L 234.253906 333.128906 L 235.117188 332.550781 L 236.265625 332.550781 C 236.15625 333.253906 236.15625 333.253906 235.976562 333.988281 L 235.402344 334.277344 L 235.117188 335.140625 L 237.414062 334.566406 C 237.113281 335.769531 236.734375 336.207031 235.976562 337.152344 C 235.792969 337.753906 235.792969 337.753906 235.691406 338.300781 L 236.199219 338.28125 C 241.015625 338.09375 241.015625 338.09375 242.660156 338.582031 C 243.332031 338.9375 243.957031 339.332031 244.59375 339.738281 C 245.34375 340.058594 246.097656 340.347656 246.855469 340.632812 C 247.46875 340.890625 247.46875 340.890625 248.328125 341.464844 L 248.328125 342.039062 L 249.476562 342.328125 L 249.765625 343.476562 C 248.105469 344.28125 246.375 344.269531 244.566406 344.21875 C 242.4375 344.050781 240.71875 343.054688 238.871094 342.054688 C 237.570312 341.394531 236.1875 340.917969 234.824219 340.40625 C 233.96875 340.027344 233.96875 340.027344 233.414062 339.597656 L 233.105469 339.164062 L 233.160156 338.355469 L 233.105469 337.441406 C 232.683594 337.042969 232.257812 336.652344 231.824219 336.269531 C 230.929688 335.144531 230.777344 333.648438 230.519531 332.265625 C 231.46875 331.632812 232.304688 331.425781 233.394531 331.113281 Z M 234.253906 330.539062 " fill-opacity="1" fill-rule="nonzero"/><path fill="#000000" d="M 119.609375 61.105469 C 122.414062 62.15625 125.113281 63.523438 127.402344 65.46875 L 128.300781 66.132812 C 130.78125 68.453125 131.898438 71.621094 132.898438 74.796875 C 133.820312 77.894531 134.113281 80.867188 133.527344 84.082031 C 133.410156 84.492188 133.285156 84.902344 133.148438 85.304688 L 132.871094 86.125 C 132 88.445312 130.867188 90.390625 128.964844 92.015625 C 126.589844 93.914062 124.128906 95.445312 121.085938 95.941406 C 118 96.199219 115.589844 95.820312 112.753906 94.503906 C 109.058594 92.695312 105.945312 90.410156 103.542969 87.019531 C 102.769531 85.835938 102.105469 84.59375 101.550781 83.292969 L 101.148438 82.449219 C 100.199219 80.242188 99.984375 78.292969 99.972656 75.90625 L 99.96875 75.078125 C 100.007812 72.746094 100.40625 70.445312 101.535156 68.378906 C 103.539062 65.492188 105.644531 63.355469 108.820312 61.832031 C 112.242188 60.289062 115.996094 60.0625 119.609375 61.105469 M 107.132812 63.476562 C 105.730469 64.585938 104.441406 65.835938 103.277344 67.191406 L 103.277344 67.765625 L 102.703125 67.765625 C 102.472656 68.25 102.246094 68.738281 102.019531 69.222656 L 101.636719 70.042969 C 100.5 72.769531 100.363281 75.492188 100.691406 78.40625 C 101.417969 82.074219 103.085938 85.484375 105.472656 88.347656 C 108.183594 91.4375 111.800781 93.648438 115.65625 95.003906 C 117.75 95.617188 119.800781 95.507812 121.910156 95.0625 C 124.5625 94.335938 126.910156 92.867188 128.914062 90.996094 C 130.78125 89.058594 132.078125 86.832031 132.789062 84.222656 C 133.578125 80.355469 132.949219 76.964844 131.726562 73.269531 C 131.460938 72.574219 131.171875 71.890625 130.851562 71.21875 L 130.476562 70.421875 C 129.109375 67.722656 127.308594 65.988281 124.8125 64.324219 C 124.222656 63.964844 124.222656 63.964844 123.382812 64.03125 L 123.382812 63.453125 C 121.472656 62.539062 119.605469 61.878906 117.53125 61.496094 L 116.949219 61.386719 C 113.554688 60.808594 110.023438 61.582031 107.132812 63.476562 " fill-opacity="1" fill-rule="nonzero"/><path fill="#000000" d="M 114.191406 64.316406 L 114.386719 65.289062 C 114.59375 65.871094 114.59375 65.871094 115.050781 66.328125 C 115.980469 66.570312 116.882812 66.660156 117.835938 66.753906 C 118.988281 66.9375 119.714844 67.328125 120.65625 67.992188 C 121.085938 68.34375 121.085938 68.34375 121.660156 68.917969 C 121.605469 69.636719 121.605469 69.636719 121.371094 70.355469 L 120.511719 70.929688 C 119.792969 70.875 119.792969 70.875 119.074219 70.640625 L 118.679688 70.230469 C 117.972656 69.550781 117.132812 69.453125 116.203125 69.203125 L 116.40625 69.714844 C 116.714844 70.476562 117.023438 71.242188 117.332031 72.007812 L 117.65625 72.808594 L 117.96875 73.585938 L 118.253906 74.296875 C 118.472656 74.886719 118.648438 75.488281 118.785156 76.105469 L 119.898438 75.925781 C 121.433594 75.761719 122.785156 75.875 124.242188 76.390625 C 125.097656 76.84375 125.675781 77.34375 126.253906 78.117188 C 127.035156 79.589844 127.46875 81.085938 127.546875 82.753906 C 127.488281 84.015625 127.171875 85.050781 126.625 86.183594 C 126.238281 86.765625 125.898438 87.042969 125.320312 87.425781 L 124.53125 88.179688 C 124.382812 89.25 124.429688 90.269531 124.53125 91.34375 C 124.003906 91.632812 124.003906 91.632812 123.382812 91.917969 C 122.628906 91.84375 122.628906 91.84375 121.945312 91.628906 C 121.371094 91.054688 121.371094 91.054688 121.085938 90.191406 L 120.421875 90.160156 C 118.503906 90.039062 116.839844 89.761719 115.050781 89.042969 L 115.050781 88.46875 L 114.40625 88.269531 C 113.617188 87.890625 113.617188 87.890625 112.953125 87.210938 L 112.46875 86.453125 L 112.46875 85.304688 C 113.078125 84.765625 113.078125 84.765625 113.902344 84.441406 C 114.765625 84.585938 114.765625 84.585938 115.628906 85.015625 C 116.117188 85.484375 116.597656 85.964844 117.0625 86.453125 C 117.972656 87.042969 118.871094 87.171875 119.933594 87.316406 L 119.933594 86.167969 L 119.359375 85.878906 C 119.136719 85.21875 119.136719 85.21875 118.929688 84.386719 L 118.707031 83.523438 L 118.5 82.71875 C 118.226562 81.726562 118.226562 81.726562 117.925781 80.992188 L 117.351562 80.703125 L 117.351562 80.128906 L 116.246094 80.074219 C 112.515625 79.828125 112.515625 79.828125 110.996094 79.160156 C 109.878906 78.34375 109.191406 77.472656 108.589844 76.230469 C 108.054688 74.777344 107.808594 73.667969 108.035156 72.117188 C 108.421875 70.742188 109.207031 69.667969 110.167969 68.628906 C 110.765625 68.132812 110.765625 68.132812 111.320312 67.765625 L 111.894531 67.765625 L 111.589844 66.996094 C 111.320312 66.042969 111.320312 66.042969 111.390625 65.234375 L 111.605469 64.605469 C 112.457031 64.179688 113.253906 64.300781 114.191406 64.316406 M 112.753906 64.890625 C 112.269531 65.304688 112.269531 65.304688 111.894531 65.753906 L 112.179688 66.417969 C 112.46875 67.191406 112.46875 67.191406 112.46875 68.054688 C 111.894531 68.441406 111.320312 68.824219 110.742188 69.203125 C 109.917969 70.035156 109.097656 70.957031 108.734375 72.078125 C 108.609375 73.554688 108.703125 74.765625 109.277344 76.136719 C 109.851562 77.117188 110.640625 77.816406 111.605469 78.40625 C 112.984375 78.976562 114.261719 79.09375 115.734375 79.160156 L 116.375 79.191406 C 116.890625 79.21875 117.410156 79.242188 117.925781 79.265625 L 118.246094 80.273438 C 118.550781 81.191406 118.878906 82.101562 119.226562 83 L 119.464844 83.613281 C 119.621094 84.015625 119.78125 84.421875 119.941406 84.824219 C 120.351562 85.882812 120.609375 86.753906 120.511719 87.890625 C 118.539062 87.621094 116.996094 87.292969 115.339844 86.167969 L 114.765625 85.59375 C 114.019531 85.683594 114.019531 85.683594 113.328125 85.878906 C 113.625 86.621094 113.875 87.003906 114.503906 87.507812 L 115.195312 87.945312 L 115.886719 88.390625 C 117.089844 89.117188 118.164062 89.136719 119.539062 89.203125 L 120.238281 89.242188 C 120.808594 89.273438 121.375 89.300781 121.945312 89.328125 L 122.519531 91.34375 L 123.957031 90.765625 L 123.84375 90.25 C 123.71875 89.542969 123.640625 88.902344 123.667969 88.179688 C 124.296875 87.390625 124.296875 87.390625 125.105469 86.742188 C 125.746094 86.101562 126.164062 85.546875 126.484375 84.695312 C 126.859375 83.257812 126.839844 82.085938 126.523438 80.632812 C 126.230469 79.625 125.925781 78.773438 125.285156 77.9375 C 124.507812 77.234375 124.082031 76.988281 123.09375 76.679688 C 122.300781 76.574219 121.507812 76.535156 120.707031 76.5 L 120.0625 76.464844 C 119.542969 76.441406 119.019531 76.414062 118.5 76.390625 C 115.71875 70.378906 115.71875 70.378906 115.339844 68.628906 C 116.214844 68.667969 117.066406 68.738281 117.925781 68.917969 C 118.507812 69.289062 119.082031 69.671875 119.648438 70.066406 C 120.3125 70.035156 120.3125 70.035156 120.796875 69.78125 C 120.808594 69.238281 120.808594 69.238281 120.511719 68.628906 C 119.796875 68.066406 119.34375 67.777344 118.5 67.480469 C 117.804688 67.390625 117.113281 67.3125 116.417969 67.246094 C 115.359375 67.125 115.359375 67.125 114.476562 66.90625 C 114.027344 66.421875 114.027344 66.421875 113.796875 65.863281 L 113.617188 64.890625 Z M 112.753906 64.890625 " fill-opacity="1" fill-rule="nonzero"/><path fill="#fefefe" d="M 177.195312 172.378906 L 181.519531 172.378906 C 182.273438 172.417969 182.964844 172.535156 183.703125 172.703125 L 183.703125 173.855469 L 175.660156 174.140625 L 175.660156 178.453125 L 183.703125 178.742188 L 183.703125 179.890625 C 176.304688 180.394531 176.304688 180.394531 173.933594 179.605469 C 173.472656 178.535156 173.59375 177.300781 173.59375 176.152344 L 173.582031 175.535156 C 173.582031 174.703125 173.621094 173.953125 173.847656 173.152344 L 174.222656 172.703125 C 175.222656 172.441406 176.164062 172.378906 177.195312 172.378906 " fill-opacity="1" fill-rule="nonzero"/><path fill="#fddcb5" d="M 102.703125 91.628906 C 103.328125 91.664062 103.328125 91.664062 104.136719 91.917969 C 105.375 93.183594 105.949219 94.375 106.472656 96.050781 L 106.691406 96.730469 C 107.535156 99.449219 108.238281 102.28125 108.160156 105.140625 C 107.417969 104.84375 107.015625 104.574219 106.488281 103.960938 C 104.746094 101.441406 104.113281 99.347656 103.515625 96.351562 C 103.246094 95.242188 102.84375 94.308594 102.292969 93.316406 L 102.128906 92.78125 C 102.382812 92.136719 102.382812 92.136719 102.703125 91.628906 " fill-opacity="1" fill-rule="nonzero"/><path fill="#fed326" d="M 97.242188 68.917969 L 97.820312 68.917969 L 97.691406 69.667969 C 96.9375 74.492188 97.023438 79.246094 98.625 83.886719 L 98.832031 84.484375 C 99.351562 85.898438 100.089844 86.96875 100.976562 88.179688 L 100.976562 88.753906 L 100.53125 88.503906 C 99.804688 88.132812 99.804688 88.132812 98.839844 88.007812 L 97.820312 87.605469 C 97.371094 86.832031 97.117188 86.265625 96.867188 85.429688 L 96.652344 84.773438 C 95.953125 82.488281 95.671875 80.207031 95.519531 77.828125 L 95.457031 76.953125 C 95.359375 74.171875 96.027344 71.410156 97.242188 68.917969 M 112.46875 70.355469 C 113.042969 70.394531 113.042969 70.394531 113.617188 70.640625 C 113.929688 71.105469 113.929688 71.105469 114.167969 71.699219 L 114.433594 72.347656 L 114.695312 73.03125 L 114.96875 73.707031 C 115.402344 74.796875 115.628906 75.476562 115.628906 76.679688 C 114.652344 76.71875 113.792969 76.722656 112.84375 76.480469 C 111.976562 75.988281 111.558594 75.515625 111.03125 74.667969 C 110.742188 73.679688 110.742188 73.679688 110.742188 72.65625 C 111.238281 71.75 111.742188 71.082031 112.46875 70.355469 " fill-opacity="1" fill-rule="nonzero"/><path fill="#615f5f" d="M 186 174.429688 L 191.167969 174.429688 L 191.167969 177.878906 C 190.257812 178.335938 189.265625 178.273438 188.261719 178.328125 L 187.605469 178.367188 C 187.070312 178.394531 186.535156 178.425781 186 178.453125 Z M 168.191406 172.992188 C 168.796875 173.003906 168.796875 173.003906 169.554688 173.082031 L 170.304688 173.148438 C 171.0625 173.277344 171.0625 173.277344 172.5 173.855469 L 172.5 177.589844 C 168.960938 177.359375 168.960938 177.359375 167.902344 176.730469 C 167.894531 176.160156 167.890625 175.589844 167.886719 175.023438 L 167.875 174.0625 L 167.902344 173.277344 Z M 168.191406 172.992188 " fill-opacity="1" fill-rule="nonzero"/><path fill="#fddcb5" d="M 98.339844 88.59375 C 99.253906 88.753906 99.253906 88.753906 99.71875 89.082031 C 100.488281 89.871094 100.917969 90.578125 101.257812 91.628906 C 101.402344 92.222656 101.535156 92.820312 101.65625 93.421875 C 101.824219 94.15625 102.070312 94.699219 102.414062 95.367188 C 102.449219 96.15625 102.449219 96.15625 102.414062 96.804688 L 101.550781 96.515625 C 101.132812 95.945312 100.730469 95.355469 100.351562 94.757812 C 99.410156 93.324219 98.484375 92.226562 97.082031 91.214844 L 96.667969 90.765625 C 96.554688 90.03125 96.554688 90.03125 96.667969 89.328125 C 97.53125 88.753906 97.53125 88.753906 98.339844 88.59375 " fill-opacity="1" fill-rule="nonzero"/><path fill="#fed326" d="M 120.511719 79.265625 C 121.265625 79.175781 121.265625 79.175781 122.234375 79.265625 C 123.152344 79.886719 123.785156 80.429688 124.371094 81.371094 C 124.59375 82.441406 124.523438 83.382812 124.242188 84.441406 C 123.796875 85.160156 123.796875 85.160156 123.382812 85.59375 L 122.519531 85.304688 C 122.238281 84.839844 122.238281 84.839844 121.996094 84.246094 L 121.730469 83.597656 L 121.460938 82.914062 L 121.183594 82.242188 C 120.742188 81.148438 120.511719 80.472656 120.511719 79.265625 " fill-opacity="1" fill-rule="nonzero"/><path fill="#615f5f" d="M 198.351562 173.855469 C 198.726562 174.894531 198.925781 175.605469 198.925781 176.730469 C 198.273438 176.875 197.621094 177.015625 196.96875 177.160156 L 195.867188 177.402344 C 194.902344 177.589844 194.902344 177.589844 194.042969 177.589844 L 194.042969 174.140625 C 195.492188 173.84375 196.878906 173.824219 198.351562 173.855469 M 162.160156 170.980469 C 163.414062 171.125 164.464844 171.613281 165.605469 172.128906 C 165.613281 172.644531 165.621094 173.160156 165.625 173.675781 L 165.632812 174.542969 C 165.605469 175.292969 165.605469 175.292969 165.320312 175.867188 C 164.851562 175.738281 164.382812 175.605469 163.917969 175.472656 L 163.128906 175.25 C 162.445312 175.003906 162.445312 175.003906 161.871094 174.429688 C 161.804688 173.691406 161.804688 173.691406 161.816406 172.828125 L 161.824219 171.964844 L 161.871094 171.265625 Z M 204.667969 171.839844 C 205.132812 172.765625 204.972656 173.691406 204.957031 174.714844 C 203.59375 175.355469 202.453125 175.710938 200.933594 175.867188 C 200.46875 175.074219 200.46875 175.074219 200.074219 174.140625 C 200.257812 173.546875 200.257812 173.546875 200.648438 172.992188 C 201.863281 172.21875 203.214844 171.652344 204.667969 171.839844 " fill-opacity="1" fill-rule="nonzero"/><path fill="#000000" d="M 192.03125 79.554688 C 192.625 79.679688 192.625 79.679688 193.179688 79.84375 C 193.113281 80.386719 193.113281 80.386719 192.894531 80.992188 C 190.980469 82.050781 188.421875 82.140625 186.285156 82.140625 C 184.445312 82.019531 182.636719 81.878906 181.007812 80.957031 L 180.253906 80.417969 L 180.253906 79.84375 C 181.421875 79.96875 182.464844 80.105469 183.59375 80.433594 C 185.578125 80.953125 187.757812 80.933594 189.757812 80.519531 C 190.992188 80.21875 190.992188 80.21875 192.03125 79.554688 M 112.46875 69.492188 C 113.195312 69.519531 113.195312 69.519531 113.902344 69.78125 C 114.304688 70.34375 114.304688 70.34375 114.609375 71.078125 L 114.949219 71.882812 L 115.285156 72.726562 L 115.640625 73.558594 C 116.175781 74.851562 116.5625 75.839844 116.488281 77.253906 C 113.6875 77.390625 113.6875 77.390625 112.324219 76.878906 C 111.6875 76.449219 111.238281 76.105469 110.742188 75.53125 C 110.25 74.496094 109.953125 73.511719 109.882812 72.367188 C 110.289062 71.421875 110.847656 70.757812 111.605469 70.066406 Z M 112.46875 70.355469 C 111.699219 71.140625 111.160156 71.765625 110.742188 72.78125 C 110.742188 73.851562 111.117188 74.585938 111.605469 75.53125 C 111.984375 76.074219 111.984375 76.074219 112.46875 76.390625 C 113.488281 76.792969 114.542969 76.699219 115.628906 76.679688 C 115.476562 75.0625 115.035156 73.835938 114.316406 72.386719 L 114.03125 71.789062 C 113.796875 71.308594 113.566406 70.832031 113.328125 70.355469 Z M 119.648438 78.691406 C 122.316406 78.476562 122.316406 78.476562 123.382812 78.941406 C 124.167969 79.542969 124.546875 80.164062 124.945312 81.0625 C 125.136719 82.355469 125.140625 83.460938 124.820312 84.730469 C 124.28125 85.734375 124.28125 85.734375 123.667969 86.453125 L 122.808594 86.742188 C 121.84375 85.660156 121.375 84.683594 120.921875 83.308594 C 120.578125 82.269531 120.242188 81.316406 119.730469 80.34375 L 119.359375 79.554688 Z M 120.511719 79.265625 C 120.664062 80.800781 121.039062 82.019531 121.675781 83.417969 L 121.921875 83.972656 C 122.121094 84.417969 122.320312 84.859375 122.519531 85.304688 L 123.667969 85.304688 C 124.234375 84.195312 124.53125 83.527344 124.53125 82.269531 C 124.171875 81.023438 123.707031 80.476562 122.808594 79.554688 C 122.03125 79.164062 121.367188 79.25 120.511719 79.265625 M 194.042969 64.03125 L 195.191406 64.605469 C 195.265625 65.992188 195.292969 67.175781 194.851562 68.503906 L 194.328125 69.203125 C 193.558594 69.457031 193.558594 69.457031 192.894531 69.492188 L 192.605469 68.628906 L 192.03125 68.628906 C 191.957031 67.714844 191.910156 66.917969 192.257812 66.054688 C 192.761719 65.140625 193.164062 64.617188 194.042969 64.03125 M 180.253906 62.304688 C 180.847656 62.394531 180.847656 62.394531 181.402344 62.59375 L 181.691406 62.878906 C 181.804688 64.296875 181.621094 65.410156 181.097656 66.710938 C 180.828125 67.191406 180.828125 67.191406 180.199219 67.625 L 179.679688 67.765625 C 179.265625 67.480469 179.265625 67.480469 178.820312 66.90625 C 178.605469 66.042969 178.472656 65.464844 178.53125 64.605469 C 179.023438 63.6875 179.523438 63.039062 180.253906 62.304688 M 184.851562 69.492188 L 184.851562 70.355469 L 182.265625 71.21875 C 182.296875 72.195312 182.296875 72.195312 182.550781 73.230469 C 183.308594 73.828125 183.941406 74.074219 184.851562 74.378906 L 184.851562 75.242188 C 184.402344 75.441406 184.402344 75.441406 183.703125 75.53125 C 182.714844 75.199219 181.933594 74.871094 181.132812 74.199219 C 180.730469 73.292969 180.695312 72.527344 180.726562 71.539062 C 180.828125 70.929688 180.828125 70.929688 181.367188 70.210938 C 182.578125 69.355469 183.390625 69.46875 184.851562 69.492188 M 196.050781 54.828125 C 197.28125 55.496094 198.175781 56.234375 198.925781 57.417969 C 198.996094 58.226562 198.996094 58.226562 198.925781 58.855469 C 198.101562 58.53125 197.742188 58.238281 197.164062 57.542969 L 196.628906 56.84375 C 195.867188 56.460938 195.285156 56.527344 194.4375 56.535156 L 193.5625 56.542969 L 192.894531 56.554688 L 192.894531 55.40625 C 193.996094 54.886719 194.835938 54.679688 196.050781 54.828125 " fill-opacity="1" fill-rule="nonzero"/><path fill="#fed326" d="M 111.605469 97.667969 C 112.613281 97.789062 113.558594 97.9375 114.53125 98.234375 C 115.753906 98.5625 116.9375 98.722656 118.195312 98.851562 L 118.871094 98.929688 C 119.417969 98.988281 119.964844 99.046875 120.511719 99.105469 L 120.222656 99.679688 C 117.414062 100.175781 114.597656 100.007812 111.894531 99.105469 Z M 111.605469 97.667969 " fill-opacity="1" fill-rule="nonzero"/><path fill="#000000" d="M 200.359375 49.367188 C 205.378906 49.15625 205.378906 49.15625 207.738281 50.167969 C 208.726562 50.6875 209.5625 51.234375 210.414062 51.953125 L 210.414062 52.53125 C 209.574219 52.394531 209.089844 52.136719 208.351562 51.683594 C 206.296875 50.484375 204.046875 50.441406 201.71875 50.355469 L 200.933594 50.230469 Z M 181.386719 53.300781 C 182.175781 53.324219 182.546875 53.390625 183.269531 53.75 L 183.703125 54.253906 L 183.703125 55.40625 L 183.0625 55.292969 C 182.203125 55.167969 181.40625 55.082031 180.542969 55.117188 C 179.65625 55.765625 179.65625 55.765625 179.105469 56.554688 L 178.53125 56.554688 L 178.242188 55.40625 L 178.820312 55.40625 L 179.050781 54.722656 L 179.394531 53.96875 C 180.253906 53.390625 180.253906 53.390625 181.386719 53.300781 M 235.117188 152.292969 C 237.410156 152.171875 239.328125 152.175781 241.4375 153.132812 C 242.011719 153.441406 242.011719 153.441406 242.871094 154.015625 L 242.871094 154.878906 C 241.847656 154.777344 241.023438 154.675781 240.105469 154.195312 C 238.839844 153.585938 237.5625 153.355469 236.1875 153.082031 L 235.402344 152.867188 Z M 119.074219 108.015625 C 120.195312 108.105469 120.9375 108.210938 121.890625 108.824219 C 122.496094 109.433594 122.773438 109.824219 123.09375 110.605469 C 123.277344 111.902344 123.175781 112.972656 122.71875 114.199219 L 122.234375 114.917969 L 121.371094 115.203125 C 121.535156 114.523438 121.726562 113.855469 121.945312 113.191406 C 122.066406 112.222656 122.066406 112.222656 121.945312 111.179688 C 121.378906 110.066406 120.882812 109.515625 119.863281 108.789062 L 119.074219 108.304688 Z M 190.054688 40.632812 L 190.882812 40.742188 L 190.882812 41.316406 L 190.304688 41.507812 C 188.566406 42.121094 188.566406 42.121094 187.128906 43.238281 C 186.507812 44.304688 186.394531 45.035156 186.355469 46.246094 L 186.285156 46.78125 L 185.710938 47.066406 C 185.378906 46.402344 185.378906 45.992188 185.371094 45.253906 L 185.359375 44.589844 C 185.4375 43.765625 185.609375 43.199219 186 42.46875 C 187.160156 41.488281 188.503906 40.632812 190.054688 40.632812 M 207.253906 58.28125 C 208.367188 58.769531 209.296875 59.484375 210.253906 60.21875 L 210.742188 60.585938 C 211.855469 61.4375 212.742188 62.316406 213.574219 63.453125 L 213.574219 64.316406 L 213 64.316406 L 212.496094 63.679688 C 211.785156 62.800781 211.042969 62.226562 210.128906 61.566406 C 208.03125 60.054688 208.03125 60.054688 207.253906 59.140625 Z M 207.253906 58.28125 " fill-opacity="1" fill-rule="nonzero"/><path fill="#999696" d="M 170.203125 339.164062 L 170.203125 339.738281 C 166.160156 340.597656 162.261719 340.703125 158.136719 340.601562 L 157.851562 340.027344 L 158.414062 340.011719 C 161.714844 339.90625 164.976562 339.792969 168.242188 339.28125 C 169.050781 339.164062 169.050781 339.164062 170.203125 339.164062 " fill-opacity="1" fill-rule="nonzero"/><path fill="#000000" d="M 211.132812 73.695312 L 211.851562 73.804688 L 211.851562 74.953125 L 210.917969 75.132812 L 209.839844 75.53125 C 209.441406 76.09375 209.058594 76.671875 208.691406 77.253906 L 207.542969 77.253906 C 207.542969 76.5 207.542969 76.5 207.828125 75.53125 C 208.804688 74.496094 209.707031 73.847656 211.132812 73.695312 M 198.421875 45.84375 L 199.484375 45.839844 L 200.359375 45.917969 L 200.933594 46.492188 L 200.03125 46.578125 C 197.679688 46.820312 195.613281 47.152344 193.46875 48.21875 L 192.894531 47.640625 C 194.726562 46.332031 196.164062 45.835938 198.421875 45.84375 " fill-opacity="1" fill-rule="nonzero"/><path fill="#615f5f" d="M 210.414062 171.265625 L 210.703125 172.128906 L 210.414062 172.992188 C 209.410156 173.492188 208.671875 173.855469 207.542969 173.855469 L 207.542969 171.839844 C 208.550781 171.378906 209.308594 171.203125 210.414062 171.265625 " fill-opacity="1" fill-rule="nonzero"/><path fill="#000000" d="M 193.753906 43.042969 L 193.753906 43.617188 L 192.714844 43.957031 C 191.46875 44.425781 190.683594 44.988281 189.734375 45.917969 C 189.429688 46.386719 189.136719 46.863281 188.871094 47.355469 L 188.585938 47.355469 C 188.511719 46.582031 188.511719 46.582031 188.585938 45.628906 C 189.039062 44.832031 189.492188 44.347656 190.261719 43.847656 C 191.457031 43.195312 192.367188 42.902344 193.753906 43.042969 M 206.394531 62.015625 C 207.410156 62.441406 207.953125 62.992188 208.65625 63.832031 C 209.34375 64.636719 210.015625 65.367188 210.84375 66.023438 L 211.5625 66.617188 L 211.5625 67.191406 C 209.777344 66.585938 208.53125 65.390625 207.253906 64.03125 C 206.835938 63.34375 206.625 62.789062 206.394531 62.015625 M 221.617188 172.992188 C 222.105469 173.050781 222.105469 173.050781 222.765625 173.277344 C 223.433594 173.886719 223.433594 173.886719 224.113281 174.644531 L 224.796875 175.394531 C 225.351562 176.152344 225.351562 176.152344 225.570312 176.964844 L 225.636719 177.589844 C 224.222656 176.980469 223.398438 175.917969 222.476562 174.714844 C 222.136719 174.148438 221.875 173.601562 221.617188 172.992188 M 204.957031 53.96875 C 205.527344 53.886719 205.527344 53.886719 206.394531 53.96875 C 207.226562 54.335938 208 54.796875 208.78125 55.261719 C 209.519531 55.6875 210.253906 56.117188 210.988281 56.554688 L 210.988281 57.128906 C 209.199219 56.652344 207.671875 56.105469 206.105469 55.117188 L 206.105469 54.542969 L 204.957031 54.253906 Z M 204.957031 53.96875 " fill-opacity="1" fill-rule="nonzero"/><path fill="#fefefe" d="M 220.179688 144.242188 L 220.753906 144.242188 C 221.21875 144.851562 221.660156 145.472656 222.082031 146.109375 L 222.449219 146.652344 C 222.746094 147.09375 223.042969 147.535156 223.339844 147.980469 L 222.476562 148.265625 L 220.753906 146.253906 L 219.894531 147.980469 C 219.671875 147.304688 219.601562 146.859375 219.703125 146.152344 L 219.875 145.464844 L 220.042969 144.765625 Z M 220.179688 144.242188 " fill-opacity="1" fill-rule="nonzero"/><path fill="#000000" d="M 127.976562 128.140625 L 128.550781 128.140625 L 128.265625 129.003906 C 127.035156 129.964844 125.738281 130.601562 124.242188 131.015625 C 123.382812 131.070312 123.382812 131.070312 122.808594 131.015625 L 122.808594 130.441406 L 123.574219 130.15625 L 124.585938 129.777344 L 125.585938 129.402344 C 126.445312 129.046875 127.183594 128.621094 127.976562 128.140625 " fill-opacity="1" fill-rule="nonzero"/><path fill="#fddcb5" d="M 172.785156 66.328125 L 173.359375 66.328125 C 173.398438 68.457031 173.304688 70.539062 173.074219 72.65625 L 172.5 72.65625 C 172.492188 71.652344 172.484375 70.652344 172.480469 69.652344 L 172.472656 68.789062 L 172.472656 67.964844 L 172.464844 67.203125 L 172.5 66.617188 Z M 172.785156 66.328125 " fill-opacity="1" fill-rule="nonzero"/><path fill="#fefefe" d="M 123.957031 99.96875 L 123.957031 100.542969 L 123.09375 101.40625 L 123.09375 101.980469 L 119.933594 101.117188 L 119.933594 100.542969 C 122.636719 99.882812 122.636719 99.882812 123.957031 99.96875 " fill-opacity="1" fill-rule="nonzero"/><path fill="#000000" d="M 182.265625 116.066406 L 183.128906 116.929688 L 183.414062 116.066406 L 184.277344 116.355469 L 183.988281 117.792969 C 183.304688 117.972656 183.304688 117.972656 182.550781 118.078125 L 181.976562 117.503906 C 182.085938 116.75 182.085938 116.75 182.265625 116.066406 M 181.691406 135.328125 L 182.550781 135.617188 L 182.265625 137.054688 C 181.582031 137.234375 181.582031 137.234375 180.828125 137.339844 L 180.253906 136.765625 L 180.253906 135.617188 L 181.691406 136.191406 Z M 181.691406 135.328125 " fill-opacity="1" fill-rule="nonzero"/><path fill="#615f5f" d="M 221.042969 338.015625 C 221.835938 338.164062 222.570312 338.332031 223.339844 338.589844 L 223.050781 340.027344 L 221.617188 339.738281 Z M 221.042969 338.015625 " fill-opacity="1" fill-rule="nonzero"/><path fill="#000000" d="M 179.96875 157.179688 L 180.542969 157.179688 L 180.542969 158.042969 L 181.117188 158.042969 L 181.117188 157.179688 L 181.976562 157.464844 L 181.691406 158.902344 C 181.171875 159.101562 181.171875 159.101562 180.542969 159.191406 C 180.019531 158.851562 180.019531 158.851562 179.679688 158.328125 C 179.769531 157.699219 179.769531 157.699219 179.96875 157.179688 " fill-opacity="1" fill-rule="nonzero"/><path fill="#fefefe" d="M 217.019531 166.953125 L 217.59375 166.953125 C 217.59375 167.707031 217.59375 167.707031 217.308594 168.679688 C 216.597656 169.34375 215.824219 169.878906 215.011719 170.402344 L 214.722656 169.828125 L 215.386719 169.199219 C 216.171875 168.4375 216.171875 168.4375 216.644531 167.582031 Z M 217.019531 166.953125 " fill-opacity="1" fill-rule="nonzero"/><path fill="#999696" d="M 185.136719 334.566406 C 185.710938 334.554688 186.285156 334.550781 186.859375 334.566406 L 186.859375 336.003906 L 185.425781 336.289062 L 184.851562 334.851562 Z M 185.136719 334.566406 " fill-opacity="1" fill-rule="nonzero"/><path fill="#000000" d="M 207.542969 66.90625 C 209.238281 67.867188 209.238281 67.867188 209.839844 68.628906 L 209.839844 69.492188 C 208.875 69.078125 208.222656 68.570312 207.542969 67.765625 Z M 207.542969 66.90625 " fill-opacity="1" fill-rule="nonzero"/><path fill="#999696" d="M 250.628906 345.777344 C 250.484375 346.335938 250.484375 346.335938 250.050781 346.925781 C 249.277344 347.125 248.558594 347.164062 247.753906 347.214844 L 247.753906 346.640625 C 248.125 346.496094 248.496094 346.351562 248.867188 346.207031 L 249.492188 345.964844 C 250.050781 345.777344 250.050781 345.777344 250.628906 345.777344 " fill-opacity="1" fill-rule="nonzero"/><path fill="#fefefe" d="M 212.710938 170.117188 L 214.148438 170.980469 C 213.914062 171.535156 213.914062 171.535156 213.574219 172.128906 L 212.710938 172.417969 Z M 216.445312 164.078125 L 216.734375 164.078125 C 216.800781 164.953125 216.835938 165.796875 216.734375 166.667969 C 216.160156 167.402344 216.160156 167.402344 215.585938 167.816406 L 215.011719 167.527344 L 215.566406 166.773438 C 216.152344 165.816406 216.339844 165.183594 216.445312 164.078125 " fill-opacity="1" fill-rule="nonzero"/><path fill="#000000" d="M 234.253906 152.292969 L 233.96875 153.152344 L 231.667969 153.152344 L 231.957031 152.578125 C 232.730469 152.414062 233.460938 152.292969 234.253906 152.292969 " fill-opacity="1" fill-rule="nonzero"/></svg>