<svg xmlns="http://www.w3.org/2000/svg" xmlns:xlink="http://www.w3.org/1999/xlink" width="500" zoomAndPan="magnify" viewBox="0 0 375 374.999991" height="500" preserveAspectRatio="xMidYMid meet" version="1.0"><defs><clipPath id="853303db9a"><path d="M 28 52 L 347 52 L 347 313 L 28 313 Z M 28 52 " clip-rule="nonzero"/></clipPath><clipPath id="6d5f982c64"><path d="M 28.492188 69.5 L 333.269531 52.53125 L 346.820312 295.902344 L 42.039062 312.871094 Z M 28.492188 69.5 " clip-rule="nonzero"/></clipPath><clipPath id="859cb4b087"><path d="M 28.492188 69.5 L 333.269531 52.53125 L 346.820312 295.902344 L 42.039062 312.871094 Z M 28.492188 69.5 " clip-rule="nonzero"/></clipPath><clipPath id="45e8aedd4e"><path d="M 28.492188 69.5 L 333.269531 52.53125 L 346.820312 295.902344 L 42.039062 312.871094 Z M 28.492188 69.5 " clip-rule="nonzero"/></clipPath><clipPath id="bfa77b71a6"><path d="M 35 53 L 340 53 L 340 269 L 35 269 Z M 35 53 " clip-rule="nonzero"/></clipPath><clipPath id="10a48701b8"><path d="M 28.492188 69.5 L 333.269531 52.53125 L 346.820312 295.902344 L 42.039062 312.871094 Z M 28.492188 69.5 " clip-rule="nonzero"/></clipPath><clipPath id="7b9983f896"><path d="M 28.492188 69.5 L 333.269531 52.53125 L 346.820312 295.902344 L 42.039062 312.871094 Z M 28.492188 69.5 " clip-rule="nonzero"/></clipPath><clipPath id="31c056e01b"><path d="M 28.492188 69.5 L 333.269531 52.53125 L 346.820312 295.902344 L 42.039062 312.871094 Z M 28.492188 69.5 " clip-rule="nonzero"/></clipPath><clipPath id="3c859c5db6"><path d="M 34 145 L 342 145 L 342 283 L 34 283 Z M 34 145 " clip-rule="nonzero"/></clipPath><clipPath id="8af601e708"><path d="M 28.492188 69.5 L 333.269531 52.53125 L 346.820312 295.902344 L 42.039062 312.871094 Z M 28.492188 69.5 " clip-rule="nonzero"/></clipPath><clipPath id="63ea528dbb"><path d="M 28.492188 69.5 L 333.269531 52.53125 L 346.820312 295.902344 L 42.039062 312.871094 Z M 28.492188 69.5 " clip-rule="nonzero"/></clipPath><clipPath id="ffd0496453"><path d="M 28.492188 69.5 L 333.269531 52.53125 L 346.820312 295.902344 L 42.039062 312.871094 Z M 28.492188 69.5 " clip-rule="nonzero"/></clipPath><clipPath id="cd081d0c1f"><path d="M 34 163 L 341 163 L 341 297 L 34 297 Z M 34 163 " clip-rule="nonzero"/></clipPath><clipPath id="353bb07a5b"><path d="M 28.492188 69.5 L 333.269531 52.53125 L 346.820312 295.902344 L 42.039062 312.871094 Z M 28.492188 69.5 " clip-rule="nonzero"/></clipPath><clipPath id="1dc1c5c0bc"><path d="M 28.492188 69.5 L 333.269531 52.53125 L 346.820312 295.902344 L 42.039062 312.871094 Z M 28.492188 69.5 " clip-rule="nonzero"/></clipPath><clipPath id="b880fa6e28"><path d="M 28.492188 69.5 L 333.269531 52.53125 L 346.820312 295.902344 L 42.039062 312.871094 Z M 28.492188 69.5 " clip-rule="nonzero"/></clipPath><clipPath id="f495cdad30"><path d="M 34 181 L 341 181 L 341 312 L 34 312 Z M 34 181 " clip-rule="nonzero"/></clipPath><clipPath id="b495508a3d"><path d="M 28.492188 69.5 L 333.269531 52.53125 L 346.820312 295.902344 L 42.039062 312.871094 Z M 28.492188 69.5 " clip-rule="nonzero"/></clipPath><clipPath id="b152d11f8c"><path d="M 28.492188 69.5 L 333.269531 52.53125 L 346.820312 295.902344 L 42.039062 312.871094 Z M 28.492188 69.5 " clip-rule="nonzero"/></clipPath><clipPath id="50596976ba"><path d="M 28.492188 69.5 L 333.269531 52.53125 L 346.820312 295.902344 L 42.039062 312.871094 Z M 28.492188 69.5 " clip-rule="nonzero"/></clipPath><clipPath id="6e7dbc49dd"><path d="M 63 71 L 312 71 L 312 250 L 63 250 Z M 63 71 " clip-rule="nonzero"/></clipPath><clipPath id="ee5ad162fa"><path d="M 28.492188 69.5 L 333.269531 52.53125 L 346.820312 295.902344 L 42.039062 312.871094 Z M 28.492188 69.5 " clip-rule="nonzero"/></clipPath><clipPath id="3529d8f0b2"><path d="M 28.492188 69.5 L 333.269531 52.53125 L 346.820312 295.902344 L 42.039062 312.871094 Z M 28.492188 69.5 " clip-rule="nonzero"/></clipPath><clipPath id="dc6aafee34"><path d="M 28.492188 69.5 L 333.269531 52.53125 L 346.820312 295.902344 L 42.039062 312.871094 Z M 28.492188 69.5 " clip-rule="nonzero"/></clipPath><clipPath id="34a757850d"><path d="M 74 80 L 301 80 L 301 241 L 74 241 Z M 74 80 " clip-rule="nonzero"/></clipPath><clipPath id="1a59cb6239"><path d="M 28.492188 69.5 L 333.269531 52.53125 L 346.820312 295.902344 L 42.039062 312.871094 Z M 28.492188 69.5 " clip-rule="nonzero"/></clipPath><clipPath id="c3639d7c3d"><path d="M 28.492188 69.5 L 333.269531 52.53125 L 346.820312 295.902344 L 42.039062 312.871094 Z M 28.492188 69.5 " clip-rule="nonzero"/></clipPath><clipPath id="d8d2f3bf6d"><path d="M 28.492188 69.5 L 333.269531 52.53125 L 346.820312 295.902344 L 42.039062 312.871094 Z M 28.492188 69.5 " clip-rule="nonzero"/></clipPath><clipPath id="d5b3dd425f"><path d="M 133 112 L 242 112 L 242 208 L 133 208 Z M 133 112 " clip-rule="nonzero"/></clipPath><clipPath id="5f446c9bc7"><path d="M 28.492188 69.5 L 333.269531 52.53125 L 346.820312 295.902344 L 42.039062 312.871094 Z M 28.492188 69.5 " clip-rule="nonzero"/></clipPath><clipPath id="b0bebadf22"><path d="M 28.492188 69.5 L 333.269531 52.53125 L 346.820312 295.902344 L 42.039062 312.871094 Z M 28.492188 69.5 " clip-rule="nonzero"/></clipPath><clipPath id="ac75aae480"><path d="M 28.492188 69.5 L 333.269531 52.53125 L 346.820312 295.902344 L 42.039062 312.871094 Z M 28.492188 69.5 " clip-rule="nonzero"/></clipPath><clipPath id="b35aa2a49e"><path d="M 141 119 L 235 119 L 235 200 L 141 200 Z M 141 119 " clip-rule="nonzero"/></clipPath><clipPath id="9e2926cded"><path d="M 28.492188 69.5 L 333.269531 52.53125 L 346.820312 295.902344 L 42.039062 312.871094 Z M 28.492188 69.5 " clip-rule="nonzero"/></clipPath><clipPath id="a080b8906a"><path d="M 28.492188 69.5 L 333.269531 52.53125 L 346.820312 295.902344 L 42.039062 312.871094 Z M 28.492188 69.5 " clip-rule="nonzero"/></clipPath><clipPath id="39601e2345"><path d="M 28.492188 69.5 L 333.269531 52.53125 L 346.820312 295.902344 L 42.039062 312.871094 Z M 28.492188 69.5 " clip-rule="nonzero"/></clipPath><clipPath id="751dacf83c"><path d="M 39 59 L 338 59 L 338 307 L 39 307 Z M 39 59 " clip-rule="nonzero"/></clipPath><clipPath id="c223077233"><path d="M 28.492188 69.5 L 333.269531 52.53125 L 346.820312 295.902344 L 42.039062 312.871094 Z M 28.492188 69.5 " clip-rule="nonzero"/></clipPath><clipPath id="e5fd4f5f9f"><path d="M 28.492188 69.5 L 333.269531 52.53125 L 346.820312 295.902344 L 42.039062 312.871094 Z M 28.492188 69.5 " clip-rule="nonzero"/></clipPath><clipPath id="a16b5dfe54"><path d="M 28.492188 69.5 L 333.269531 52.53125 L 346.820312 295.902344 L 42.039062 312.871094 Z M 28.492188 69.5 " clip-rule="nonzero"/></clipPath><clipPath id="35ef0233f2"><path d="M 77 86 L 297 86 L 297 236 L 77 236 Z M 77 86 " clip-rule="nonzero"/></clipPath><clipPath id="63749120b0"><path d="M 28.492188 69.5 L 333.269531 52.53125 L 346.820312 295.902344 L 42.039062 312.871094 Z M 28.492188 69.5 " clip-rule="nonzero"/></clipPath><clipPath id="e7874c3196"><path d="M 28.492188 69.5 L 333.269531 52.53125 L 346.820312 295.902344 L 42.039062 312.871094 Z M 28.492188 69.5 " clip-rule="nonzero"/></clipPath><clipPath id="b0d75d45f5"><path d="M 28.492188 69.5 L 333.269531 52.53125 L 346.820312 295.902344 L 42.039062 312.871094 Z M 28.492188 69.5 " clip-rule="nonzero"/></clipPath><clipPath id="b4946dbe61"><path d="M 148 126 L 228 126 L 228 194 L 148 194 Z M 148 126 " clip-rule="nonzero"/></clipPath><clipPath id="03bb1dd5a7"><path d="M 28.492188 69.5 L 333.269531 52.53125 L 346.820312 295.902344 L 42.039062 312.871094 Z M 28.492188 69.5 " clip-rule="nonzero"/></clipPath><clipPath id="21f0b1d380"><path d="M 28.492188 69.5 L 333.269531 52.53125 L 346.820312 295.902344 L 42.039062 312.871094 Z M 28.492188 69.5 " clip-rule="nonzero"/></clipPath><clipPath id="3331b42970"><path d="M 28.492188 69.5 L 333.269531 52.53125 L 346.820312 295.902344 L 42.039062 312.871094 Z M 28.492188 69.5 " clip-rule="nonzero"/></clipPath><clipPath id="1a41f37318"><path d="M 49 67 L 326 67 L 326 254 L 49 254 Z M 49 67 " clip-rule="nonzero"/></clipPath><clipPath id="9d85804faa"><path d="M 28.492188 69.5 L 333.269531 52.53125 L 346.820312 295.902344 L 42.039062 312.871094 Z M 28.492188 69.5 " clip-rule="nonzero"/></clipPath><clipPath id="939266d554"><path d="M 28.492188 69.5 L 333.269531 52.53125 L 346.820312 295.902344 L 42.039062 312.871094 Z M 28.492188 69.5 " clip-rule="nonzero"/></clipPath><clipPath id="2f30fe6a24"><path d="M 28.492188 69.5 L 333.269531 52.53125 L 346.820312 295.902344 L 42.039062 312.871094 Z M 28.492188 69.5 " clip-rule="nonzero"/></clipPath><clipPath id="892c2a6b5a"><path d="M 88 94 L 287 94 L 287 227 L 88 227 Z M 88 94 " clip-rule="nonzero"/></clipPath><clipPath id="6a95cdcd9f"><path d="M 28.492188 69.5 L 333.269531 52.53125 L 346.820312 295.902344 L 42.039062 312.871094 Z M 28.492188 69.5 " clip-rule="nonzero"/></clipPath><clipPath id="73031d3748"><path d="M 28.492188 69.5 L 333.269531 52.53125 L 346.820312 295.902344 L 42.039062 312.871094 Z M 28.492188 69.5 " clip-rule="nonzero"/></clipPath><clipPath id="12988ecff1"><path d="M 28.492188 69.5 L 333.269531 52.53125 L 346.820312 295.902344 L 42.039062 312.871094 Z M 28.492188 69.5 " clip-rule="nonzero"/></clipPath><clipPath id="b9398644f8"><path d="M 155 134 L 221 134 L 221 186 L 155 186 Z M 155 134 " clip-rule="nonzero"/></clipPath><clipPath id="a3c8aed0ad"><path d="M 28.492188 69.5 L 333.269531 52.53125 L 346.820312 295.902344 L 42.039062 312.871094 Z M 28.492188 69.5 " clip-rule="nonzero"/></clipPath><clipPath id="da6960c061"><path d="M 28.492188 69.5 L 333.269531 52.53125 L 346.820312 295.902344 L 42.039062 312.871094 Z M 28.492188 69.5 " clip-rule="nonzero"/></clipPath><clipPath id="86ce002133"><path d="M 28.492188 69.5 L 333.269531 52.53125 L 346.820312 295.902344 L 42.039062 312.871094 Z M 28.492188 69.5 " clip-rule="nonzero"/></clipPath><clipPath id="fff90f6d25"><path d="M 49 160 L 328 160 L 328 269 L 49 269 Z M 49 160 " clip-rule="nonzero"/></clipPath><clipPath id="387c21016f"><path d="M 28.492188 69.5 L 333.269531 52.53125 L 346.820312 295.902344 L 42.039062 312.871094 Z M 28.492188 69.5 " clip-rule="nonzero"/></clipPath><clipPath id="a241b3d93f"><path d="M 28.492188 69.5 L 333.269531 52.53125 L 346.820312 295.902344 L 42.039062 312.871094 Z M 28.492188 69.5 " clip-rule="nonzero"/></clipPath><clipPath id="b75b0c6442"><path d="M 28.492188 69.5 L 333.269531 52.53125 L 346.820312 295.902344 L 42.039062 312.871094 Z M 28.492188 69.5 " clip-rule="nonzero"/></clipPath><clipPath id="bea95f742c"><path d="M 48 177 L 327 177 L 327 283 L 48 283 Z M 48 177 " clip-rule="nonzero"/></clipPath><clipPath id="ba05312ca8"><path d="M 28.492188 69.5 L 333.269531 52.53125 L 346.820312 295.902344 L 42.039062 312.871094 Z M 28.492188 69.5 " clip-rule="nonzero"/></clipPath><clipPath id="2adb97ea8b"><path d="M 28.492188 69.5 L 333.269531 52.53125 L 346.820312 295.902344 L 42.039062 312.871094 Z M 28.492188 69.5 " clip-rule="nonzero"/></clipPath><clipPath id="6824a9530e"><path d="M 28.492188 69.5 L 333.269531 52.53125 L 346.820312 295.902344 L 42.039062 312.871094 Z M 28.492188 69.5 " clip-rule="nonzero"/></clipPath><clipPath id="71b486e34b"><path d="M 48 195 L 327 195 L 327 298 L 48 298 Z M 48 195 " clip-rule="nonzero"/></clipPath><clipPath id="63e39653db"><path d="M 28.492188 69.5 L 333.269531 52.53125 L 346.820312 295.902344 L 42.039062 312.871094 Z M 28.492188 69.5 " clip-rule="nonzero"/></clipPath><clipPath id="99fe0f0c31"><path d="M 28.492188 69.5 L 333.269531 52.53125 L 346.820312 295.902344 L 42.039062 312.871094 Z M 28.492188 69.5 " clip-rule="nonzero"/></clipPath><clipPath id="ffaaaf8706"><path d="M 28.492188 69.5 L 333.269531 52.53125 L 346.820312 295.902344 L 42.039062 312.871094 Z M 28.492188 69.5 " clip-rule="nonzero"/></clipPath></defs><g clip-path="url(#853303db9a)"><g clip-path="url(#6d5f982c64)"><g clip-path="url(#859cb4b087)"><g clip-path="url(#45e8aedd4e)"><path stroke-linecap="butt" transform="matrix(0.181199, -0.0100879, 0.0100851, 0.181149, -3.832962, 11.242806)" fill="none" stroke-linejoin="miter" d="M 220.408987 945.141975 C 208.756773 958.121398 170.757722 968.059449 192.206215 997.524012 C 200.296403 1008.648618 207.8997 1017.675987 215.0364 1024.628811 C 215.262034 1024.83545 215.464982 1025.06239 215.645241 1025.30963 C 217.776142 1028.080643 217.227639 1032.125654 214.435903 1034.255948 C 214.187535 1034.457755 213.920069 1034.61537 213.652602 1034.772986 C 195.867338 1044.844777 166.473431 1062.85249 186.205612 1087.13242 C 194.116873 1096.823852 201.532731 1105.732963 208.47707 1113.817955 C 209.530003 1115.041036 210.11128 1116.604436 210.108706 1118.200013 C 210.110826 1120.485893 208.958404 1122.599659 207.035979 1123.829557 C 193.428564 1132.430467 184.602132 1138.019926 180.535191 1140.596737 C 173.424602 1145.181995 170.495922 1154.420715 173.503736 1162.739328 C 176.73355 1171.717218 182.162692 1180.300054 189.788767 1188.530831 C 210.574243 1210.928675 348.808413 1368.473503 604.469787 1661.164116 C 608.16223 1665.315916 615.989904 1664.889275 627.9934 1659.929582 C 818.532929 1581.093825 1127.261378 1454.067795 1554.157256 1278.850296 C 1633.117856 1246.416533 1710.669563 1214.119949 1786.771788 1181.915156 C 1806.861215 1173.438018 1824.313525 1161.989166 1807.8227 1139.895176 C 1798.033737 1126.75679 1787.934463 1112.609189 1777.54517 1097.475066 C 1776.886212 1096.532691 1776.518605 1095.390902 1776.518742 1094.226465 C 1776.532175 1091.661122 1778.252941 1089.406496 1780.705422 1088.723646 C 1784.579957 1087.66715 1791.67955 1085.216094 1802.024497 1081.393175 C 1817.760419 1075.606272 1828.036364 1059.466586 1817.749605 1045.588873 C 1809.947087 1035.105637 1798.259947 1020.050186 1782.710873 1000.40222 C 1782.488827 1000.131089 1782.289469 999.839658 1782.112799 999.527927 C 1780.546652 996.680545 1781.633586 993.032103 1784.524357 991.446418 C 1784.834806 991.291196 1785.145255 991.135974 1785.474802 991.024944 C 1802.914511 985.225103 1836.11339 979.030603 1825.68372 951.840073 C 1824.95205 949.88015 1823.88844 948.074252 1822.508399 946.531062 L 1786.028196 904.390886 C 1785.562613 903.847427 1785.297631 903.185757 1785.315624 902.475154 C 1785.296662 901.266526 1786.068088 900.188168 1787.191659 899.754771 C 1818.163177 888.64907 1839.627617 873.671548 1810.312421 841.461575 C 1611.667268 622.826287 1460.961884 457.341523 1358.152091 345.026388 C 1353.175098 339.552354 1345.113641 337.982107 1338.361405 341.164111 C 934.919214 531.121951 560.506367 706.523547 215.12047 867.411893 C 201.488247 873.747223 193.704161 879.200654 191.726426 883.748296 C 184.057959 901.068251 209.791016 925.207957 220.486289 937.555826 C 222.370109 939.730857 222.339879 942.985306 220.430479 945.143172 " stroke="#818181" stroke-width="13.8" stroke-opacity="1" stroke-miterlimit="4"/></g></g></g></g><g clip-path="url(#bfa77b71a6)"><g clip-path="url(#10a48701b8)"><g clip-path="url(#7b9983f896)"><g clip-path="url(#31c056e01b)"><path stroke-linecap="butt" transform="matrix(0.181199, -0.0100879, 0.0100851, 0.181149, -3.832962, 11.242806)" fill="none" stroke-linejoin="miter" d="M 667.039352 1376.319069 C 667.913222 1377.273413 669.319677 1377.567374 670.493408 1377.007387 L 1766.97395 861.733232 C 1768.03544 861.25325 1768.718508 860.213099 1768.718645 859.048662 C 1768.716343 858.315365 1768.45495 857.589203 1767.946385 857.043351 L 1340.709217 388.066719 C 1339.835348 387.112376 1338.427697 386.839912 1337.255161 387.378401 L 248.14177 899.267594 C 247.122067 899.771467 246.460489 900.812815 246.461549 901.955754 C 246.465048 902.667554 246.728834 903.350722 247.194416 903.89418 L 667.039352 1376.319069 " stroke="#576b3d" stroke-width="13.8" stroke-opacity="1" stroke-miterlimit="4"/></g></g></g></g><g clip-path="url(#3c859c5db6)"><g clip-path="url(#8af601e708)"><g clip-path="url(#63ea528dbb)"><g clip-path="url(#ffd0496453)"><path stroke-linecap="butt" transform="matrix(0.181199, -0.0100879, 0.0100851, 0.181149, -3.832962, 11.242806)" fill="none" stroke-linejoin="miter" d="M 1772.980431 946.317454 L 1751.315239 921.908315 C 1748.961052 919.275814 1745.170316 918.439364 1741.945257 919.833922 C 1705.24098 935.558482 1671.640553 955.164863 1638.867045 968.822559 C 1597.484637 986.09796 1525.171861 1019.936992 1421.974092 1070.299053 C 1365.886841 1097.688406 1311.519567 1119.351319 1251.704447 1149.42262 C 1150.437252 1200.345032 1025.917272 1254.2206 947.616144 1293.397427 C 885.211176 1324.683023 840.158059 1345.937383 812.474695 1357.226195 C 763.004053 1377.285743 730.160786 1395.295441 676.144141 1420.34183 C 658.350728 1428.623373 650.619953 1417.238453 639.919848 1405.364718 C 556.629065 1312.638299 485.54627 1232.581191 426.630872 1165.148007 C 387.777338 1120.719284 333.217263 1065.669056 293.545397 1015.027517 C 283.819621 1002.69051 268.090711 989.372285 258.839028 976.263819 C 257.199987 973.951473 254.537607 972.595637 251.713885 972.589335 C 249.557585 972.598637 247.48716 973.389017 245.877531 974.808845 L 240.776392 979.311932 C 236.832325 982.779701 236.471034 988.883698 239.937842 992.828859 L 649.863445 1454.070406 C 651.790247 1456.247831 654.943426 1456.919394 657.596552 1455.730187 L 1770.974677 955.629134 C 1771.261241 955.515709 1771.50602 955.378394 1771.774682 955.199281 C 1774.503096 953.432045 1775.289153 949.766847 1773.542701 947.060371 C 1773.385129 946.792831 1773.183378 946.544394 1772.980431 946.317454 " stroke="#3e5c2c" stroke-width="13.8" stroke-opacity="1" stroke-miterlimit="4"/></g></g></g></g><g clip-path="url(#cd081d0c1f)"><g clip-path="url(#353bb07a5b)"><g clip-path="url(#1dc1c5c0bc)"><g clip-path="url(#b880fa6e28)"><path stroke-linecap="butt" transform="matrix(0.181199, -0.0100879, 0.0100851, 0.181149, -3.832962, 11.242806)" fill="none" stroke-linejoin="miter" d="M 232.280462 1068.436358 C 229.672575 1070.749401 229.44644 1074.812364 231.779137 1077.443668 C 231.779137 1077.443668 231.799432 1077.466362 231.799432 1077.466362 L 636.549881 1532.920947 C 637.786662 1534.326777 639.767397 1534.760537 641.446194 1534.034603 L 1761.730386 1052.776743 C 1764.379923 1051.652028 1766.121028 1049.031949 1766.10823 1046.163252 C 1766.120377 1044.395698 1765.460314 1042.698528 1764.28322 1041.382278 L 1743.123003 1017.583482 C 1740.690029 1014.817211 1736.658104 1014.053585 1733.396 1015.726409 C 1685.639459 1039.461002 1635.289011 1058.285547 1592.2418 1079.134082 C 1476.97123 1134.926381 1355.207547 1183.435112 1252.053866 1234.554362 C 1241.522495 1239.79011 1196.588935 1259.671045 1117.255578 1294.154173 C 1026.189737 1333.763034 946.862832 1374.327511 868.152902 1407.292764 C 821.42485 1426.879693 754.955833 1456.429503 668.767343 1495.943391 C 653.655726 1502.907941 642.222452 1501.883092 631.654884 1489.952046 C 561.625112 1410.341728 479.810649 1322.851269 393.990477 1224.830246 C 353.290123 1178.336372 304.971978 1124.237533 249.05514 1062.577919 C 246.535005 1059.828358 242.235568 1059.610493 239.467671 1062.087136 L 232.280462 1068.436358 " stroke="#3e5c2c" stroke-width="13.8" stroke-opacity="1" stroke-miterlimit="4"/></g></g></g></g><g clip-path="url(#f495cdad30)"><g clip-path="url(#b495508a3d)"><g clip-path="url(#b152d11f8c)"><g clip-path="url(#50596976ba)"><path stroke-linecap="butt" transform="matrix(0.181199, -0.0100879, 0.0100851, 0.181149, -3.832962, 11.242806)" fill="none" stroke-linejoin="miter" d="M 245.669285 1152.461321 C 243.578928 1150.123842 239.948112 1149.900084 237.590986 1151.968326 L 226.632835 1161.773394 C 224.296004 1163.86433 224.072308 1167.496154 226.139977 1169.853933 L 619.575542 1612.473304 C 621.178825 1614.266128 623.752938 1614.88388 626.001275 1613.995588 L 1755.930625 1150.396501 C 1758.071506 1149.502225 1759.460331 1147.401624 1759.459407 1145.094247 C 1759.472705 1143.693341 1758.945133 1142.327006 1758.011576 1141.283084 L 1733.927723 1114.237853 C 1732.28385 1112.399641 1729.642871 1111.821293 1727.368256 1112.794377 L 633.237964 1582.742943 C 630.984841 1583.717223 628.32237 1583.137679 626.679694 1581.27797 L 245.669285 1152.461321 " stroke="#3e5c2c" stroke-width="13.8" stroke-opacity="1" stroke-miterlimit="4"/></g></g></g></g><g clip-path="url(#6e7dbc49dd)"><g clip-path="url(#ee5ad162fa)"><g clip-path="url(#3529d8f0b2)"><g clip-path="url(#dc6aafee34)"><path stroke-linecap="butt" transform="matrix(0.181199, -0.0100879, 0.0100851, 0.181149, -3.832962, 11.242806)" fill="none" stroke-linejoin="miter" d="M 620.349313 1244.551866 C 662.614466 1223.810726 702.725424 1225.893496 740.727565 1250.759575 C 742.328546 1251.819102 743.83399 1253.045819 745.202112 1254.415835 L 770.943362 1279.957643 C 772.514431 1281.554599 774.946481 1282.013493 777.004987 1281.049938 L 1584.714364 901.417402 C 1589.938241 898.96971 1593.27121 893.699679 1593.268302 887.941984 C 1593.282932 885.355144 1592.605058 882.815995 1591.327778 880.588486 C 1585.897577 870.86271 1576.376913 860.650377 1572.303232 849.404423 C 1559.128519 813.047361 1585.326492 792.424963 1612.718081 774.758584 C 1615.55754 772.93284 1617.261691 769.814737 1617.254921 766.450409 C 1617.258783 764.057043 1616.375523 761.722094 1614.793731 759.930467 L 1401.006913 519.362575 C 1396.848888 514.667316 1390.427986 512.670898 1384.372026 514.188137 C 1372.982476 517.025642 1360.17166 523.708608 1346.302338 525.782667 C 1301.804932 532.404596 1268.882183 515.433398 1237.571712 484.600213 C 1234.588342 481.652345 1230.082414 480.883886 1226.318834 482.658167 L 435.722284 854.230025 C 435.478702 854.345843 435.23512 854.461661 434.990341 854.598977 C 427.748503 858.443757 424.973851 867.626362 428.83786 874.892903 C 428.975137 875.137749 429.112414 875.382595 429.250888 875.605945 C 457.262966 922.320472 444.488408 955.852376 400.261998 983.169072 C 396.489997 985.481979 394.191135 989.602026 394.181063 994.043606 C 394.179503 997.170269 395.346844 1000.211079 397.4372 1002.548558 L 610.881401 1242.687658 C 613.254687 1245.36435 617.134977 1246.141096 620.349313 1244.551866 " stroke="#576b3d" stroke-width="13.8" stroke-opacity="1" stroke-miterlimit="4"/></g></g></g></g><g clip-path="url(#34a757850d)"><g clip-path="url(#1a59cb6239)"><g clip-path="url(#c3639d7c3d)"><g clip-path="url(#d8d2f3bf6d)"><path stroke-linecap="butt" transform="matrix(0.181199, -0.0100879, 0.0100851, 0.181149, -3.832962, 11.242806)" fill="none" stroke-linejoin="miter" d="M 454.628227 1001.03253 L 619.657884 1194.61475 C 621.378149 1196.629726 624.109834 1197.515018 626.688869 1196.882344 C 683.664091 1182.588534 734.610402 1193.727714 779.503918 1230.341681 C 781.338864 1231.845512 783.928531 1232.183801 786.119573 1231.162936 L 1533.040927 880.102748 C 1533.063614 880.082447 1533.086302 880.062147 1533.107793 880.063344 C 1536.406897 878.500399 1537.815048 874.50326 1536.232241 871.180547 C 1536.233438 871.15905 1536.234634 871.137553 1536.213143 871.136356 C 1514.63384 826.979567 1529.792453 795.93088 1557.525251 760.12679 C 1558.708645 758.618535 1558.655167 756.480741 1557.395698 755.095212 L 1381.678796 562.190101 C 1380.112513 560.507156 1377.737803 559.79269 1375.465627 560.334634 C 1321.757159 574.034067 1272.056005 564.150237 1226.384852 530.662842 C 1225.267401 529.824316 1223.745115 529.674851 1222.462731 530.250351 L 481.874512 878.29927 C 479.83989 879.221027 478.84504 881.602334 479.608924 883.758125 C 490.706579 916.376802 487.955811 956.116629 464.360122 981.498595 C 458.880335 987.382242 455.512896 991.334963 454.217214 993.311368 C 452.599119 995.657968 452.765899 998.858696 454.628227 1001.03253 " stroke="#576b3d" stroke-width="13.8" stroke-opacity="1" stroke-miterlimit="4"/></g></g></g></g><g clip-path="url(#d5b3dd425f)"><g clip-path="url(#5f446c9bc7)"><g clip-path="url(#b0bebadf22)"><g clip-path="url(#ac75aae480)"><path stroke-linecap="butt" transform="matrix(0.181199, -0.0100879, 0.0100851, 0.181149, -3.832962, 11.242806)" fill="none" stroke-linejoin="miter" d="M 805.434738 778.773608 C 763.385059 866.137298 820.710365 982.280791 932.426815 1036.050264 C 1044.143264 1089.819737 1170.67439 1062.169918 1212.725266 974.784731 C 1254.774946 887.421042 1197.448443 771.299046 1085.731993 717.529573 C 974.015544 663.7601 847.484418 691.409919 805.434738 778.773608 " stroke="#576b3d" stroke-width="13.8" stroke-opacity="1" stroke-miterlimit="4"/></g></g></g></g><g clip-path="url(#b35aa2a49e)"><g clip-path="url(#9e2926cded)"><g clip-path="url(#a080b8906a)"><g clip-path="url(#39601e2345)"><path stroke-linecap="butt" transform="matrix(0.181199, -0.0100879, 0.0100851, 0.181149, -3.832962, 11.242806)" fill="none" stroke-linejoin="miter" d="M 840.851119 800.519887 C 810.208497 868.076344 861.029754 958.153598 953.422098 1000.065047 C 1045.835934 1041.977692 1147.08173 1020.876811 1177.724352 953.320354 C 1208.365777 885.785395 1157.54452 795.708141 1065.152176 753.796692 C 972.739536 711.86255 871.493741 732.963431 840.851119 800.519887 " stroke="#3e5c2c" stroke-width="13.8" stroke-opacity="1" stroke-miterlimit="4"/></g></g></g></g><g clip-path="url(#751dacf83c)"><g clip-path="url(#c223077233)"><g clip-path="url(#e5fd4f5f9f)"><g clip-path="url(#a16b5dfe54)"><path fill="#020202" d="M 45.574219 178.855469 C 43.511719 176.726562 38.605469 172.613281 39.820312 169.398438 C 40.132812 168.554688 41.488281 167.488281 43.890625 166.203125 C 104.855469 133.574219 170.929688 98.023438 242.117188 59.542969 C 243.308594 58.898438 244.785156 59.101562 245.742188 60.042969 C 265.5 79.351562 294.480469 107.808594 332.675781 145.410156 C 338.316406 150.953125 334.578125 153.878906 329.078125 156.203125 C 328.875 156.292969 328.75 156.496094 328.761719 156.714844 C 328.769531 156.84375 328.824219 156.960938 328.910156 157.054688 L 335.949219 164.320312 C 336.214844 164.585938 336.425781 164.902344 336.578125 165.25 C 338.738281 170.070312 332.789062 171.527344 329.6875 172.753906 C 329.628906 172.777344 329.570312 172.808594 329.519531 172.839844 C 329.011719 173.15625 328.851562 173.828125 329.164062 174.332031 C 329.199219 174.382812 329.238281 174.433594 329.28125 174.480469 C 332.296875 177.882812 334.5625 180.492188 336.085938 182.3125 C 338.089844 184.722656 336.390625 187.75 333.597656 188.957031 C 331.761719 189.753906 330.496094 190.269531 329.808594 190.5 C 329.367188 190.648438 329.082031 191.074219 329.105469 191.539062 C 329.117188 191.75 329.191406 191.953125 329.320312 192.117188 C 331.359375 194.753906 333.328125 197.214844 335.238281 199.496094 C 338.449219 203.332031 335.402344 205.582031 331.847656 207.320312 C 318.382812 213.921875 304.65625 220.554688 290.675781 227.226562 C 215.089844 263.273438 160.429688 289.398438 126.699219 305.601562 C 124.574219 306.621094 123.15625 306.777344 122.449219 306.0625 C 73.171875 255.621094 46.535156 228.476562 42.542969 224.628906 C 41.074219 223.214844 40.003906 221.714844 39.332031 220.121094 C 38.699219 218.644531 39.140625 216.941406 40.382812 216.039062 C 41.089844 215.53125 42.636719 214.429688 45.015625 212.734375 C 45.347656 212.492188 45.539062 212.097656 45.515625 211.683594 C 45.5 211.394531 45.378906 211.117188 45.175781 210.90625 C 43.835938 209.511719 42.402344 207.972656 40.871094 206.296875 C 37.050781 202.097656 42.191406 198.539062 45.316406 196.535156 C 45.363281 196.503906 45.410156 196.472656 45.453125 196.433594 C 45.933594 196.019531 45.996094 195.28125 45.582031 194.800781 C 45.546875 194.757812 45.507812 194.71875 45.464844 194.683594 C 44.101562 193.496094 42.632812 191.9375 41.054688 190.003906 C 36.867188 184.882812 43.65625 182.699219 45.636719 180.230469 C 45.960938 179.820312 45.933594 179.230469 45.574219 178.855469 Z M 130.914062 253.832031 C 131.082031 253.996094 131.339844 254.035156 131.546875 253.921875 L 325.035156 149.523438 C 325.21875 149.425781 325.332031 149.226562 325.320312 149.015625 C 325.3125 148.882812 325.257812 148.757812 325.160156 148.664062 L 243.015625 68.019531 C 242.847656 67.851562 242.589844 67.816406 242.382812 67.925781 L 50.199219 171.640625 C 50.019531 171.742188 49.910156 171.9375 49.921875 172.144531 C 49.929688 172.273438 49.984375 172.394531 50.074219 172.488281 Z M 326.972656 164.78125 L 322.800781 160.578125 C 322.351562 160.125 321.652344 160.011719 321.082031 160.296875 C 314.589844 163.515625 308.699219 167.40625 302.898438 170.210938 C 295.574219 173.757812 282.8125 180.617188 264.621094 190.78125 C 254.734375 196.308594 245.101562 200.78125 234.566406 206.832031 C 216.730469 217.078125 194.710938 228.09375 180.917969 235.980469 C 169.925781 242.277344 161.976562 246.582031 157.074219 248.902344 C 148.3125 253.039062 142.542969 256.632812 133.007812 261.714844 C 129.867188 263.394531 128.351562 261.410156 126.296875 259.367188 C 110.269531 243.410156 96.578125 229.625 85.222656 218.003906 C 77.734375 210.347656 67.292969 200.925781 59.59375 192.152344 C 57.707031 190.015625 54.722656 187.761719 52.914062 185.480469 C 52.59375 185.078125 52.097656 184.859375 51.585938 184.886719 C 51.195312 184.910156 50.828125 185.074219 50.550781 185.347656 L 49.671875 186.214844 C 48.992188 186.882812 48.988281 187.992188 49.65625 188.671875 L 128.585938 268.089844 C 128.960938 268.464844 129.535156 268.554688 130.003906 268.3125 L 326.707031 166.488281 C 326.753906 166.464844 326.800781 166.4375 326.84375 166.402344 C 327.320312 166.054688 327.429688 165.382812 327.082031 164.910156 C 327.050781 164.863281 327.011719 164.820312 326.972656 164.78125 Z M 50.269531 201.222656 L 49.03125 202.445312 C 48.582031 202.890625 48.582031 203.628906 49.03125 204.082031 C 49.035156 204.082031 49.035156 204.085938 49.035156 204.085938 L 126.96875 282.507812 C 127.207031 282.75 127.570312 282.8125 127.867188 282.660156 L 326.011719 184.179688 C 326.480469 183.949219 326.765625 183.457031 326.738281 182.9375 C 326.71875 182.617188 326.582031 182.316406 326.359375 182.089844 L 322.28125 177.992188 C 321.8125 177.519531 321.074219 177.417969 320.5 177.753906 C 312.089844 182.535156 303.152344 186.453125 295.5625 190.664062 C 275.238281 201.9375 253.664062 211.949219 235.492188 222.25 C 233.636719 223.304688 225.691406 227.359375 211.664062 234.40625 C 195.5625 242.5 181.597656 250.648438 167.667969 257.414062 C 159.398438 261.4375 147.652344 267.460938 132.433594 275.484375 C 129.769531 276.898438 127.683594 276.828125 125.648438 274.773438 C 112.160156 261.058594 96.449219 246.035156 79.910156 229.144531 C 72.066406 221.132812 62.765625 211.820312 52.011719 201.214844 C 51.53125 200.742188 50.746094 200.746094 50.269531 201.222656 Z M 52.304688 217.53125 C 51.902344 217.128906 51.242188 217.125 50.835938 217.523438 L 48.949219 219.410156 C 48.546875 219.8125 48.542969 220.472656 48.941406 220.878906 L 124.695312 297.089844 C 125.003906 297.398438 125.476562 297.484375 125.875 297.300781 L 325.941406 201.921875 C 326.320312 201.738281 326.550781 201.34375 326.53125 200.925781 C 326.515625 200.671875 326.40625 200.429688 326.226562 200.25 L 321.589844 195.59375 C 321.277344 195.277344 320.789062 195.199219 320.390625 195.398438 L 126.871094 291.566406 C 126.472656 291.765625 125.984375 291.6875 125.667969 291.367188 Z M 52.304688 217.53125 " fill-opacity="1" fill-rule="nonzero"/></g></g></g></g><g clip-path="url(#35ef0233f2)"><g clip-path="url(#63749120b0)"><g clip-path="url(#e7874c3196)"><g clip-path="url(#b0d75d45f5)"><path fill="#020202" d="M 119.390625 230.195312 L 78.292969 188.84375 C 77.890625 188.441406 77.648438 187.90625 77.617188 187.335938 C 77.574219 186.535156 77.949219 185.761719 78.609375 185.304688 C 86.347656 179.910156 88.324219 173.707031 82.777344 165.53125 C 82.75 165.488281 82.722656 165.445312 82.695312 165.402344 C 81.921875 164.125 82.332031 162.433594 83.605469 161.664062 C 83.648438 161.636719 83.691406 161.613281 83.734375 161.589844 L 223.242188 86.304688 C 223.90625 85.945312 224.730469 86.039062 225.300781 86.542969 C 231.285156 91.8125 237.421875 94.554688 245.417969 92.90625 C 247.910156 92.390625 250.164062 91.050781 252.199219 90.421875 C 253.28125 90.085938 254.464844 90.382812 255.265625 91.191406 L 296.429688 132.613281 C 296.734375 132.921875 296.917969 133.335938 296.941406 133.769531 C 296.976562 134.378906 296.699219 134.964844 296.203125 135.320312 C 291.417969 138.796875 286.878906 142.796875 289.632812 149.25 C 290.484375 151.246094 292.3125 153 293.394531 154.707031 C 293.648438 155.097656 293.796875 155.550781 293.820312 156.019531 C 293.878906 157.0625 293.328125 158.050781 292.40625 158.546875 L 149.878906 235.464844 C 149.515625 235.660156 149.070312 235.601562 148.769531 235.328125 L 143.847656 230.964844 C 143.585938 230.726562 143.300781 230.519531 143 230.347656 C 135.863281 226.222656 128.574219 226.25 121.125 230.433594 C 120.558594 230.753906 119.847656 230.652344 119.390625 230.195312 Z M 88.640625 187.992188 L 120.496094 221.394531 C 120.828125 221.746094 121.332031 221.875 121.792969 221.734375 C 131.972656 218.570312 141.316406 220.078125 149.820312 226.253906 C 150.167969 226.511719 150.640625 226.542969 151.027344 226.339844 L 282.828125 155.207031 C 282.832031 155.203125 282.835938 155.203125 282.839844 155.199219 C 283.421875 154.886719 283.636719 154.144531 283.320312 153.558594 C 283.316406 153.558594 283.316406 153.554688 283.3125 153.550781 C 278.957031 145.769531 281.390625 139.992188 286.054688 133.226562 C 286.257812 132.945312 286.222656 132.554688 285.980469 132.316406 L 252.195312 99.148438 C 251.894531 98.855469 251.457031 98.75 251.054688 98.871094 C 241.457031 101.898438 232.351562 100.609375 223.742188 95.003906 C 223.527344 94.859375 223.25 94.847656 223.023438 94.96875 L 92.339844 165.484375 C 91.980469 165.675781 91.824219 166.117188 91.984375 166.496094 C 94.324219 172.296875 94.226562 179.519531 90.207031 184.359375 C 89.273438 185.480469 88.703125 186.226562 88.488281 186.597656 C 88.21875 187.042969 88.28125 187.617188 88.640625 187.992188 Z M 88.640625 187.992188 " fill-opacity="1" fill-rule="nonzero"/></g></g></g></g><g clip-path="url(#b4946dbe61)"><g clip-path="url(#03bb1dd5a7)"><g clip-path="url(#21f0b1d380)"><g clip-path="url(#3331b42970)"><path fill="#020202" d="M 149.964844 144.191406 C 156.703125 127.941406 179.351562 121.65625 200.136719 130.269531 C 220.921875 138.882812 232.480469 159.339844 225.742188 175.589844 C 219.003906 191.84375 196.355469 198.128906 175.570312 189.515625 C 154.785156 180.902344 143.226562 160.441406 149.964844 144.191406 Z M 156.601562 147.773438 C 151.730469 160.320312 161.847656 176.125 179.011719 182.785156 C 196.179688 189.445312 214.3125 184.601562 219.183594 172.054688 C 224.054688 159.511719 213.9375 143.707031 196.773438 137.046875 C 179.605469 130.382812 161.472656 135.226562 156.601562 147.773438 Z M 156.601562 147.773438 " fill-opacity="1" fill-rule="nonzero"/></g></g></g></g><g clip-path="url(#1a41f37318)"><g clip-path="url(#9d85804faa)"><g clip-path="url(#939266d554)"><g clip-path="url(#2f30fe6a24)"><path fill="#abd378" d="M 130.914062 253.832031 L 50.074219 172.488281 C 49.984375 172.394531 49.929688 172.273438 49.921875 172.144531 C 49.910156 171.9375 50.019531 171.742188 50.199219 171.640625 L 242.382812 67.925781 C 242.589844 67.816406 242.847656 67.851562 243.015625 68.015625 L 325.160156 148.660156 C 325.257812 148.753906 325.3125 148.882812 325.320312 149.015625 C 325.332031 149.226562 325.21875 149.421875 325.035156 149.519531 L 131.546875 253.921875 C 131.339844 254.035156 131.082031 253.996094 130.914062 253.832031 Z M 121.125 230.433594 C 128.574219 226.25 135.863281 226.21875 143 230.34375 C 143.300781 230.519531 143.585938 230.726562 143.847656 230.960938 L 148.769531 235.324219 C 149.070312 235.601562 149.515625 235.65625 149.878906 235.464844 L 292.40625 158.546875 C 293.328125 158.046875 293.878906 157.0625 293.820312 156.015625 C 293.796875 155.550781 293.648438 155.097656 293.394531 154.703125 C 292.3125 152.996094 290.484375 151.242188 289.632812 149.25 C 286.878906 142.796875 291.417969 138.792969 296.203125 135.320312 C 296.699219 134.960938 296.976562 134.375 296.941406 133.769531 C 296.917969 133.332031 296.734375 132.921875 296.429688 132.609375 L 255.265625 91.191406 C 254.464844 90.382812 253.28125 90.082031 252.199219 90.421875 C 250.164062 91.046875 247.90625 92.390625 245.417969 92.90625 C 237.421875 94.554688 231.285156 91.8125 225.300781 86.539062 C 224.730469 86.039062 223.90625 85.945312 223.242188 86.304688 L 83.734375 161.589844 C 83.691406 161.613281 83.648438 161.636719 83.605469 161.660156 C 82.332031 162.433594 81.921875 164.121094 82.695312 165.402344 C 82.722656 165.445312 82.75 165.488281 82.777344 165.527344 C 88.324219 173.707031 86.347656 179.910156 78.609375 185.304688 C 77.949219 185.761719 77.574219 186.53125 77.617188 187.335938 C 77.648438 187.902344 77.890625 188.441406 78.292969 188.84375 L 119.390625 230.191406 C 119.847656 230.652344 120.558594 230.753906 121.125 230.433594 Z M 121.125 230.433594 " fill-opacity="1" fill-rule="nonzero"/></g></g></g></g><g clip-path="url(#892c2a6b5a)"><g clip-path="url(#6a95cdcd9f)"><g clip-path="url(#73031d3748)"><g clip-path="url(#12988ecff1)"><path fill="#abd378" d="M 88.488281 186.597656 C 88.703125 186.226562 89.273438 185.480469 90.207031 184.355469 C 94.226562 179.519531 94.324219 172.292969 91.984375 166.496094 C 91.824219 166.113281 91.980469 165.671875 92.339844 165.484375 L 223.023438 94.96875 C 223.25 94.847656 223.527344 94.859375 223.742188 95.003906 C 232.351562 100.605469 241.457031 101.898438 251.054688 98.871094 C 251.457031 98.75 251.894531 98.855469 252.195312 99.148438 L 285.980469 132.316406 C 286.222656 132.554688 286.253906 132.941406 286.054688 133.226562 C 281.390625 139.992188 278.957031 145.769531 283.3125 153.550781 C 283.316406 153.554688 283.316406 153.554688 283.320312 153.558594 C 283.636719 154.144531 283.421875 154.886719 282.839844 155.199219 C 282.835938 155.203125 282.832031 155.203125 282.828125 155.207031 L 151.027344 226.339844 C 150.640625 226.542969 150.167969 226.511719 149.820312 226.253906 C 141.316406 220.074219 131.972656 218.570312 121.792969 221.734375 C 121.332031 221.875 120.828125 221.742188 120.496094 221.394531 L 88.640625 187.992188 C 88.28125 187.617188 88.21875 187.042969 88.488281 186.597656 Z M 149.964844 144.191406 C 143.226562 160.441406 154.785156 180.902344 175.570312 189.515625 C 196.355469 198.128906 219.003906 191.84375 225.742188 175.589844 C 232.480469 159.339844 220.921875 138.882812 200.136719 130.269531 C 179.351562 121.65625 156.703125 127.941406 149.964844 144.191406 Z M 149.964844 144.191406 " fill-opacity="1" fill-rule="nonzero"/></g></g></g></g><g clip-path="url(#b9398644f8)"><g clip-path="url(#a3c8aed0ad)"><g clip-path="url(#da6960c061)"><g clip-path="url(#86ce002133)"><path fill="#7ab556" d="M 179.011719 182.785156 C 161.742188 176.082031 151.703125 160.394531 156.601562 147.773438 C 161.503906 135.148438 179.503906 130.34375 196.773438 137.042969 C 214.042969 143.746094 224.085938 159.433594 219.183594 172.054688 C 214.285156 184.679688 196.285156 189.484375 179.011719 182.785156 Z M 179.011719 182.785156 " fill-opacity="1" fill-rule="evenodd"/></g></g></g></g><g clip-path="url(#fff90f6d25)"><g clip-path="url(#387c21016f)"><g clip-path="url(#a241b3d93f)"><g clip-path="url(#b75b0c6442)"><path fill="#7ab556" d="M 326.972656 164.78125 C 327.011719 164.820312 327.050781 164.863281 327.082031 164.910156 C 327.425781 165.382812 327.320312 166.054688 326.839844 166.402344 C 326.796875 166.4375 326.753906 166.464844 326.703125 166.488281 L 130.003906 268.3125 C 129.535156 268.554688 128.957031 268.464844 128.585938 268.089844 L 49.65625 188.671875 C 48.988281 187.992188 48.992188 186.882812 49.671875 186.214844 L 50.550781 185.347656 C 50.828125 185.074219 51.195312 184.910156 51.585938 184.886719 C 52.097656 184.859375 52.59375 185.078125 52.914062 185.480469 C 54.722656 187.761719 57.707031 190.015625 59.59375 192.152344 C 67.292969 200.925781 77.734375 210.347656 85.222656 218.003906 C 96.574219 229.625 110.265625 243.410156 126.292969 259.367188 C 128.351562 261.410156 129.867188 263.394531 133.007812 261.714844 C 142.542969 256.632812 148.3125 253.039062 157.074219 248.902344 C 161.976562 246.582031 169.925781 242.277344 180.917969 235.980469 C 194.710938 228.09375 216.730469 217.078125 234.566406 206.832031 C 245.101562 200.78125 254.734375 196.308594 264.621094 190.78125 C 282.8125 180.617188 295.574219 173.757812 302.898438 170.210938 C 308.699219 167.40625 314.589844 163.515625 321.082031 160.296875 C 321.652344 160.011719 322.347656 160.125 322.800781 160.578125 Z M 326.972656 164.78125 " fill-opacity="1" fill-rule="nonzero"/></g></g></g></g><g clip-path="url(#bea95f742c)"><g clip-path="url(#ba05312ca8)"><g clip-path="url(#2adb97ea8b)"><g clip-path="url(#6824a9530e)"><path fill="#7ab556" d="M 49.03125 202.445312 L 50.269531 201.222656 C 50.746094 200.746094 51.527344 200.742188 52.011719 201.214844 C 62.765625 211.820312 72.066406 221.132812 79.910156 229.144531 C 96.449219 246.039062 112.15625 261.058594 125.648438 274.773438 C 127.679688 276.828125 129.765625 276.902344 132.433594 275.484375 C 147.652344 267.460938 159.398438 261.4375 167.667969 257.417969 C 181.597656 250.648438 195.5625 242.5 211.664062 234.40625 C 225.691406 227.359375 233.632812 223.308594 235.488281 222.25 C 253.660156 211.949219 275.234375 201.9375 295.5625 190.664062 C 303.152344 186.457031 312.085938 182.535156 320.496094 177.753906 C 321.074219 177.417969 321.8125 177.519531 322.277344 177.996094 L 326.355469 182.09375 C 326.582031 182.316406 326.71875 182.621094 326.734375 182.9375 C 326.765625 183.460938 326.476562 183.949219 326.007812 184.179688 L 127.867188 282.660156 C 127.570312 282.8125 127.207031 282.75 126.96875 282.507812 L 49.035156 204.085938 C 49.035156 204.085938 49.03125 204.085938 49.03125 204.082031 C 48.582031 203.628906 48.582031 202.890625 49.03125 202.445312 Z M 49.03125 202.445312 " fill-opacity="1" fill-rule="nonzero"/></g></g></g></g><g clip-path="url(#71b486e34b)"><g clip-path="url(#63e39653db)"><g clip-path="url(#99fe0f0c31)"><g clip-path="url(#ffaaaf8706)"><path fill="#7ab556" d="M 52.304688 217.53125 L 125.667969 291.367188 C 125.984375 291.6875 126.472656 291.765625 126.871094 291.566406 L 320.390625 195.398438 C 320.789062 195.199219 321.277344 195.277344 321.589844 195.59375 L 326.226562 200.25 C 326.40625 200.429688 326.515625 200.671875 326.527344 200.925781 C 326.550781 201.34375 326.320312 201.738281 325.941406 201.921875 L 125.875 297.300781 C 125.476562 297.484375 125.003906 297.398438 124.695312 297.089844 L 48.941406 220.878906 C 48.542969 220.472656 48.546875 219.8125 48.949219 219.410156 L 50.835938 217.523438 C 51.242188 217.125 51.902344 217.128906 52.304688 217.53125 Z M 52.304688 217.53125 " fill-opacity="1" fill-rule="nonzero"/></g></g></g></g></svg>